<?xml version="1.0" standalone="no"?>
<!DOCTYPE svg PUBLIC "-//W3C//DTD SVG 1.1//EN" "http://www.w3.org/Graphics/SVG/1.1/DTD/svg11.dtd" >
<svg>
<metadata>
Created by FontForge 20120731 at Sun Mar 20 20:42:21 2022
 By fw_worker
Copyright (c) 2001, Modular Infotech, Pune, INDIA. - Licenced to Microsoft
</metadata>
<defs>
<font id="Vijaya-Bold-CZ" horiz-adv-x="824" >
  <font-face 
    font-family="Vijaya_CZ"
    font-weight="700"
    font-style="italic"
    font-stretch="normal"
    units-per-em="2048"
    panose-1="2 11 8 4 2 2 2 2 2 4"
    ascent="1638"
    descent="-410"
    x-height="724"
    cap-height="1092"
    bbox="-950 -600 3278 2168"
    underline-thickness="122"
    underline-position="-159"
    slope="-11"
    unicode-range="U+0020-25CC"
  />
    <missing-glyph />
    <glyph glyph-name="end" horiz-adv-x="1600" 
d="M200 1400h1200v-1400h-1200v1400zM1300 100v1200h-1000v-1200h1000z" />
    <glyph glyph-name="null" horiz-adv-x="0" 
 />
    <glyph glyph-name="nonmarkingreturn" horiz-adv-x="0" 
 />
    <glyph glyph-name="space" unicode=" " horiz-adv-x="412" 
 />
    <glyph glyph-name="space" unicode="&#xa0;" horiz-adv-x="412" 
 />
    <glyph glyph-name="exclam" unicode="!" horiz-adv-x="642" 
d="M296 312h-30q39 212 58.5 432t60 296.5t105.5 76.5q35 0 62.5 -31t27.5 -74q0 -36 -14 -78.5t-85 -189.5q-117 -247 -185 -432zM222 240q55 0 93 -38.5t38 -92.5q0 -55 -38.5 -93.5t-92.5 -38.5q-55 0 -93 38.5t-38 93.5q0 54 38 92.5t93 38.5z" />
    <glyph glyph-name="quotedbl" unicode="&#x22;" horiz-adv-x="915" 
d="M699 580h-40l7 310q2 84 17 120q21 49 63.5 78t89.5 29q38 0 62 -24t24 -59q0 -24 -7 -42q-10 -28 -50 -102zM311 580h-40l5 310q3 115 52 171t119 56q38 0 62.5 -24t24.5 -57q0 -45 -56 -147z" />
    <glyph glyph-name="numbersign" unicode="#" 
d="M105 -23l69 342h-110v107h131l47 235h-178v105h199l70 348h107l-71 -348h237l69 348h107l-71 -348h113v-105h-133l-49 -235h182v-107h-202l-69 -342h-107l69 342h-234l-73 -342h-103zM302 426h237l46 235h-236z" />
    <glyph glyph-name="dollar" unicode="$" 
d="M515 677q152 -151 180 -195q50 -79 50 -174q0 -152 -110 -242t-271 -90q-18 0 -52 1l-29 -102h-62l32 111q-53 11 -85.5 22t-103.5 48l74 260h31q6 -120 30.5 -169.5t76.5 -82.5l122 424q-112 107 -153 182.5t-41 153.5q0 76 40.5 145.5t118 108.5t163.5 39q18 0 54 -3
l13 47h62l-16 -56q110 -24 185 -72l-76 -236h-31q9 53 9 86q0 56 -31 102q-22 33 -74 59zM563 1059q-78 3 -127 -44q-50 -47 -50 -120q0 -87 80 -170zM332 47q25 -3 41 -3q70 0 124 56.5t54 136.5q0 54 -23 100.5t-82 105.5z" />
    <glyph glyph-name="percent" unicode="%" horiz-adv-x="1373" 
d="M1284 1117l-1003 -1161h-97l1000 1161h100zM364 522q-82 0 -134 56t-52 158q0 158 106 277q86 97 205 97q88 0 141 -54.5t53 -152.5q0 -161 -98.5 -271t-220.5 -110zM369 565q27 0 44 14q24 19 41 62q8 21 63 214q30 109 30 152q0 27 -15 43.5t-37 16.5q-26 0 -40 -11
q-27 -20 -46 -66q-14 -33 -65 -220q-28 -100 -28 -146q0 -27 15 -43t38 -16zM963 -47q-79 0 -131.5 57.5t-52.5 159.5q0 153 98.5 263t213.5 110q85 0 140 -56.5t55 -150.5q0 -156 -101.5 -269.5t-221.5 -113.5zM968 0q25 0 42 14q26 21 45 67q12 27 66 211q29 101 29 145
q0 28 -17.5 46t-40.5 18q-29 0 -52.5 -28t-60.5 -148q-60 -199 -60 -267q0 -27 14 -42.5t35 -15.5z" />
    <glyph glyph-name="ampersand" unicode="&#x26;" horiz-adv-x="1282" 
d="M477 602q-5 44 -8.5 79t-3.5 61q0 161 100 268t236 107q87 0 139.5 -49.5t52.5 -117.5q0 -86 -51 -148q-77 -94 -245 -165q54 -173 74 -224t54 -110q46 50 66 98t20 79q0 26 -15 45t-50 28l10 29h309l-12 -29q-44 -10 -73.5 -35t-110.5 -133q-57 -77 -113 -136
q64 -90 117 -123q34 -23 78 -23q24 0 43 8t45 31h26q-39 -83 -102.5 -125t-143.5 -42q-68 0 -122 27t-114 91q-83 -58 -167.5 -88t-169.5 -30q-124 0 -197 69.5t-73 162.5q0 74 31 132t119 124t251 139zM683 697q66 48 97 98q43 68 43 145q0 58 -24 90q-20 23 -50 23
q-36 0 -57 -29q-30 -44 -30 -134q0 -42 5 -89.5t16 -103.5zM489 542q-92 -51 -132 -105.5t-40 -129.5q0 -93 57.5 -156t128.5 -63q31 0 68 13.5t80 40.5q-49 74 -94.5 186.5t-67.5 213.5z" />
    <glyph glyph-name="quotesingle" unicode="'" horiz-adv-x="458" 
d="M295 581h-38l4 308q1 115 50.5 171.5t119.5 56.5q38 0 62.5 -24t24.5 -59q0 -45 -54 -144z" />
    <glyph glyph-name="parenleft" unicode="(" horiz-adv-x="549" 
d="M716 1117l-14 -45q-115 -82 -191 -191q-116 -167 -188.5 -407.5t-72.5 -450.5q0 -135 63 -290l-14 -47q-216 290 -216 578q0 166 72 328q86 190 253 338q128 112 308 187z" />
    <glyph glyph-name="parenright" unicode=")" horiz-adv-x="549" 
d="M-186 -314l15 44q92 66 156 145t131.5 218.5t110.5 299.5q55 207 55 387q0 134 -64 291l13 46q217 -290 217 -578q0 -166 -73 -329q-84 -189 -253 -336q-128 -113 -308 -188z" />
    <glyph glyph-name="asterisk" unicode="*" 
d="M503 799q-2 46 -9 70.5t-33 75t-26 78.5q0 37 26 65.5t57 28.5q35 0 60.5 -26.5t25.5 -68.5q0 -33 -25 -79.5t-32 -71t-11 -72.5q45 18 64.5 31.5t57.5 54.5q50 54 97 54q36 0 60 -23.5t24 -55.5q0 -35 -29.5 -61.5t-77.5 -26.5q-16 0 -56 2q-19 1 -42 1q-29 0 -90 -3
q35 -39 54 -54t66.5 -39.5t67.5 -51.5q15 -20 15 -51q0 -35 -23.5 -59t-56.5 -24q-34 0 -62 29t-38 102q-7 47 -14.5 69t-32.5 64q-27 -43 -35.5 -66.5t-15.5 -66.5q-10 -73 -36.5 -100.5t-62.5 -27.5q-33 0 -56.5 22.5t-23.5 53.5q0 33 18 58t66.5 52t67 41t54.5 49l-86 3
q-23 0 -43 -1q-47 -3 -65 -3q-46 0 -75 26t-29 61q0 33 24 57t60 24q50 0 97 -48.5t61 -58.5q19 -14 63 -33z" />
    <glyph glyph-name="plus" unicode="+" horiz-adv-x="939" 
d="M64 599h388v386h105v-386h387v-106h-387v-384h-105v384h-388v106z" />
    <glyph glyph-name="comma" unicode="," horiz-adv-x="412" 
d="M-28 -265l-19 34q123 70 153 106q24 28 24 57q0 31 -41.5 69t-55.5 65q-10 20 -10 52q0 52 39 90t94 38q54 0 94 -43t40 -106q0 -101 -77 -198.5t-241 -163.5z" />
    <glyph glyph-name="hyphen" unicode="-" horiz-adv-x="549" 
d="M63 445h468l-50 -167h-471z" />
    <glyph glyph-name="period" unicode="." horiz-adv-x="412" 
d="M110 242q56 0 94.5 -39t38.5 -94q0 -54 -39 -93t-94 -39q-54 0 -93 39t-39 93q0 55 39 94t93 39z" />
    <glyph glyph-name="slash" unicode="/" horiz-adv-x="458" 
d="M683 1114l-702 -1139h-115l704 1139h113z" />
    <glyph glyph-name="zero" unicode="0" 
d="M584 1114q78 0 133.5 -45.5t80 -121t24.5 -149.5q0 -128 -33.5 -264t-93 -250.5t-131.5 -191.5q-46 -49 -112 -82t-134 -33q-64 0 -115.5 39t-81.5 113t-30 158q0 186 67 371q55 155 137.5 267.5t150.5 150.5t138 38zM589 1059q-24 0 -41.5 -9t-38 -37t-51.5 -120
q-57 -168 -126 -409q-53 -186 -64 -238q-15 -75 -15 -132q0 -39 21 -61.5t53 -22.5q33 0 54 17q42 37 71 123q66 202 166 556q45 156 45 246q0 41 -21.5 64t-52.5 23z" />
    <glyph glyph-name="one" unicode="1" 
d="M733 1114l-266 -916q-21 -72 -21 -91t15 -39.5t32 -26.5t104 -11l-9 -30h-549l8 30q83 1 115 13.5t52.5 39.5t46.5 115l158 544q36 124 37 131q5 21 5 40q0 36 -22 57.5t-63 21.5q-20 0 -80 -7l-6 30l410 99h33z" />
    <glyph glyph-name="two" unicode="2" 
d="M586 0h-580v30q227 209 382 385q130 145 163.5 222t33.5 155q0 73 -46 119t-116 46q-111 0 -191 -123l-30 14q42 119 109 181q92 85 217 85q116 0 192 -71.5t76 -165.5q0 -83 -37 -164t-153 -203q-88 -94 -359 -325h210q102 0 142.5 23t75.5 92h38z" />
    <glyph glyph-name="three" unicode="3" 
d="M210 593l11 35q111 16 180 47q92 41 133.5 95t41.5 116q0 53 -37.5 90.5t-94.5 37.5q-44 0 -82 -23t-82 -81l-32 16q68 101 136 144.5t152 43.5q106 0 172 -60t66 -144q0 -66 -32 -115t-95 -85q-46 -27 -144 -54q89 -39 126 -87q54 -72 54 -173q0 -190 -165 -314
q-137 -105 -318 -105q-97 0 -146 37q-34 25 -34 66q0 37 26 61t63 24q20 0 38 -8q30 -13 91 -54.5t102 -41.5q50 0 87 51q56 75 56 187q0 88 -35.5 154t-91 98t-146.5 42z" />
    <glyph glyph-name="four" unicode="4" 
d="M386 230h-357l39 135l654 749h106l-219 -749h126l-43 -135h-123l-74 -253h-183zM427 365l134 478l-414 -478h280z" />
    <glyph glyph-name="five" unicode="5" 
d="M419 1092h412l-54 -189h-383l-48 -98q116 -19 192 -62t123 -125.5t47 -179.5q0 -116 -62.5 -224.5t-173.5 -172.5t-235 -64q-90 0 -132 33t-42 76q0 36 25.5 61t59.5 25q29 0 52 -9q13 -7 82 -62q43 -36 89 -36q61 0 103 53q56 70 56 177q0 96 -46.5 178.5t-126.5 125.5
q-62 33 -161 35z" />
    <glyph glyph-name="six" unicode="6" 
d="M841 1123v-31q-122 -34 -217 -123q-118 -109 -202 -298q75 25 129 25q91 0 152 -68.5t61 -192.5q0 -161 -90 -295q-111 -163 -295 -163q-125 0 -202.5 86.5t-77.5 244.5q0 170 75.5 328.5t191 267.5t248.5 166q104 44 227 53zM395 609q-54 -143 -90 -293
q-24 -101 -24 -168q0 -61 26 -91t66 -30q31 0 56 23q41 37 77 148q55 176 55 292q0 60 -33 100q-26 31 -61 31q-28 0 -72 -12z" />
    <glyph glyph-name="seven" unicode="7" 
d="M341 1092h572v-37l-641 -1078l-64 37l525 884h-263q-105 0 -154.5 -21.5t-90.5 -74.5h-31z" />
    <glyph glyph-name="eight" unicode="8" 
d="M339 570q-51 68 -76.5 132t-25.5 124q0 123 83 205.5t219 82.5q125 0 197.5 -69t72.5 -166q0 -64 -30.5 -116.5t-87.5 -92.5q-37 -26 -114 -53q94 -123 116.5 -174t22.5 -114q0 -147 -101 -249.5t-256 -102.5q-139 0 -218.5 74.5t-79.5 187.5q0 77 35 141t104 117
q50 38 139 73zM543 654q43 30 57 64q30 77 30 204q0 79 -24.5 111.5t-57.5 32.5q-42 0 -65 -32q-39 -54 -39 -149q0 -58 20.5 -108.5t78.5 -122.5zM368 534q-41 -36 -58 -63q-26 -41 -48 -122t-22 -172q0 -76 29.5 -111.5t76.5 -35.5q58 0 100 53q59 73 59 176
q0 68 -27.5 126t-109.5 149z" />
    <glyph glyph-name="nine" unicode="9" 
d="M70 -23v33q123 33 229 132t191 287q-75 -26 -129 -26q-91 0 -152.5 68.5t-61.5 193.5q0 161 91 295q111 162 295 162q125 0 202 -86t77 -245q0 -170 -75 -328.5t-191 -267.5t-248 -165q-104 -44 -228 -53zM516 490q55 144 91 293q23 102 23 169q0 60 -26 90t-65 30
q-31 0 -56 -22q-42 -37 -77 -148q-56 -176 -56 -293q0 -59 34 -99q25 -32 61 -32q28 0 71 12z" />
    <glyph glyph-name="colon" unicode=":" horiz-adv-x="549" 
d="M345 745q54 0 93 -39t39 -94t-39 -93.5t-94 -38.5t-93.5 38.5t-38.5 93.5t38.5 94t94.5 39zM198 242q56 0 94.5 -39t38.5 -94q0 -54 -39 -93t-94 -39t-93.5 39t-38.5 93q0 55 38.5 94t93.5 39z" />
    <glyph glyph-name="semicolon" unicode=";" horiz-adv-x="549" 
d="M347 745q56 0 95 -39t39 -95q0 -55 -39 -94.5t-95 -39.5q-55 0 -94.5 39.5t-39.5 94.5q0 56 39 95t95 39zM19 -265l-18 34q123 70 153 106q23 28 23 57q0 31 -41.5 69t-54.5 65q-11 20 -11 52q0 52 39 90t95 38q54 0 93.5 -43t39.5 -106q0 -101 -76.5 -198.5
t-241.5 -163.5z" />
    <glyph glyph-name="less" unicode="&#x3c;" horiz-adv-x="939" 
d="M943 149l-879 359v65l879 363v-111l-680 -284l680 -279v-113z" />
    <glyph glyph-name="equal" unicode="=" horiz-adv-x="939" 
d="M64 728h881v-105h-881v105zM64 464h881v-104h-881v104z" />
    <glyph glyph-name="greater" unicode="&#x3e;" horiz-adv-x="939" 
d="M64 936l879 -358v-66l-879 -363v112l681 283l-681 280v112z" />
    <glyph glyph-name="question" unicode="?" 
d="M310 308h-33q0 86 27.5 147t146.5 201q84 100 117 177q22 51 22 108q0 68 -32.5 105t-80.5 37q-35 0 -55.5 -18t-20.5 -40q0 -16 14 -40q29 -51 29 -89q0 -40 -32 -71t-77 -31q-47 0 -79.5 34t-32.5 91q0 95 81 146.5t187 51.5q89 0 157 -29t102.5 -82t34.5 -110
q0 -82 -41 -146q-57 -88 -199.5 -176.5t-182.5 -137.5t-52 -128zM278 240q54 0 92.5 -38.5t38.5 -92.5q0 -55 -38.5 -93.5t-92.5 -38.5q-55 0 -93.5 38.5t-38.5 93.5q0 54 38 92.5t94 38.5z" />
    <glyph glyph-name="at" unicode="@" horiz-adv-x="1372" 
d="M869 745l196 8l-147 -506q-25 -84 -25 -125q0 -26 19 -45t46 -19q55 0 143.5 64t146 182.5t57.5 253.5q0 222 -143 365t-372 143q-198 0 -360 -93t-257 -270t-95 -380q0 -279 177.5 -456.5t452.5 -177.5q226 0 405.5 121.5t254.5 322.5h49q-97 -237 -281.5 -363
t-429.5 -126q-310 0 -511 200t-201 507q0 211 99.5 391t280 277.5t399.5 97.5q178 0 311 -71.5t200 -200.5t67 -272q0 -166 -72 -304t-179.5 -203.5t-231.5 -65.5q-80 0 -122 39.5t-42 101.5q0 43 20 113q-67 -111 -104 -153q-51 -58 -101 -84q-32 -17 -73 -17
q-57 0 -96 45.5t-39 133.5q0 90 26 176.5t71 162.5t104.5 136.5t133.5 99.5q37 21 81 21q45 0 74.5 -28t39.5 -98zM747 717q-31 0 -60 -34q-41 -45 -86 -153q-83 -192 -83 -309q0 -35 15 -54.5t33 -19.5q15 0 44 23q41 31 88 106t76.5 166.5t29.5 168.5q0 56 -21 85
q-15 21 -36 21z" />
    <glyph glyph-name="bracketleft" unicode="[" horiz-adv-x="549" 
d="M-47 -303l405 1395h349l-9 -30h-27q-58 0 -86.5 -12.5t-48 -40t-41.5 -101.5l-299 -1022q-25 -87 -25 -115q0 -11 7 -20q9 -11 26 -18q13 -5 55 -5h49l-9 -31h-346z" />
    <glyph glyph-name="backslash" unicode="\" horiz-adv-x="458" 
d="M225 1114l110 -1139h-98l-108 1139h96z" />
    <glyph glyph-name="bracketright" unicode="]" horiz-adv-x="549" 
d="M572 1092l-406 -1395h-349l9 31h27q58 0 86.5 12.5t48 39.5t41.5 101l299 1022q25 86 25 115q0 11 -7 20q-9 12 -26 18q-13 6 -55 6h-49l9 30h347z" />
    <glyph glyph-name="asciicircum" unicode="^" horiz-adv-x="939" 
d="M167 536l331 578h66l326 -578h-128l-238 412l-233 -412h-124z" />
    <glyph glyph-name="underscore" unicode="_" 
d="M-145 -250h855v-106h-855v106z" />
    <glyph glyph-name="grave" unicode="`" horiz-adv-x="549" 
d="M196 1117h237l86 -280h-63z" />
    <glyph glyph-name="braceleft" unicode="{" horiz-adv-x="574" 
d="M752 1117l-11 -37q-74 -13 -122.5 -47.5t-69.5 -82.5t-27 -158t-32 -167t-76 -105.5t-111 -79.5q-45 -22 -140 -46q98 -33 136 -70q61 -58 61 -142q0 -64 -65 -183.5t-65 -178.5q0 -45 25 -73.5t92 -41.5l-11 -38q-78 0 -120 13q-69 24 -107.5 73.5t-38.5 117.5
q0 67 69 190.5t69 189.5q0 46 -28.5 76.5t-88.5 40.5l14 49q69 11 119 47t75.5 92.5t31 170t29.5 166.5t84 109t134.5 83.5t173.5 31.5z" />
    <glyph glyph-name="bar" unicode="|" horiz-adv-x="363" 
d="M128 -356v1473h105v-1473h-105z" />
    <glyph glyph-name="braceright" unicode="}" horiz-adv-x="574" 
d="M-154 -333l11 37q74 13 122.5 47t69.5 82.5t27 158.5t32 167t76 105t111 80q46 22 140 46q-98 33 -136 70q-61 58 -61 141q0 64 65 184t65 179q0 45 -25 73.5t-92 42.5l11 37q79 0 120 -13q70 -24 108 -73.5t38 -117.5q0 -67 -69 -190.5t-69 -189.5q0 -46 28.5 -76.5
t88.5 -40.5l-14 -49q-69 -11 -119 -47t-75.5 -92.5t-30.5 -170t-29.5 -166.5t-84.5 -109t-134.5 -83.5t-173.5 -31.5z" />
    <glyph glyph-name="asciitilde" unicode="~" horiz-adv-x="939" 
d="M862 571h46q-5 -128 -66.5 -194t-150.5 -66q-42 0 -90 13.5t-211 82.5q-118 49 -170 49q-55 0 -91.5 -33.5t-50.5 -110.5h-47q7 132 66 196t144 64q42 0 83 -12q82 -23 225 -84q77 -34 118 -45q24 -7 53 -7q57 0 96 38t46 109z" />
    <glyph glyph-name="cent" unicode="&#xa2;" 
d="M663 1062l-95 -316q93 -1 136 -31q58 -42 58 -111q0 -53 -35 -90t-77 -37q-37 0 -61.5 23.5t-24.5 55.5q0 45 45 79q29 21 29 39q0 13 -12 22q-16 12 -42 12q-11 0 -29 -2l-180 -602q49 -18 73 -18q33 0 97 26t118 83l24 -24q-66 -75 -120.5 -115t-105 -57t-123.5 -19
l-85 -287h-57l87 287q-75 16 -112 43t-60 79t-23 108q0 131 64.5 251.5t175.5 202.5q72 52 184 82l96 316h55zM493 682q-47 -31 -75 -66q-52 -65 -88 -162t-36 -196q0 -54 38 -119z" />
    <glyph glyph-name="multiply" unicode="&#xd7;" horiz-adv-x="939" 
d="M199 895l274 -274l273 273l74 -74l-273 -273l274 -274l-75 -75l-273 274l-273 -272l-74 75l272 271l-274 274z" />
    <glyph glyph-name="divide" unicode="&#xf7;" horiz-adv-x="905" 
d="M481 898q35 0 59 -24t24 -58t-24 -58t-59 -24q-33 0 -57.5 24t-24.5 58t24.5 58t57.5 24zM40 599h880v-106h-880v106zM481 365q34 0 58.5 -24.5t24.5 -57.5q0 -35 -24.5 -59t-58.5 -24t-58.5 24t-24.5 59q0 33 24 57.5t59 24.5z" />
    <glyph glyph-name="tm_visarga" unicode="&#xb83;" horiz-adv-x="1348" 
d="M844 700q-105 0 -172.5 73t-67.5 181q0 142 92.5 244t227.5 102q105 0 172.5 -73t67.5 -181q0 -142 -92.5 -244t-227.5 -102zM890 1160q-60 0 -104 -64t-44 -138q0 -96 74 -96q60 0 105 64.5t45 137.5q0 96 -76 96zM1044 0q-105 0 -172.5 73t-67.5 181q0 142 92.5 244
t227.5 102q105 0 172.5 -73t67.5 -181q0 -142 -92.5 -244t-227.5 -102zM1090 460q-60 0 -104 -64t-44 -138q0 -96 74 -96q60 0 105 64.5t45 137.5q0 96 -76 96zM364 0q-105 0 -172.5 73t-67.5 181q0 142 92.5 244t227.5 102q105 0 172.5 -73t67.5 -181q0 -142 -92.5 -244
t-227.5 -102zM410 460q-60 0 -104 -64t-44 -138q0 -96 74 -96q60 0 105 64.5t45 137.5q0 96 -76 96z" />
    <glyph glyph-name="tm_a" unicode="&#xb85;" horiz-adv-x="1834" 
d="M798 420q40 0 66 36.5t26 83.5q0 42 -21.5 71t-56.5 29q-40 0 -66 -36.5t-26 -83.5q0 -42 21.5 -71t56.5 -29zM1468 80h-166q-105 -155 -293.5 -247.5t-400.5 -92.5q-224 0 -389 114.5t-165 237.5q0 108 138 108h940q38 91 38 174q0 223 -150 280q44 -56 44 -130
q0 -102 -72 -173t-176 -71q-94 0 -155 62t-61 158q0 130 96 215t238 85q197 0 329.5 -124.5t132.5 -305.5q0 -89 -30 -170h128l120 600h240l-254 -1260h-240zM1064 80h-880q28 -88 149.5 -159t258.5 -71q298 0 472 230z" />
    <glyph glyph-name="tm_aa" unicode="&#xb86;" horiz-adv-x="1932" 
d="M798 420q40 0 66 36.5t26 83.5q0 42 -21.5 71t-56.5 29q-40 0 -66 -36.5t-26 -83.5q0 -42 21.5 -71t56.5 -29zM1468 80h-166q-105 -155 -293.5 -247.5t-400.5 -92.5q-224 0 -389 114.5t-165 237.5q0 108 138 108h940q38 91 38 174q0 223 -150 280q44 -56 44 -130
q0 -102 -72 -173t-176 -71q-94 0 -155 62t-61 158q0 130 96 215t238 85q197 0 329.5 -124.5t132.5 -305.5q0 -89 -30 -170h128l120 600h240l-162 -806q66 52 146 52q82 0 141 -62.5t59 -151.5q0 -187 -175.5 -309.5t-478.5 -122.5q-192 0 -326 64.5t-134 155.5
q0 65 88 107.5t232 42.5v-100q-156 0 -156 -54q0 -37 87 -66.5t209 -29.5q197 0 320.5 84t123.5 202q0 96 -74 96q-81 0 -104 -112l-22 -110h-240zM1064 80h-880q28 -88 149.5 -159t258.5 -71q298 0 472 230z" />
    <glyph glyph-name="tm_i" unicode="&#xb87;" horiz-adv-x="1820" 
d="M1590 -560h-120l128 640q42 210 42 332q0 269 -183 466.5t-457 197.5q-289 0 -482.5 -186.5t-193.5 -469.5q0 -199 110 -404q171 80 352 80q145 0 272 -42q128 193 128 346q0 117 -59 193.5t-157 76.5q120 -91 120 -220q0 -94 -71 -160t-175 -66q-97 0 -155.5 66
t-58.5 170q0 136 105.5 237t252.5 101q166 0 280 -133t114 -315q0 -186 -134 -396q162 -129 162 -288q0 -111 -87.5 -183.5t-226.5 -72.5q-172 0 -342 94q-183 -94 -342 -94q-135 0 -218.5 62.5t-83.5 161.5q0 169 212 318q-128 233 -128 452q0 364 248.5 610t613.5 246
q303 0 517.5 -205.5t214.5 -498.5q0 -131 -52 -390zM842 624q-72 -62 -72 -164q0 -98 70 -98q72 0 72 94q0 97 -70 168zM978 -54q-91 30 -208 30q-140 0 -274 -62q91 -129 210 -214q153 103 272 246zM582 -372q-113 99 -196 220q-134 -101 -134 -192q0 -82 118 -82
q97 0 212 54zM1160 -168q-105 -127 -248 -230q63 -16 128 -16q77 0 124.5 36.5t47.5 93.5q0 60 -52 116z" />
    <glyph glyph-name="tm_ii" unicode="&#xb88;" horiz-adv-x="1214" 
d="M1306 800l-24 -120h-280l-136 -680h-240l136 680h-366l-136 -680h-120l160 800h1006zM1126 280q-50 0 -85 35t-35 85q0 51 35 85.5t85 34.5q51 0 85.5 -34.5t34.5 -85.5q0 -50 -34.5 -85t-85.5 -35zM520 280q-50 0 -85 35t-35 85q0 51 35 85.5t85 34.5q51 0 85.5 -34.5
t34.5 -85.5q0 -50 -34.5 -85t-85.5 -35z" />
    <glyph glyph-name="tm_u" unicode="&#xb89;" horiz-adv-x="1452" 
d="M1454 120l-24 -120h-1117q-221 0 -221 154q0 80 71.5 128t188.5 48h162q103 0 161.5 51.5t58.5 136.5q0 71 -37 116.5t-97 45.5q24 -44 24 -96q0 -95 -57.5 -153.5t-150.5 -58.5q-81 0 -132.5 53t-51.5 135q0 115 104 197.5t264 82.5q158 0 265 -93.5t107 -226.5
q0 -146 -122.5 -228t-343.5 -82h-162q-72 0 -72 -45t68 -45h1114zM412 643q-25 0 -43 -21.5t-18 -50.5t18 -50t43 -21t43 21t18 50t-18 50.5t-43 21.5z" />
    <glyph glyph-name="tm_uu" unicode="&#xb8a;" horiz-adv-x="2060" 
d="M2054 120l-24 -120h-1721q-221 0 -221 154q0 80 71.5 128t188.5 48h162q103 0 161.5 51.5t58.5 136.5q0 71 -37 116.5t-97 45.5q24 -44 24 -96q0 -95 -57.5 -153.5t-150.5 -58.5q-81 0 -132.5 53t-51.5 135q0 115 104 197.5t264 82.5q158 0 265 -93.5t107 -226.5
q0 -146 -122.5 -228t-343.5 -82h-162q-72 0 -72 -45t68 -45h1718zM408 643q-25 0 -43 -21.5t-18 -50.5t18 -50t43 -21t43 21t18 50t-18 50.5t-43 21.5zM2152 800l-22 -100h-116l-96 -480h-156l98 480h-112l-98 -480h-160l38 186q6 29 6 64q0 85 -57 147.5t-161 62.5
q-91 0 -152.5 -63t-61.5 -153q0 -87 54 -132q-16 37 -16 76q0 73 44.5 122.5t115.5 49.5q66 0 110 -49.5t44 -122.5q0 -86 -59.5 -142t-152.5 -56q-98 0 -167 76t-69 182q0 141 99.5 236.5t250.5 95.5q205 0 286 -184l38 184h472zM1282 456q-56 0 -56 -76q0 -52 42 -52
q25 0 41.5 23t16.5 53q0 52 -44 52z" />
    <glyph glyph-name="tm_e" unicode="&#xb8e;" horiz-adv-x="1400" 
d="M500 154q35 0 56.5 31.5t21.5 72.5q0 72 -60 72q-35 0 -56.5 -31.5t-21.5 -72.5q0 -72 60 -72zM936 0l136 680h-398q-176 0 -291 -102.5t-115 -239.5q0 -117 76 -180q-20 46 -20 104q0 101 65 170.5t163 69.5q95 0 152.5 -64t57.5 -166q0 -116 -84 -199t-204 -83
q-143 0 -235.5 100t-92.5 248q0 191 160.5 326.5t397.5 135.5h832l-24 -120h-200l-136 -680h-240z" />
    <glyph glyph-name="tm_ee" unicode="&#xb8f;" horiz-adv-x="1382" 
d="M500 154q35 0 56.5 31.5t21.5 72.5q0 72 -60 72q-35 0 -56.5 -31.5t-21.5 -72.5q0 -72 60 -72zM936 0l136 680h-398q-176 0 -291 -102.5t-115 -239.5q0 -117 76 -180q-20 46 -20 104q0 101 65 170.5t163 69.5q95 0 152.5 -64t57.5 -166q0 -116 -84 -199t-204 -83
q-143 0 -235.5 100t-92.5 248q0 191 160.5 326.5t397.5 135.5h832l-24 -120h-200l-136 -680l-634 -260l-32 76z" />
    <glyph glyph-name="tm_ai" unicode="&#xb90;" horiz-adv-x="1464" 
d="M502 360q42 0 42 62q0 58 -42 58t-42 -62q0 -58 42 -58zM348 -540q-153 0 -254.5 83.5t-101.5 216.5q0 166 126.5 263t351.5 97h486q124 0 200 101t76 247q0 93 -27 152.5t-73 59.5q-59 0 -80 -120l-60 -340h-236q46 127 46 230q0 112 -80 191t-198 79
q-111 0 -186.5 -69.5t-75.5 -176.5q0 -142 120 -164q-60 56 -60 130q0 75 56 127.5t134 52.5q77 0 130.5 -50t53.5 -126q0 -104 -76.5 -169t-191.5 -65q-112 0 -189 78t-77 192q0 141 112.5 250.5t281.5 109.5q256 0 384 -206q72 206 276 206q113 0 184.5 -110t71.5 -270
q0 -196 -128.5 -328t-343.5 -132h-500q-130 0 -209 -61.5t-79 -158.5q0 -87 52.5 -143.5t135.5 -56.5q118 0 202 92t116 248h214l-14 -72q-8 -44 -8 -82q0 -186 154 -186q89 0 144.5 76.5t55.5 183.5v80h120v-80q0 -150 -94 -265t-234 -115q-248 0 -300 226
q-147 -226 -408 -226z" />
    <glyph glyph-name="tm_o" unicode="&#xb92;" horiz-adv-x="1506" 
d="M458 154q35 0 56.5 31.5t21.5 72.5q0 72 -60 72q-35 0 -56.5 -31.5t-21.5 -72.5q0 -72 60 -72zM1033 -105q-181 57 -181 265q0 118 88.5 199t211.5 81q-20 -66 -20 -140q0 -140 70 -140t70 140q0 168 -142 274t-352 106q-229 0 -378.5 -105.5t-149.5 -252.5
q0 -108 54 -162q-22 50 -22 102q0 101 63.5 170.5t160.5 69.5q96 0 155 -64.5t59 -165.5q0 -116 -84 -199t-204 -83q-128 0 -215 87t-87 223q0 211 197 355.5t493 144.5q264 0 468 -149.5t204 -370.5q0 -112 -69 -195t-173 -83q-96 0 -158 79t-62 187q0 7 2 30
q-74 -43 -74 -134q0 -112 91 -178t223 -66h100l-24 -120h-76q-94 0 -152 -55t-128 -165q-115 -180 -360 -180q-135 0 -237.5 80t-102.5 200q0 97 100 180l60 -40q-40 -51 -40 -110q0 -67 67.5 -108.5t152.5 -41.5q109 0 200 160q79 143 201 175z" />
    <glyph glyph-name="tm_oo" unicode="&#xb93;" horiz-adv-x="1450" 
d="M458 154q35 0 56.5 31.5t21.5 72.5q0 72 -60 72q-35 0 -56.5 -31.5t-21.5 -72.5q0 -72 60 -72zM1007 -97q-155 77 -155 257q0 118 88.5 199t211.5 81q-20 -66 -20 -140q0 -140 70 -140t70 140q0 168 -142 274t-352 106q-229 0 -378.5 -105.5t-149.5 -252.5
q0 -108 54 -162q-22 50 -22 102q0 101 65 170.5t163 69.5q95 0 152.5 -64t57.5 -166q0 -116 -84 -199t-204 -83q-128 0 -215 87t-87 223q0 211 197 355.5t493 144.5q264 0 468 -149.5t204 -370.5q0 -112 -69 -195t-173 -83q-96 0 -158 79t-62 187q0 7 2 30q-74 -43 -74 -134
q0 -112 91 -178t223 -66h100l-24 -120h-122q-96 0 -142.5 -19.5t-87.5 -88.5q-150 -252 -382 -252q-142 0 -250 77.5t-108 202.5q0 94 70.5 157t169.5 63q67 0 113.5 -44.5t46.5 -105.5q0 -49 -30 -79.5t-74 -30.5q-48 0 -78 35t-30 89q0 8 2 24q-90 -13 -90 -100
q0 -63 56 -105.5t136 -42.5q101 0 172 86q32 46 84.5 113t100.5 93.5t102 30.5z" />
    <glyph glyph-name="tm_au" unicode="&#xb94;" horiz-adv-x="3128" 
d="M458 154q35 0 56.5 31.5t21.5 72.5q0 72 -60 72q-35 0 -56.5 -31.5t-21.5 -72.5q0 -72 60 -72zM1033 -105q-181 57 -181 265q0 118 88.5 199t211.5 81q-20 -66 -20 -140q0 -140 70 -140t70 140q0 168 -142 274t-352 106q-229 0 -378.5 -105.5t-149.5 -252.5
q0 -108 54 -162q-22 50 -22 102q0 101 63.5 170.5t160.5 69.5q96 0 155 -64.5t59 -165.5q0 -116 -84 -199t-204 -83q-128 0 -215 87t-87 223q0 211 197 355.5t493 144.5q264 0 468 -149.5t204 -370.5q0 -112 -69 -195t-173 -83q-96 0 -158 79t-62 187q0 7 2 30
q-74 -43 -74 -134q0 -112 91 -178t223 -66h100l-24 -120h-76q-94 0 -152 -55t-128 -165q-115 -180 -360 -180q-135 0 -237.5 80t-102.5 200q0 97 100 180l60 -40q-40 -51 -40 -110q0 -67 67.5 -108.5t152.5 -41.5q109 0 200 160q79 143 201 175zM1994 154q35 0 56.5 31.5
t21.5 72.5q0 72 -60 72q-35 0 -56.5 -31.5t-21.5 -72.5q0 -72 60 -72zM3268 800l-24 -120h-186l-136 -680h-240l136 680h-154l-136 -680h-230l54 266q10 49 10 88q0 116 -79.5 203t-220.5 87q-125 0 -212.5 -90.5t-87.5 -215.5q0 -117 76 -180q-20 46 -20 104
q0 101 63.5 170.5t160.5 69.5q96 0 155 -64.5t59 -165.5q0 -116 -84 -199t-204 -83q-143 0 -235.5 100t-92.5 248q0 197 134 329.5t340 132.5q137 0 244 -67.5t159 -185.5l51 253h700z" />
    <glyph glyph-name="tm_ka" unicode="&#xb95;" horiz-adv-x="1226" 
d="M592 340h-246q-106 0 -106 -80q0 -50 50 -85t110 -35q152 0 192 200zM832 340q-32 -159 -143 -249.5t-277 -90.5q-122 0 -217 71.5t-95 176.5q0 88 67.5 150t174.5 62l68 340h760l-24 -120h-246l-44 -220h38q146 0 236 -63t90 -163q0 -97 -79 -165.5t-197 -68.5
q-46 0 -90 10l18 88h32q116 0 116 114q0 58 -51 93t-129 35h-8zM660 680h-154l-44 -220h154z" />
    <glyph glyph-name="tm_nga" unicode="&#xb99;" horiz-adv-x="1460" 
d="M1326 0h-926l24 120h278q75 0 105.5 64t30.5 130q0 86 -62 86q-52 0 -70 -80l-26 -120h-240l96 480h-140l-136 -680h-120l160 800h780l-24 -120h-276l-36 -180q58 42 126 42q81 0 133.5 -60t52.5 -148q0 -110 -96 -214h150l136 680h240z" />
    <glyph glyph-name="tm_ca" unicode="&#xb9a;" horiz-adv-x="1052" 
d="M592 340h-246q-106 0 -106 -80q0 -50 50 -85t110 -35q152 0 192 200zM1078 340h-246q-32 -159 -143 -249.5t-277 -90.5q-122 0 -217 71.5t-95 176.5q0 88 67.5 150t174.5 62l68 340h760l-24 -120h-246l-44 -220h246zM660 680h-154l-44 -220h154z" />
    <glyph glyph-name="tm_ja" unicode="&#xb9c;" horiz-adv-x="1470" 
d="M512 360q42 0 42 62q0 58 -42 58t-42 -62q0 -58 42 -58zM1216 840q113 0 184.5 -110t71.5 -270q0 -196 -128.5 -328t-343.5 -132h-500q-130 0 -209 -61.5t-79 -158.5q0 -72 52.5 -116t135.5 -44q73 0 142 32t169 129t172 128t149 31q111 0 185.5 -64t74.5 -156
q0 -102 -81 -171t-199 -69q-92 0 -200 40l20 100q74 -20 140 -20q68 0 114 33.5t46 86.5q0 45 -34 72.5t-86 27.5q-68 0 -135.5 -40t-175 -146.5t-189.5 -140t-164 -33.5q-143 0 -249.5 84.5t-106.5 215.5q0 166 126.5 263t351.5 97h486q124 0 200 101t76 247
q0 93 -27 152.5t-73 59.5q-59 0 -80 -120l-60 -340h-226q46 127 46 230q0 112 -80 191t-198 79q-111 0 -186.5 -69.5t-75.5 -176.5q0 -142 120 -164q-60 56 -60 130q0 75 56 127.5t134 52.5q77 0 130.5 -50t53.5 -126q0 -104 -76.5 -169t-191.5 -65q-112 0 -189 78t-77 192
q0 141 112.5 250.5t281.5 109.5q246 0 374 -206q72 206 276 206z" />
    <glyph glyph-name="tm_nya" unicode="&#xb9e;" horiz-adv-x="1878" 
d="M818 154q35 0 56.5 31.5t21.5 72.5q0 72 -60 72q-35 0 -56.5 -31.5t-21.5 -72.5q0 -72 60 -72zM1194 0l136 680h-338q-176 0 -291 -102.5t-115 -239.5q0 -117 76 -180q-20 46 -20 104q0 101 65 170.5t163 69.5q95 0 152.5 -64t57.5 -166q0 -116 -84 -199t-204 -83
q-143 0 -235.5 100t-92.5 248q0 192 160 327t398 135h742l-24 -120h-170l-44 -224q49 46 126 46q90 0 146 -73t56 -189q0 -300 -253.5 -500t-590.5 -200q-371 0 -606.5 194.5t-235.5 517.5q0 147 62 297.5t162 250.5l90 -60q-194 -204 -194 -480q0 -262 190.5 -421
t483.5 -159q294 0 476 152t182 408q0 118 -60 118q-55 0 -68 -64l-58 -294h-240z" />
    <glyph glyph-name="tm_tta" unicode="&#xb9f;" horiz-adv-x="1482" 
d="M1456 0h-1316l160 800h240l-136 -680h1076z" />
    <glyph glyph-name="tm_nna" unicode="&#xba3;" horiz-adv-x="2256" 
d="M502 154q35 0 56.5 31.5t21.5 72.5q0 72 -60 72q-35 0 -56.5 -31.5t-21.5 -72.5q0 -72 60 -72zM1022 154q38 0 61 38.5t23 87.5q0 129 -82 236q-78 -113 -78 -252q0 -110 76 -110zM1564 154q38 0 61 38.5t23 87.5q0 139 -66 246q-94 -117 -94 -262q0 -110 76 -110z
M2378 800l-20 -120h-128l-136 -680h-230l136 680h-102q-101 0 -192 -50q142 -156 142 -352q0 -126 -74 -207t-190 -81q-96 0 -156 76.5t-60 187.5q0 201 140 358q-82 68 -192 68q-90 0 -174 -52q164 -154 164 -350q0 -126 -74 -207t-190 -81q-96 0 -156 76.5t-60 187.5
q0 190 118 342q-113 84 -268 84q-176 0 -291 -102.5t-115 -239.5q0 -117 76 -180q-20 46 -20 104q0 101 63.5 170.5t160.5 69.5q96 0 155 -64.5t59 -165.5q0 -116 -84 -199t-204 -83q-143 0 -235.5 100t-92.5 248q0 191 160.5 326.5t397.5 135.5q188 0 344 -100
q134 100 292 100q148 0 276 -92q139 92 300 92h460z" />
    <glyph glyph-name="tm_ta" unicode="&#xba4;" horiz-adv-x="1206" 
d="M592 340h-246q-106 0 -106 -80q0 -50 50 -85t110 -35q152 0 192 200zM616 460l44 220h-154l-44 -220h154zM410 800h720l-24 -120h-206l-44 -220h10q146 0 231 -70.5t85 -189.5q0 -181 -174.5 -290.5t-461.5 -109.5h-217q-94 0 -129 -44q62 -31 62 -100q0 -51 -34.5 -83.5
t-89.5 -32.5q-50 0 -83 39t-33 93q0 95 89.5 161.5t233.5 66.5h191q219 0 321.5 84t102.5 224q0 61 -35.5 96.5t-92.5 35.5q-32 -159 -143 -249.5t-277 -90.5q-122 0 -217 71.5t-95 176.5q0 88 67.5 150t174.5 62z" />
    <glyph glyph-name="tm_na" unicode="&#xba8;" horiz-adv-x="1102" 
d="M1020 800l-24 -120h-200l-44 -224q58 46 122 46q88 0 147 -75t59 -187q0 -108 -40.5 -191t-124 -142.5t-184 -83t-267.5 -23.5h-76q-93 0 -128 -44q62 -31 62 -100q0 -51 -34.5 -83.5t-89.5 -32.5q-50 0 -83 39t-33 93q0 95 90.5 161.5t237.5 66.5h50q98 0 158 8.5
t113 47t83 108.5t30 166q0 128 -64 128q-49 0 -64 -74l-56 -284h-240l136 680h-160l-136 -680h-120l160 800h720z" />
    <glyph glyph-name="tm_nnna" unicode="&#xba9;" horiz-adv-x="1748" 
d="M502 154q35 0 56.5 31.5t21.5 72.5q0 72 -60 72q-35 0 -56.5 -31.5t-21.5 -72.5q0 -72 60 -72zM1022 154q38 0 61 38.5t23 87.5q0 122 -80 228q-80 -110 -80 -244q0 -110 76 -110zM1356 680q-112 0 -208 -58q158 -154 158 -344q0 -126 -74 -207t-190 -81q-96 0 -156 76.5
t-60 187.5q0 186 120 336q-117 90 -270 90q-176 0 -291 -102.5t-115 -239.5q0 -117 76 -180q-20 46 -20 104q0 101 63.5 170.5t160.5 69.5q96 0 155 -64.5t59 -165.5q0 -116 -84 -199t-204 -83q-143 0 -235.5 100t-92.5 248q0 192 159 327t399 135q194 0 352 -104
q144 104 318 104h490l-20 -120h-124l-136 -680h-240l136 680h-126z" />
    <glyph glyph-name="tm_pa" unicode="&#xbaa;" horiz-adv-x="1320" 
d="M1100 800h240l-160 -800h-1040l160 800h240l-136 -680h560z" />
    <glyph glyph-name="tm_ma" unicode="&#xbae;" horiz-adv-x="1372" 
d="M880 120h180q80 0 130 64t50 156q0 122 -53.5 212t-124.5 90q-39 0 -64 -29.5t-46 -132.5zM1008 800q143 0 247.5 -136.5t104.5 -321.5q0 -148 -85 -245t-219 -97h-916l160 800h240l-136 -680h236l84 416q53 264 284 264z" />
    <glyph glyph-name="tm_ya" unicode="&#xbaf;" horiz-adv-x="1368" 
d="M1150 800h230l-160 -800h-540q-98 0 -110 90q-90 -90 -212 -90q-170 0 -170 194q0 44 8 84l104 522h230l-104 -518q-4 -20 -4 -34q0 -68 68 -68q76 0 96 102l104 518h230l-140 -680h234z" />
    <glyph glyph-name="tm_ra" unicode="&#xbb0;" horiz-adv-x="906" 
d="M74 -184l426 184l136 680h-240l-136 -680h-120l160 800h740l-24 -120h-140l-136 -680l-634 -260z" />
    <glyph glyph-name="tm_rra" unicode="&#xbb1;" horiz-adv-x="1274" 
d="M930 840q141 0 231.5 -116.5t90.5 -283.5q0 -270 -163.5 -455t-434.5 -185h-214q-93 0 -128 -44q62 -31 62 -100q0 -51 -34.5 -83.5t-89.5 -32.5q-50 0 -83 39t-33 93q0 95 90.5 161.5t237.5 66.5h192q182 0 273 142t91 394q0 98 -36 171t-94 73q-98 0 -124 -130
l-110 -550h-220l114 571q3 13 3 23q0 86 -79 86q-82 0 -104 -109l-114 -571h-120l120 600q48 240 240 240q140 0 184 -150q83 150 252 150z" />
    <glyph glyph-name="tm_la" unicode="&#xbb2;" horiz-adv-x="1464" 
d="M490 146q35 0 56.5 31.5t21.5 72.5q0 72 -60 72q-35 0 -56.5 -31.5t-21.5 -72.5q0 -72 60 -72zM1530 530q0 -217 -128 -378.5t-306 -161.5q-114 0 -190 67t-76 175q0 57 14 134t14 122q0 86 -62 139t-176 53q-148 0 -249 -107t-101 -241q0 -119 64 -174q-20 46 -20 96
q0 101 62.5 170.5t157.5 69.5q90 0 144 -63t54 -163q0 -114 -83.5 -196t-202.5 -82q-129 0 -213.5 96.5t-84.5 241.5q0 196 160 354t382 158q176 0 285 -92t109 -232q0 -46 -14 -130t-14 -130q0 -110 116 -110q91 0 159.5 86.5t68.5 191.5q0 180 -150 276q-26 17 -26 50
q0 48 32 93t80 45q80 0 137 -107t57 -251z" />
    <glyph glyph-name="tm_lla" unicode="&#xbb3;" horiz-adv-x="1638" 
d="M502 154q35 0 56.5 31.5t21.5 72.5q0 72 -60 72q-35 0 -56.5 -31.5t-21.5 -72.5q0 -72 60 -72zM1776 800l-24 -120h-186l-136 -680h-240l136 680h-154l-136 -680h-230l54 266q10 49 10 88q0 116 -79.5 203t-220.5 87q-125 0 -212.5 -90.5t-87.5 -215.5q0 -117 76 -180
q-20 46 -20 104q0 101 63.5 170.5t160.5 69.5q96 0 155 -64.5t59 -165.5q0 -116 -84 -199t-204 -83q-143 0 -235.5 100t-92.5 248q0 197 134 329.5t340 132.5q137 0 244 -67.5t159 -185.5l51 253h700z" />
    <glyph glyph-name="tm_llla" unicode="&#xbb4;" horiz-adv-x="1396" 
d="M890 120h190q80 0 130 64t50 156q0 122 -53.5 212t-124.5 90q-87 0 -120 -162zM1028 800q143 0 247.5 -136.5t104.5 -321.5q0 -148 -85 -245t-219 -97h-210q-3 -18 -3 -32q0 -68 73 -68h160l-40 -120h-174q-55 0 -89 -19.5t-87 -120.5q-105 -200 -364 -200
q-121 0 -213.5 68t-92.5 172q0 89 66.5 154.5t161.5 65.5q76 0 124 -35.5t48 -84.5q0 -43 -26 -71.5t-68 -28.5q-38 0 -75 42t-69 42q-30 0 -51 -21t-21 -53q0 -53 55.5 -90.5t138.5 -37.5q162 0 236 158q53 113 130 140q-54 33 -54 99q0 19 4 41h-496l160 800h240
l-136 -680h256l84 416q53 264 284 264z" />
    <glyph glyph-name="tm_va" unicode="&#xbb5;" horiz-adv-x="1650" 
d="M512 154q35 0 56.5 31.5t21.5 72.5q0 72 -60 72q-35 0 -56.5 -31.5t-21.5 -72.5q0 -72 60 -72zM1430 800h240l-160 -800h-752q158 158 158 348q0 137 -88.5 234.5t-223.5 97.5q-136 0 -230 -97.5t-94 -230.5q0 -121 76 -184q-20 46 -20 102q0 101 65.5 174.5t162.5 73.5
q92 0 152 -67.5t60 -166.5q0 -122 -84.5 -208t-205.5 -86q-141 0 -234.5 105.5t-93.5 256.5q0 202 142 345t348 143q208 0 349 -135.5t141 -330.5q0 -130 -62 -254h224z" />
    <glyph glyph-name="tm_ssa" unicode="&#xbb7;" horiz-adv-x="1954" 
d="M1972 600l-120 -600h-314l-92 -460h-240l92 460h-540q158 158 158 348q0 137 -88.5 234.5t-223.5 97.5q-136 0 -230 -97.5t-94 -230.5q0 -121 76 -184q-20 46 -20 102q0 101 65.5 174.5t162.5 73.5q92 0 152 -67.5t60 -166.5q0 -122 -84.5 -208t-205.5 -86
q-141 0 -234.5 105.5t-93.5 256.5q0 202 142 345t348 143q208 0 349 -135.5t141 -330.5q0 -130 -62 -254h246l36 184q-172 63 -172 242q0 104 64 179t164 75q105 0 165.5 -64t60.5 -176q0 -43 -12 -106l-8 -42q187 35 352 188zM1402 524q6 29 6 52q0 66 -44 66
q-56 0 -56 -82q0 -97 74 -134zM530 330q-35 0 -56.5 -31.5t-21.5 -72.5q0 -72 60 -72q35 0 56.5 31.5t21.5 72.5q0 72 -60 72zM1712 316q-62 -20 -116 -26l-34 -170h110z" />
    <glyph glyph-name="tm_sa" unicode="&#xbb8;" horiz-adv-x="1930" 
d="M502 154q35 0 56.5 31.5t21.5 72.5q0 72 -60 72q-35 0 -56.5 -31.5t-21.5 -72.5q0 -72 60 -72zM1934 530q0 -218 -128 -379t-306 -161q-118 0 -190 72t-72 192q0 67 27 171q27 103 27 145q0 74 -54 74q-72 0 -105 -162l-97 -482h-230l54 266q10 49 10 88q0 116 -79.5 203
t-220.5 87q-125 0 -212.5 -90.5t-87.5 -215.5q0 -117 76 -180q-20 46 -20 104q0 101 63.5 170.5t160.5 69.5q96 0 155 -64.5t59 -165.5q0 -116 -84 -199t-204 -83q-143 0 -235.5 100t-92.5 248q0 197 134 329.5t340 132.5q137 0 243.5 -67.5t158.5 -186.5q76 254 286 254
q92 0 151 -63.5t59 -158.5q0 -47 -27 -152t-27 -156q0 -124 114 -124q86 0 155 88t69 186q0 184 -150 280q-26 17 -26 50q0 48 32 93t80 45q80 0 137 -107t57 -251z" />
    <glyph glyph-name="tm_ha" unicode="&#xbb9;" horiz-adv-x="2360" 
d="M512 154q35 0 56.5 31.5t21.5 72.5q0 72 -60 72q-35 0 -56.5 -31.5t-21.5 -72.5q0 -72 60 -72zM2024 840q141 0 231.5 -116.5t90.5 -283.5q0 -270 -164.5 -455t-433.5 -185h-1266q-93 0 -128 -44q62 -31 62 -100q0 -51 -34.5 -83.5t-89.5 -32.5q-50 0 -83 39t-33 93
q0 95 90.5 161.5t237.5 66.5h1244q182 0 273 142t91 394q0 98 -36 171t-94 73q-98 0 -124 -130l-110 -550h-220l114 572q3 13 3 23q0 85 -79 85q-82 0 -104 -108l-114 -572h-590q158 158 158 348q0 137 -88.5 234.5t-223.5 97.5q-136 0 -230 -97.5t-94 -230.5
q0 -121 76 -184q-20 46 -20 102q0 101 65.5 174.5t162.5 73.5q92 0 152 -67.5t60 -166.5q0 -122 -84.5 -208t-205.5 -86q-141 0 -234.5 105.5t-93.5 256.5q0 202 142 345t348 143q208 0 349 -135.5t141 -330.5q0 -130 -62 -254h176l96 480q48 240 240 240q140 0 184 -150
q83 150 252 150z" />
    <glyph glyph-name="tm_aakaar" unicode="&#xbbe;" horiz-adv-x="926" 
d="M1060 800l-24 -120h-200l-136 -680h-240l136 680h-200l-136 -680h-120l160 800h760z" />
    <glyph glyph-name="tm_ikaar" unicode="&#xbbf;" horiz-adv-x="1142" 
d="M1034 0h-120l122 620q20 102 20 178q0 139 -92.5 239.5t-235.5 100.5q-104 0 -170 -63t-66 -149q0 -69 48 -126h-110q-64 89 -64 198q0 135 104 238.5t260 103.5q195 0 323.5 -147t128.5 -347q0 -94 -26 -226z" />
    <glyph glyph-name="tm_iikaar" unicode="&#xbc0;" horiz-adv-x="928" 
d="M652 1200q-68 0 -114 -48t-46 -122q0 -129 158 -230h-158q-140 101 -140 234q0 128 91.5 207t232.5 79q136 0 225 -73t89 -183q0 -87 -61 -144.5t-151 -57.5q-78 0 -134 55t-56 135q0 90 64 148zM766 1160q-54 0 -54 -68q0 -62 50 -62q54 0 54 68q0 62 -50 62z" />
    <glyph glyph-name="tm_ukaar" unicode="&#xbc1;" horiz-adv-x="1040" 
d="M598 680h-776l24 120h998q242 0 242 -200q0 -107 -76 -183.5t-186 -76.5q-102 0 -168 72t-66 178q0 46 8 90zM806 680q-84 0 -84 -106q0 -94 76 -94q84 0 84 106q0 94 -76 94z" />
    <glyph glyph-name="tm_uukaar" unicode="&#xbc2;" horiz-adv-x="1464" 
d="M362 580h100q0 -187 108.5 -323.5t273.5 -136.5q175 0 291.5 141.5t116.5 328.5q0 140 -77 235t-199 95q-146 0 -206 -120h74q242 0 242 -200q0 -107 -76 -183.5t-186 -76.5q-102 0 -168 72t-66 178q0 46 8 90h-776l24 120h790q117 240 384 240q190 0 326 -139.5
t136 -330.5q0 -236 -177.5 -403t-434.5 -167q-223 0 -365.5 168t-142.5 412zM806 680q-84 0 -84 -106q0 -94 76 -94q84 0 84 106q0 94 -76 94z" />
    <glyph glyph-name="tm_ekaar" unicode="&#xbc6;" horiz-adv-x="1542" 
d="M1408 0h-120l108 540q8 40 8 100q0 212 -137.5 351t-366.5 139q-236 0 -414 -175.5t-178 -400.5q0 -158 97.5 -285.5t240.5 -150.5q-52 86 -52 188q0 128 86 221t210 93q120 0 202 -78t82 -192q0 -153 -133 -256.5t-307 -103.5q-228 0 -389 175t-161 411q0 302 208 513
t508 211q255 0 440.5 -187.5t185.5 -442.5q0 -73 -12 -134zM760 116q87 13 141.5 70.5t54.5 127.5q0 54 -30.5 89t-79.5 35q-57 0 -95.5 -48.5t-38.5 -113.5q0 -85 48 -160z" />
    <glyph glyph-name="tm_eekaar" unicode="&#xbc7;" horiz-adv-x="1234" 
d="M918 1152q-52 38 -142 38q-201 0 -335.5 -157t-134.5 -373q0 -213 141.5 -366.5t348.5 -153.5q-60 84 -60 210q0 116 73.5 203t182.5 87q104 0 174 -72t70 -178q0 -175 -136.5 -292.5t-323.5 -117.5q-247 0 -413.5 189.5t-166.5 450.5q0 291 197 495.5t483 204.5
q170 0 295 -102.5t125 -257.5q0 -100 -69.5 -170t-170.5 -70q-94 0 -157 74t-63 176q0 104 82 182zM1016 1080q-27 0 -43.5 -27.5t-16.5 -62.5t16.5 -62.5t43.5 -27.5t43.5 27.5t16.5 62.5t-16.5 62.5t-43.5 27.5zM944 478q-38 0 -63 -40t-25 -100q0 -118 72 -118
q38 0 63 40t25 100q0 118 -72 118z" />
    <glyph glyph-name="tm_aikaar" unicode="&#xbc8;" horiz-adv-x="1656" 
d="M502 154q35 0 56.5 31.5t21.5 72.5q0 72 -60 72q-35 0 -56.5 -31.5t-21.5 -72.5q0 -72 60 -72zM1022 154q38 0 61 38.5t23 87.5q0 130 -84 238q-76 -118 -76 -254q0 -110 76 -110zM1258 680q-60 0 -124 -44q172 -156 172 -358q0 -126 -74 -207t-190 -81q-96 0 -156 76.5
t-60 187.5q0 185 118 342q-114 84 -268 84q-176 0 -291 -102.5t-115 -239.5q0 -117 76 -180q-20 46 -20 104q0 101 63.5 170.5t160.5 69.5q96 0 155 -64.5t59 -165.5q0 -116 -84 -199t-204 -83q-143 0 -235.5 100t-92.5 248q0 191 160.5 326.5t397.5 135.5q185 0 340 -98
q125 98 258 98q152 0 247 -106t95 -264q0 -224 -198 -430l-72 46q114 142 114 328q0 128 -64.5 217t-167.5 89z" />
    <glyph glyph-name="tm_okaar" unicode="&#xbca;" horiz-adv-x="2400" 
d="M1408 0h-120l108 540q8 40 8 100q0 212 -137.5 351t-366.5 139q-236 0 -414 -175.5t-178 -400.5q0 -158 97.5 -285.5t240.5 -150.5q-52 86 -52 188q0 128 86 221t210 93q120 0 202 -78t82 -192q0 -153 -133 -256.5t-307 -103.5q-228 0 -389 175t-161 411q0 302 208 513
t508 211q255 0 440.5 -187.5t185.5 -442.5q0 -73 -12 -134zM760 116q87 13 141.5 70.5t54.5 127.5q0 54 -30.5 89t-79.5 35q-57 0 -95.5 -48.5t-38.5 -113.5q0 -85 48 -160zM2538 800l-24 -120h-200l-136 -680h-240l136 680h-200l-136 -680h-120l160 800h760z" />
    <glyph glyph-name="tm_ookaar" unicode="&#xbcb;" horiz-adv-x="2122" 
d="M918 1152q-52 38 -142 38q-201 0 -335.5 -157t-134.5 -373q0 -213 141.5 -366.5t348.5 -153.5q-60 84 -60 210q0 116 73.5 203t182.5 87q104 0 174 -72t70 -178q0 -175 -136.5 -292.5t-323.5 -117.5q-247 0 -413.5 189.5t-166.5 450.5q0 291 197 495.5t483 204.5
q170 0 295 -102.5t125 -257.5q0 -100 -69.5 -170t-170.5 -70q-94 0 -157 74t-63 176q0 104 82 182zM1016 1080q-27 0 -43.5 -27.5t-16.5 -62.5t16.5 -62.5t43.5 -27.5t43.5 27.5t16.5 62.5t-16.5 62.5t-43.5 27.5zM944 478q-38 0 -63 -40t-25 -100q0 -118 72 -118
q38 0 63 40t25 100q0 118 -72 118zM2260 800l-24 -120h-200l-136 -680h-240l136 680h-200l-136 -680h-120l160 800h760z" />
    <glyph glyph-name="tm_aukaar" unicode="&#xbcc;" horiz-adv-x="3140" 
d="M1408 0h-120l108 540q8 40 8 100q0 212 -137.5 351t-366.5 139q-236 0 -414 -175.5t-178 -400.5q0 -158 97.5 -285.5t240.5 -150.5q-52 86 -52 188q0 128 86 221t210 93q120 0 202 -78t82 -192q0 -153 -133 -256.5t-307 -103.5q-228 0 -389 175t-161 411q0 302 208 513
t508 211q255 0 440.5 -187.5t185.5 -442.5q0 -73 -12 -134zM760 116q87 13 141.5 70.5t54.5 127.5q0 54 -30.5 89t-79.5 35q-57 0 -95.5 -48.5t-38.5 -113.5q0 -85 48 -160zM2004 154q35 0 56.5 31.5t21.5 72.5q0 72 -60 72q-35 0 -56.5 -31.5t-21.5 -72.5q0 -72 60 -72z
M3278 800l-24 -120h-186l-136 -680h-240l136 680h-154l-136 -680h-230l54 266q10 49 10 88q0 116 -79.5 203t-220.5 87q-125 0 -212.5 -90.5t-87.5 -215.5q0 -117 76 -180q-20 46 -20 104q0 101 63.5 170.5t160.5 69.5q96 0 155 -64.5t59 -165.5q0 -116 -84 -199t-204 -83
q-143 0 -235.5 100t-92.5 248q0 197 134 329.5t340 132.5q137 0 244 -67.5t159 -185.5l51 253h700z" />
    <glyph glyph-name="tm_halant" unicode="&#xbcd;" horiz-adv-x="0" 
d="M-176 960q-62 0 -106 44t-44 106q0 63 44 106.5t106 43.5t106 -43.5t44 -106.5q0 -62 -43.5 -106t-106.5 -44z" />
    <glyph glyph-name="tm_au_lengthmk" unicode="&#xbd7;" horiz-adv-x="1638" 
d="M502 154q35 0 56.5 31.5t21.5 72.5q0 72 -60 72q-35 0 -56.5 -31.5t-21.5 -72.5q0 -72 60 -72zM1776 800l-24 -120h-186l-136 -680h-240l136 680h-154l-136 -680h-230l54 266q10 49 10 88q0 116 -79.5 203t-220.5 87q-125 0 -212.5 -90.5t-87.5 -215.5q0 -117 76 -180
q-20 46 -20 104q0 101 63.5 170.5t160.5 69.5q96 0 155 -64.5t59 -165.5q0 -116 -84 -199t-204 -83q-143 0 -235.5 100t-92.5 248q0 197 134 329.5t340 132.5q137 0 244 -67.5t159 -185.5l51 253h700z" />
    <glyph glyph-name="tm_one" unicode="&#xbe7;" horiz-adv-x="1826" 
d="M1014 340h-246q-106 0 -106 -80q0 -50 50 -85t110 -35q152 0 192 200zM1254 340q-32 -159 -143 -249.5t-277 -90.5q-122 0 -217 71.5t-95 176.5q0 88 67.5 150t174.5 62l68 340h760l-24 -120h-246l-44 -220h38q146 0 236 -63t90 -163q0 -97 -79 -165.5t-197 -68.5
q-46 0 -90 10l18 88h32q116 0 116 114q0 58 -51 93t-129 35h-8zM1082 680h-154l-44 -220h154z" />
    <glyph glyph-name="tm_two" unicode="&#xbe8;" horiz-adv-x="1824" 
d="M1590 120l-24 -120h-819q-221 0 -221 154q0 80 71.5 128t188.5 48h162q103 0 161.5 51.5t58.5 136.5q0 71 -37 116.5t-97 45.5q24 -44 24 -96q0 -95 -57.5 -153.5t-150.5 -58.5q-81 0 -132.5 53t-51.5 135q0 115 104 197.5t264 82.5q158 0 265 -93.5t107 -226.5
q0 -146 -122.5 -228t-343.5 -82h-162q-72 0 -72 -45t68 -45h816zM846 643q-25 -1 -43 -22t-18 -50t18 -50t43 -21t43 21t18 50t-18 50t-43 22z" />
    <glyph glyph-name="tm_three" unicode="&#xbe9;" horiz-adv-x="1824" 
d="M1546 0h-770l24 120h278q75 0 105.5 64t30.5 130q0 86 -62 86q-52 0 -70 -80l-26 -120h-240l96 480h-160l-136 -680h-120l160 800h720l-24 -120h-196l-36 -180q58 42 126 42q81 0 133.5 -60t52.5 -148q0 -110 -96 -214h234z" />
    <glyph glyph-name="tm_four" unicode="&#xbea;" horiz-adv-x="1826" 
d="M1070 340h-246q-106 0 -106 -80q0 -50 50 -85t110 -35q152 0 192 200zM1608 340h-298q-32 -159 -143 -249.5t-277 -90.5q-122 0 -217 71.5t-95 176.5q0 88 67.5 150t174.5 62l68 340h760l-24 -120h-246l-44 -220h178l20 100h120zM1138 680h-154l-44 -220h154z" />
    <glyph glyph-name="tm_five" unicode="&#xbeb;" horiz-adv-x="1824" 
d="M1766 600h-92q6 24 6 58q0 144 -124.5 233t-343.5 89q-295 0 -482.5 -239.5t-187.5 -556.5q0 -231 126.5 -377.5t339.5 -146.5q229 0 361.5 141.5t132.5 378.5q0 80 -25 129t-65 49q-62 0 -76 -72l-56 -286h-240l136 680h-160l-136 -680h-120l160 800h644l-24 -120h-124
l-44 -224q49 46 132 46q94 0 156 -91t62 -215q0 -276 -204.5 -466t-489.5 -190q-273 0 -439.5 178.5t-166.5 461.5q0 384 242.5 666t601.5 282q229 0 371.5 -122.5t142.5 -299.5q0 -64 -14 -106z" />
    <glyph glyph-name="tm_six" unicode="&#xbec;" horiz-adv-x="1824" 
d="M1756 460l-24 -120h-52l-68 -340h-150l68 340h-88l-68 -340h-150l68 340h-110q-32 -159 -143 -249.5t-277 -90.5q-122 0 -217 71.5t-95 176.5q0 88 67.5 150t174.5 62l68 340h760l-24 -120h-246l-44 -220h550zM1010 680h-154l-44 -220h154zM942 340h-246q-106 0 -106 -80
q0 -50 50 -85t110 -35q152 0 192 200z" />
    <glyph glyph-name="tm_seven" unicode="&#xbed;" horiz-adv-x="1826" 
d="M854 154q35 0 56.5 31.5t21.5 72.5q0 72 -60 72q-35 0 -56.5 -31.5t-21.5 -72.5q0 -72 60 -72zM1230 0l136 680h-338q-176 0 -291 -102.5t-115 -239.5q0 -117 76 -180q-20 46 -20 104q0 101 65 170.5t163 69.5q95 0 152.5 -64t57.5 -166q0 -116 -84 -199t-204 -83
q-143 0 -235.5 100t-92.5 248q0 191 160.5 326.5t397.5 135.5h742l-24 -120h-170l-136 -680h-240z" />
    <glyph glyph-name="tm_eight" unicode="&#xbee;" horiz-adv-x="1826" 
d="M2014 800l-212 -1060h-240l68 340h-168q-106 -154 -296 -247t-400 -93q-224 0 -388 114t-164 238q0 108 138 108h334q-112 74 -112 220q0 157 138.5 268.5t337.5 111.5q213 0 359.5 -125t146.5 -305q0 -85 -32 -170h130l120 600h240zM970 684q-116 -6 -196 -82t-80 -182
q0 -67 40.5 -117.5t105.5 -50.5q84 0 142 75t58 173q0 106 -70 184zM1192 640q50 -80 50 -166q0 -177 -140 -274h190q32 84 32 166q0 200 -132 274zM1228 80h-884q28 -88 150.5 -159t259.5 -71q310 0 474 230z" />
    <glyph glyph-name="tm_nine" unicode="&#xbef;" horiz-adv-x="1826" 
d="M1276 158q48 0 48 68q0 72 -44 100q-46 -49 -46 -106q0 -62 42 -62zM828 340h-246q-106 0 -106 -80q0 -50 50 -85t110 -35q152 0 192 200zM852 460l44 220h-154l-44 -220h154zM1764 0h-250q70 83 70 200q0 76 -45 132t-111 56q-5 0 -24 -2q66 -69 66 -164q0 -94 -54 -158
t-138 -64q-73 0 -118.5 57.5t-45.5 142.5q0 73 34 140h-80q-32 -159 -143 -249.5t-277 -90.5q-122 0 -217 71.5t-95 176.5q0 88 67.5 150t174.5 62l68 340h760l-24 -120h-246l-44 -220h158q93 70 216 70q153 0 250.5 -93.5t97.5 -236.5q0 -112 -50 -200z" />
    <glyph glyph-name="tm_ten" unicode="&#xbf0;" horiz-adv-x="1424" 
d="M698 136q-91 -136 -270 -136q-118 0 -188 60.5t-70 161.5q0 28 6 58l104 520h240l-104 -520q-6 -30 -6 -58q0 -102 84 -102q54 0 95.5 52t58.5 136l98 492h240l-104 -520q-6 -30 -6 -56q0 -104 86 -104q100 0 167 130.5t67 323.5q0 220 -96.5 384.5t-253.5 171.5l30 100
q235 -7 395.5 -200t160.5 -440q0 -245 -146.5 -417.5t-339.5 -172.5q-184 0 -248 136z" />
    <glyph glyph-name="tm_hundred" unicode="&#xbf1;" horiz-adv-x="1386" 
d="M1520 800l-24 -120h-180l-136 -680h-240l136 680h-160l-136 -680h-210l90 448q12 60 12 78q0 114 -96 114q-118 0 -152 -170l-94 -470h-210l94 470q31 155 125.5 242.5t236.5 87.5q157 0 220 -120l24 120h700z" />
    <glyph glyph-name="tm_thousand" unicode="&#xbf2;" horiz-adv-x="1406" 
d="M222 -476l-30 -54q-81 22 -135.5 74.5t-54.5 119.5q0 94 86.5 155t227.5 61q104 0 301 -40t313 -40q121 0 196.5 74t75.5 186q0 43 -24.5 71.5t-61.5 28.5q-8 0 -22 -4l-32 -156h-208l68 340h-90q-32 -159 -143 -249.5t-277 -90.5q-122 0 -217 71.5t-95 176.5
q0 88 67.5 150t174.5 62l68 340h760l-24 -120h-246l-44 -220h426l-30 -120h-122l-20 -104q35 16 78 16q83 0 138.5 -62t55.5 -150q0 -148 -129.5 -249t-298.5 -101q-98 0 -303 40t-309 40q-82 0 -137 -43t-55 -97q0 -67 72 -106zM660 680h-154l-44 -220h154zM592 340h-246
q-106 0 -106 -80q0 -50 50 -85t110 -35q152 0 192 200z" />
    <glyph glyph-name="zerowidthnonjoiner" unicode="&#x200c;" horiz-adv-x="0" 
d="M382 1400l-398 -1990h-100l398 1990h100z" />
    <glyph glyph-name="zerowidthjoiner" unicode="&#x200d;" horiz-adv-x="0" 
d="M474 1139l-59 -49l-107 136l-336 -1731h-72l336 1731l-161 -136l-39 49l204 169l-139 168l59 49l137 -171l203 171l39 -49l-203 -168z" />
    <glyph glyph-name="u2013" unicode="&#x2013;" 
d="M839 332h-851v98h851v-98z" />
    <glyph glyph-name="u2014" unicode="&#x2014;" horiz-adv-x="1649" 
d="M1664 332h-1680v98h1680v-98z" />
    <glyph glyph-name="u2018" unicode="&#x2018;" horiz-adv-x="549" 
d="M552 1117l19 -33q-123 -71 -153 -108q-24 -27 -24 -56q0 -31 41.5 -69t55.5 -65q11 -20 11 -51q0 -53 -39.5 -91t-94.5 -38q-54 0 -94 42.5t-40 107.5q0 101 68 186q86 109 250 175z" />
    <glyph glyph-name="u2019" unicode="&#x2019;" horiz-adv-x="549" 
d="M255 606l-18 34q123 69 153 106q23 28 23 57q0 31 -41.5 69t-55.5 65q-10 20 -10 52q0 52 39 90t95 38q53 0 93 -43t40 -106q0 -101 -77 -198.5t-241 -163.5z" />
    <glyph glyph-name="u201C" unicode="&#x201c;" 
d="M513 1117l19 -33q-113 -60 -152 -107q-26 -31 -26 -59t41.5 -67t56.5 -67q10 -20 10 -47q0 -54 -38.5 -92.5t-95.5 -38.5t-95 41.5t-38 105.5q0 100 61 180q81 105 257 184zM868 1117l20 -36q-115 -60 -151 -104q-25 -30 -25 -62q0 -29 44 -69q62 -55 62 -109t-39 -94
t-92 -40q-55 0 -96 44t-41 107q0 100 67 185q86 110 251 178z" />
    <glyph glyph-name="u201D" unicode="&#x201d;" 
d="M215 605l-20 33q115 61 151 104q26 31 26 61t-45 70q-62 56 -62 110t39.5 94t92.5 40q54 0 95.5 -44t41.5 -107q0 -99 -68 -184q-85 -109 -251 -177zM571 603l-20 33q112 60 152 106q26 32 26 60t-41.5 66.5t-55.5 66.5q-11 21 -11 48q0 54 39 92.5t95 38.5t95 -41.5
t39 -106.5q0 -100 -62 -179q-82 -105 -256 -184z" />
    <glyph glyph-name="u2026" unicode="&#x2026;" horiz-adv-x="1649" 
d="M275 248q56 0 95 -39.5t39 -94.5q0 -56 -39.5 -95t-94.5 -39q-56 0 -95 39t-39 95q0 55 39 94.5t95 39.5zM824 247q56 0 95 -39t39 -94q0 -56 -39 -95t-95 -39q-55 0 -94 39t-39 95q0 55 39 94t94 39zM1374 246q56 0 95 -39.5t39 -94.5q0 -56 -39 -95t-95 -39
q-55 0 -94 39t-39 95q0 55 39 94.5t94 39.5z" />
    <glyph glyph-name="u2212" unicode="&#x2212;" horiz-adv-x="939" 
d="M64 599h880v-106h-880v106z" />
    <glyph glyph-name="u25CC" unicode="&#x25cc;" horiz-adv-x="1254" 
d="M708 890q66 0 66 -64q0 -66 -66 -66q-64 0 -64 66q0 26 19 45t45 19zM920 834q26 0 45 -19t19 -45q0 -66 -64 -66q-66 0 -66 66q0 64 66 64zM498 834q26 0 45 -19t19 -45q0 -66 -64 -66t-64 66q0 26 19 45t45 19zM1072 680q64 0 64 -66q0 -26 -19 -45t-45 -19t-45 19
t-19 45q0 66 64 66zM344 680q64 0 64 -66q0 -26 -19 -45t-45 -19q-66 0 -66 64q0 66 66 66zM288 468q26 0 45 -19t19 -45t-19 -45t-45 -19q-66 0 -66 64t66 64zM1130 468q26 0 45 -19t19 -45t-19 -45t-45 -19q-66 0 -66 64t66 64zM344 258q26 0 45 -19t19 -45q0 -66 -64 -66
q-66 0 -66 66q0 64 66 64zM1072 258q26 0 45 -19t19 -45q0 -66 -64 -66t-64 66q0 26 19 45t45 19zM498 106q27 0 45.5 -20t18.5 -48q0 -26 -19 -45t-45 -19t-45 19t-19 45q0 28 18.5 48t45.5 20zM920 106q27 0 45.5 -20t18.5 -48q0 -26 -19 -45t-45 -19q-66 0 -66 64
q0 68 66 68zM708 48q66 0 66 -66q0 -64 -66 -64q-26 0 -45 19t-19 45q0 66 64 66z" />
    <glyph glyph-name="tm_k_ikaar" horiz-adv-x="1526" 
d="M638 340h-246q-106 0 -106 -80q0 -50 50 -85t110 -35q152 0 192 200zM878 340q-32 -159 -143 -249.5t-277 -90.5q-122 0 -217 71.5t-95 176.5q0 88 67.5 150t174.5 62q-82 45 -132 131.5t-50 188.5q0 213 198.5 386.5t481.5 173.5q270 0 459 -160.5t189 -395.5
q0 -68 -18 -158l-126 -626h-120l124 622q16 80 16 118q0 190 -164 310t-428 120q-193 0 -342.5 -121t-149.5 -281q0 -131 84 -198l46 230h760l-24 -120h-246l-44 -220h38q143 0 225.5 -62t82.5 -164q0 -96 -77.5 -165t-190.5 -69q-46 0 -90 10l18 88h32q53 0 84.5 30.5
t31.5 77.5q0 134 -170 134h-8zM706 680h-154l-44 -220h154z" />
    <glyph glyph-name="tm_ng_ikaar" horiz-adv-x="1740" 
d="M1312 0h-912l24 120h264q75 0 105.5 64t30.5 130q0 86 -62 86q-52 0 -70 -80l-26 -120h-226l96 480h-140l-136 -680h-120l160 800h620l-24 -120h-130l-36 -180q58 42 126 42q81 0 133.5 -60t52.5 -148q0 -114 -92 -214h156l96 480q-100 29 -161 115t-61 197
q0 165 115.5 296.5t278.5 131.5q168 0 271 -128.5t103 -331.5q0 -77 -26 -208l-134 -672h-120l140 710q14 71 14 132q0 118 -74.5 207t-191.5 89q-109 0 -177.5 -76t-68.5 -184q0 -61 31 -112t81 -66l20 100h230z" />
    <glyph glyph-name="tm_c_ikaar" horiz-adv-x="1508" 
d="M638 340h-246q-106 0 -106 -80q0 -50 50 -85t110 -35q152 0 192 200zM1124 340h-246q-32 -159 -143 -249.5t-277 -90.5q-122 0 -217 71.5t-95 176.5q0 88 67.5 150t174.5 62q-82 45 -132 131.5t-50 188.5q0 213 198.5 386.5t481.5 173.5q270 0 459 -160.5t189 -395.5
q0 -68 -18 -158l-126 -626h-120l124 622q16 80 16 118q0 190 -164 310t-428 120q-193 0 -342.5 -121t-149.5 -281q0 -131 84 -198l46 230h760l-24 -120h-246l-44 -220h246zM706 680h-154l-44 -220h154z" />
    <glyph glyph-name="tm_j_ikaar" horiz-adv-x="1812" 
d="M512 360q42 0 42 62q0 58 -42 58t-42 -62q0 -58 42 -58zM1210 840q113 0 187.5 -112t74.5 -268q0 -195 -129 -327.5t-343 -132.5h-500q-130 0 -209 -61.5t-79 -158.5q0 -72 52.5 -116t135.5 -44q73 0 142 32t169 129t172 128t149 31q111 0 185.5 -64t74.5 -156
q0 -102 -81 -171t-199 -69q-92 0 -200 40l20 100q74 -20 140 -20q68 0 114 33.5t46 86.5q0 45 -34 72.5t-86 27.5q-68 0 -135.5 -40t-175 -146.5t-189.5 -140t-164 -33.5q-143 0 -249.5 84.5t-106.5 215.5q0 166 126.5 263t351.5 97h486q125 0 200.5 100.5t75.5 247.5
q0 91 -26 151.5t-70 60.5q-63 0 -84 -120l-60 -340h-226q46 127 46 230q0 112 -80 191t-198 79q-111 0 -186.5 -69.5t-75.5 -176.5q0 -142 120 -164q-60 56 -60 130q0 75 56 127.5t134 52.5q77 0 130.5 -50t53.5 -126q0 -104 -76.5 -169t-191.5 -65q-112 0 -189 78t-77 192
q0 141 112.5 250.5t281.5 109.5q243 0 378 -206q44 146 172 192q-52 90 -52 188q0 136 100.5 231t247.5 95q187 0 303.5 -132.5t116.5 -327.5q0 -87 -24 -208l-134 -672h-120l140 710q12 61 12 132q0 121 -84.5 208.5t-211.5 87.5q-96 0 -158 -55.5t-62 -146.5q0 -50 20 -96
z" />
    <glyph glyph-name="tm_ny_ikaar" horiz-adv-x="2198" 
d="M818 154q35 0 56.5 31.5t21.5 72.5q0 72 -60 72q-35 0 -56.5 -31.5t-21.5 -72.5q0 -72 60 -72zM1194 0l136 680h-338q-176 0 -291 -102.5t-115 -239.5q0 -117 76 -180q-20 46 -20 104q0 101 65 170.5t163 69.5q95 0 152.5 -64t57.5 -166q0 -116 -84 -199t-204 -83
q-143 0 -235.5 100t-92.5 248q0 192 160 327t398 135h438q-64 89 -64 198q0 135 104 238.5t260 103.5q195 0 323.5 -147t128.5 -347q0 -94 -26 -226l-122 -620h-120l122 620q20 102 20 178q0 139 -92.5 239.5t-235.5 100.5q-104 0 -170 -63t-66 -149q0 -69 48 -126h194
l-24 -120h-170l-44 -224q49 46 126 46q90 0 146 -73t56 -189q0 -300 -253.5 -500t-590.5 -200q-371 0 -606.5 194.5t-235.5 517.5q0 147 62 297.5t162 250.5l90 -60q-194 -204 -194 -480q0 -262 190.5 -421t483.5 -159q294 0 476 152t182 408q0 118 -60 118q-55 0 -68 -64
l-58 -294h-240z" />
    <glyph glyph-name="tm_tt_ikaar" horiz-adv-x="1506" 
d="M936 0h-796l160 800h240l-136 -680h426q-77 40 -123.5 122t-46.5 178q0 152 102.5 266t247.5 114q120 0 195 -70t75 -176q0 -34 -7 -72l-73 -362h310l-24 -120h-310l-92 -460h-240zM966 158l68 332q6 29 6 54q0 96 -84 96q-75 0 -120.5 -72.5t-45.5 -167.5q0 -78 49 -145
t127 -97z" />
    <glyph glyph-name="tm_nn_ikaar" horiz-adv-x="2596" 
d="M502 154q35 0 56.5 31.5t21.5 72.5q0 72 -60 72q-35 0 -56.5 -31.5t-21.5 -72.5q0 -72 60 -72zM1022 154q38 0 61 38.5t23 87.5q0 129 -82 236q-78 -113 -78 -252q0 -110 76 -110zM1564 154q38 0 61 38.5t23 87.5q0 139 -66 246q-94 -117 -94 -262q0 -110 76 -110z
M2380 800l-20 -120h-130l-136 -680h-230l136 680h-102q-101 0 -192 -50q142 -156 142 -352q0 -126 -74 -207t-190 -81q-96 0 -156 76.5t-60 187.5q0 201 140 358q-82 68 -192 68q-90 0 -174 -52q164 -154 164 -350q0 -126 -74 -207t-190 -81q-96 0 -156 76.5t-60 187.5
q0 190 118 342q-113 84 -268 84q-176 0 -291 -102.5t-115 -239.5q0 -117 76 -180q-20 46 -20 104q0 101 63.5 170.5t160.5 69.5q96 0 155 -64.5t59 -165.5q0 -116 -84 -199t-204 -83q-143 0 -235.5 100t-92.5 248q0 191 160.5 326.5t397.5 135.5q188 0 344 -100
q134 100 292 100q148 0 276 -92q139 92 300 92h74q-68 104 -68 212q0 129 89.5 228.5t220.5 99.5q168 0 273 -133t105 -327q0 -77 -26 -208l-134 -672h-120l140 710q14 71 14 132q0 125 -70.5 210.5t-181.5 85.5q-84 0 -135 -55.5t-51 -140.5q0 -74 44 -142h288z" />
    <glyph glyph-name="tm_t_ikaar" horiz-adv-x="1492" 
d="M638 340h-246q-106 0 -106 -80q0 -50 50 -85t110 -35q152 0 192 200zM662 460l44 220h-154l-44 -220h154zM456 800h720l-24 -120h-206l-44 -220h10q146 0 231 -70.5t85 -189.5q0 -181 -174.5 -290.5t-461.5 -109.5h-217q-94 0 -129 -44q62 -31 62 -100q0 -51 -34.5 -83.5
t-89.5 -32.5q-50 0 -83 39t-33 93q0 95 89.5 161.5t233.5 66.5h191q219 0 321.5 84t102.5 224q0 61 -35.5 96.5t-92.5 35.5q-32 -159 -143 -249.5t-277 -90.5q-122 0 -217 71.5t-95 176.5q0 88 67.5 150t174.5 62q-82 45 -132 131.5t-50 188.5q0 213 198.5 386.5
t481.5 173.5q270 0 459 -160.5t189 -395.5q0 -68 -18 -158l-126 -626h-120l124 622q16 80 16 118q0 190 -164 310t-428 120q-193 0 -342.5 -121t-149.5 -281q0 -131 84 -198z" />
    <glyph glyph-name="tm_n_ikaar" horiz-adv-x="1460" 
d="M1020 800l-24 -120h-200l-44 -224q58 46 122 46q88 0 147 -75t59 -187q0 -108 -40.5 -191t-124 -142.5t-184 -83t-267.5 -23.5h-76q-93 0 -128 -44q62 -31 62 -100q0 -51 -34.5 -83.5t-89.5 -32.5q-50 0 -83 39t-33 93q0 95 90.5 161.5t237.5 66.5h50q98 0 158 8.5
t113 47t83 108.5t30 166q0 128 -64 128q-49 0 -64 -74l-56 -284h-240l136 680h-160l-136 -680h-120l160 800h386q-64 89 -64 198q0 135 104 238.5t260 103.5q195 0 323.5 -147t128.5 -347q0 -94 -26 -226l-122 -620h-120l122 620q20 102 20 178q0 139 -92.5 239.5
t-235.5 100.5q-104 0 -170 -63t-66 -149q0 -69 48 -126h224z" />
    <glyph glyph-name="tm_nnn_ikaar" horiz-adv-x="2124" 
d="M502 154q35 0 56.5 31.5t21.5 72.5q0 72 -60 72q-35 0 -56.5 -31.5t-21.5 -72.5q0 -72 60 -72zM1022 154q38 0 61 38.5t23 87.5q0 122 -80 228q-80 -110 -80 -244q0 -110 76 -110zM1356 680q-112 0 -208 -58q158 -154 158 -344q0 -126 -74 -207t-190 -81q-96 0 -156 76.5
t-60 187.5q0 186 120 336q-117 90 -270 90q-176 0 -291 -102.5t-115 -239.5q0 -117 76 -180q-20 46 -20 104q0 101 63.5 170.5t160.5 69.5q96 0 155 -64.5t59 -165.5q0 -116 -84 -199t-204 -83q-143 0 -235.5 100t-92.5 248q0 192 159 327t399 135q194 0 352 -104
q144 104 318 104h70q-70 102 -70 214q0 136 100.5 231t247.5 95q187 0 303.5 -132.5t116.5 -327.5q0 -87 -24 -208l-134 -672h-120l140 710q12 61 12 132q0 121 -84.5 208.5t-211.5 87.5q-97 0 -157.5 -53.5t-60.5 -142.5q0 -67 46 -142h316l-20 -120h-124l-136 -680h-240
l136 680h-126z" />
    <glyph glyph-name="tm_p_ikaar" horiz-adv-x="1594" 
d="M1100 800h240l-160 -800h-1040l160 800h240l-136 -680h560l96 480q-100 28 -161 115t-61 197q0 166 115.5 297t278.5 131q168 0 270.5 -128.5t103.5 -331.5q0 -77 -26 -208l-134 -672h-120l140 710q14 71 14 132q0 118 -74.5 207t-191.5 89q-109 0 -178 -76t-68 -184
q0 -61 31 -112t81 -66z" />
    <glyph glyph-name="tm_m_ikaar" horiz-adv-x="1742" 
d="M890 120h190q80 0 130 64t50 156q0 122 -53.5 212t-124.5 90q-44 0 -74 -40.5t-46 -121.5zM1090 800q115 -25 202.5 -161.5t87.5 -296.5q0 -148 -85 -245t-219 -97h-936l160 800h240l-136 -680h256l84 416q48 239 244 264q-44 95 -44 188q0 142 105.5 247t268.5 105
q195 0 322.5 -147t127.5 -347q0 -94 -26 -226l-122 -620h-120l122 620q20 102 20 178q0 143 -90.5 241.5t-237.5 98.5q-107 0 -176.5 -63t-69.5 -149q0 -69 22 -126z" />
    <glyph glyph-name="tm_y_ikaar" horiz-adv-x="1630" 
d="M1160 800h230l-160 -800h-540q-98 0 -110 90q-90 -90 -212 -90q-171 0 -171 194q0 39 9 84l104 522h230l-108 -538q-3 -17 -3 -33q0 -69 63 -69q80 0 100 102l108 538h230l-140 -680h234l100 502q-148 114 -148 324q0 160 96 277t242 117q162 0 259 -132t97 -328
q0 -77 -26 -208l-134 -672h-120l140 710q14 71 14 132q0 126 -67 211t-175 85q-89 0 -146.5 -74t-57.5 -174q0 -107 48 -154z" />
    <glyph glyph-name="tm_r_ikaar" horiz-adv-x="1222" 
d="M1080 0h-120l140 710q14 71 14 132q0 125 -70.5 210.5t-181.5 85.5q-84 0 -135 -55.5t-51 -140.5q0 -74 44 -142h320l-24 -120h-180l-136 -680l-634 -260l-32 76l426 184l136 680h-200l-136 -680h-120l160 800h320q-68 104 -68 212q0 129 89.5 228.5t220.5 99.5
q168 0 273 -133t105 -327q0 -77 -26 -208z" />
    <glyph glyph-name="tm_rr_ikaar" horiz-adv-x="1590" 
d="M928 840q143 0 233.5 -116.5t90.5 -283.5q0 -270 -164.5 -455t-433.5 -185h-214q-93 0 -128 -44q62 -31 62 -100q0 -51 -34.5 -83.5t-89.5 -32.5q-50 0 -83 39t-33 93q0 95 90.5 161.5t237.5 66.5h192q182 0 273 142t91 394q0 98 -36 171t-94 73q-98 0 -124 -130
l-110 -550h-220l114 572q3 13 3 23q0 85 -79 85q-82 0 -104 -108l-114 -572h-120l120 600q48 240 240 240q140 0 184 -150q55 100 154 134q-46 75 -46 164q0 142 105.5 247t268.5 105q195 0 322.5 -147t127.5 -347q0 -94 -26 -226l-122 -620h-120l122 620q20 102 20 178
q0 143 -90.5 241.5t-237.5 98.5q-107 0 -176.5 -63t-69.5 -149q0 -45 18 -86z" />
    <glyph glyph-name="tm_l_ikaar" horiz-adv-x="1916" 
d="M490 146q35 0 56.5 31.5t21.5 72.5q0 72 -60 72q-35 0 -56.5 -31.5t-21.5 -72.5q0 -72 60 -72zM1526 432q0 -184 -127 -313t-309 -129q-110 0 -185 67t-75 175q0 57 14 134t14 122q0 86 -62 139t-176 53q-148 0 -249 -107t-101 -241q0 -119 64 -174q-20 46 -20 96
q0 101 62.5 170.5t157.5 69.5q90 0 144 -63t54 -163q0 -114 -83.5 -196t-202.5 -82q-129 0 -213.5 96.5t-84.5 241.5q0 196 160 354t382 158q176 0 285 -92t109 -232q0 -46 -14 -130t-14 -130q0 -126 116 -126q90 0 162 94t72 200q0 90 -120 276q-120 187 -120 310
q0 142 98 236t250 94q187 0 303.5 -132.5t116.5 -327.5q0 -87 -24 -208l-134 -672h-120l140 710q12 61 12 132q0 121 -84.5 208.5t-211.5 87.5q-92 0 -148 -50.5t-56 -135.5q0 -80 109 -250q109 -169 109 -270z" />
    <glyph glyph-name="tm_ll_ikaar" horiz-adv-x="1930" 
d="M502 154q35 0 56.5 31.5t21.5 72.5q0 72 -60 72q-35 0 -56.5 -31.5t-21.5 -72.5q0 -72 60 -72zM1732 800l-20 -120h-150l-136 -680h-230l136 680h-160l-136 -680h-230l54 266q10 49 10 88q0 116 -79.5 203t-220.5 87q-125 0 -212.5 -90.5t-87.5 -215.5q0 -117 76 -180
q-20 46 -20 104q0 101 63.5 170.5t160.5 69.5q96 0 155 -64.5t59 -165.5q0 -116 -84 -199t-204 -83q-143 0 -235.5 100t-92.5 248q0 197 134 329.5t340 132.5q137 0 244 -67.5t159 -185.5l51 253h112q-64 89 -64 198q0 135 104 238.5t260 103.5q195 0 323.5 -147t128.5 -347
q0 -94 -26 -226l-122 -620h-120l122 620q20 102 20 178q0 139 -92.5 239.5t-235.5 100.5q-104 0 -170 -63t-66 -149q0 -74 44 -126h438z" />
    <glyph glyph-name="tm_lll_ikaar" horiz-adv-x="1758" 
d="M890 120h190q80 0 130 64t50 156q0 122 -53.5 212t-124.5 90q-87 0 -120 -162zM1090 800q115 -25 202.5 -161.5t87.5 -296.5q0 -148 -85 -245t-219 -97h-210q-3 -18 -3 -32q0 -68 73 -68h160l-40 -120h-174q-55 0 -89 -19.5t-87 -120.5q-105 -200 -364 -200
q-121 0 -213.5 68t-92.5 172q0 89 66.5 154.5t161.5 65.5q76 0 124 -35.5t48 -84.5q0 -43 -26 -71.5t-68 -28.5q-38 0 -75 42t-69 42q-30 0 -51 -21t-21 -53q0 -53 55.5 -90.5t138.5 -37.5q162 0 236 158q53 113 130 140q-54 33 -54 99q0 19 4 41h-496l160 800h240
l-136 -680h256l84 416q48 239 244 264q-44 95 -44 188q0 142 105.5 247t268.5 105q195 0 322.5 -147t127.5 -347q0 -94 -26 -226l-122 -620h-120l122 620q20 102 20 178q0 143 -90.5 241.5t-237.5 98.5q-107 0 -176.5 -63t-69.5 -149q0 -69 22 -126z" />
    <glyph glyph-name="tm_v_ikaar" horiz-adv-x="1908" 
d="M512 154q35 0 56.5 31.5t21.5 72.5q0 72 -60 72q-35 0 -56.5 -31.5t-21.5 -72.5q0 -72 60 -72zM1430 800h240l-160 -800h-752q158 158 158 348q0 137 -88.5 234.5t-223.5 97.5q-136 0 -230 -97.5t-94 -230.5q0 -121 76 -184q-20 46 -20 102q0 101 65.5 174.5t162.5 73.5
q92 0 152 -67.5t60 -166.5q0 -122 -84.5 -208t-205.5 -86q-141 0 -234.5 105.5t-93.5 256.5q0 202 142 345t348 143q208 0 349 -135.5t141 -330.5q0 -130 -62 -254h218l96 480q-100 29 -161 115t-61 197q0 165 115.5 296.5t278.5 131.5q168 0 271 -128.5t103 -331.5
q0 -77 -26 -208l-134 -672h-120l140 710q14 71 14 132q0 118 -74.5 207t-191.5 89q-109 0 -177.5 -76t-68.5 -184q0 -61 31 -112t81 -66z" />
    <glyph glyph-name="tm_ss_ikaar" horiz-adv-x="2234" 
d="M512 154q35 0 56.5 31.5t21.5 72.5q0 72 -60 72q-35 0 -56.5 -31.5t-21.5 -72.5q0 -72 60 -72zM1382 426l20 98q6 29 6 52q0 66 -44 66q-56 0 -56 -82q0 -97 74 -134zM1596 290l-34 -170h110l40 196q-62 -20 -116 -26zM1536 774q52 -30 78 -83.5t26 -130.5
q0 -43 -12 -106l-8 -42q187 35 352 188l-120 -600h-314l-92 -460h-240l92 460h-540q158 158 158 348q0 137 -88.5 234.5t-223.5 97.5q-136 0 -230 -97.5t-94 -230.5q0 -121 76 -184q-20 46 -20 102q0 101 65.5 174.5t162.5 73.5q92 0 152 -67.5t60 -166.5q0 -122 -84.5 -208
t-205.5 -86q-141 0 -234.5 105.5t-93.5 256.5q0 202 142 345t348 143q208 0 349 -135.5t141 -330.5q0 -130 -62 -254h246l36 184q-172 63 -172 242q0 105 66.5 179.5t173.5 74.5q-22 75 -22 160q0 151 106.5 265.5t267.5 114.5q200 0 334 -148t134 -346q0 -94 -26 -226
l-122 -620h-120l122 620q20 102 20 178q0 137 -98.5 238.5t-245.5 101.5q-117 0 -188.5 -71t-71.5 -171q0 -62 20 -122z" />
    <glyph glyph-name="tm_s_ikaar" horiz-adv-x="2170" 
d="M502 154q35 0 56.5 31.5t21.5 72.5q0 72 -60 72q-35 0 -56.5 -31.5t-21.5 -72.5q0 -72 60 -72zM1934 530q0 -218 -128 -379t-306 -161q-118 0 -190 71.5t-72 192.5q0 67 27 171q27 103 27 145q0 74 -54 74q-71 0 -104 -162l-98 -482h-230l54 266q10 49 10 88
q0 116 -79.5 203t-220.5 87q-125 0 -212.5 -90.5t-87.5 -215.5q0 -117 76 -180q-20 46 -20 104q0 101 63.5 170.5t160.5 69.5q96 0 155 -64.5t59 -165.5q0 -116 -84 -199t-204 -83q-143 0 -235.5 100t-92.5 248q0 197 134 329.5t340 132.5q137 0 243.5 -67.5t158.5 -186.5
q76 254 286 254q92 0 151 -63.5t59 -158.5q0 -47 -27 -152t-27 -156q0 -124 114 -124q88 0 161 103.5t73 216.5q0 70 -10 118q-141 16 -226.5 114.5t-85.5 241.5q0 159 104.5 279.5t253.5 120.5q166 0 261 -125.5t95 -326.5q0 -75 -28 -216l-134 -672h-120l140 710
q14 71 14 132q0 127 -69 211.5t-179 84.5q-90 0 -150 -72.5t-60 -165.5q0 -175 146 -212q-16 32 -40 64q-18 25 -18 54q0 76 76 76q36 0 66 -31.5t57 -120t27 -200.5z" />
    <glyph glyph-name="tm_h_ikaar" horiz-adv-x="2624" 
d="M512 154q35 0 56.5 31.5t21.5 72.5q0 72 -60 72q-35 0 -56.5 -31.5t-21.5 -72.5q0 -72 60 -72zM2022 840q143 0 233.5 -116.5t90.5 -283.5q0 -270 -164.5 -455t-433.5 -185h-1266q-93 0 -128 -44q62 -31 62 -100q0 -51 -34.5 -83.5t-89.5 -32.5q-50 0 -83 39t-33 93
q0 95 90.5 161.5t237.5 66.5h1244q182 0 273 142t91 394q0 98 -36 171t-94 73q-98 0 -124 -130l-110 -550h-220l114 572q3 13 3 23q0 85 -79 85q-82 0 -104 -108l-114 -572h-590q158 158 158 348q0 137 -88.5 234.5t-223.5 97.5q-136 0 -230 -97.5t-94 -230.5
q0 -121 76 -184q-20 46 -20 102q0 101 65.5 174.5t162.5 73.5q92 0 152 -67.5t60 -166.5q0 -122 -84.5 -208t-205.5 -86q-141 0 -234.5 105.5t-93.5 256.5q0 202 142 345t348 143q208 0 349 -135.5t141 -330.5q0 -130 -62 -254h176l96 480q48 240 240 240q140 0 184 -150
q55 100 154 134q-50 93 -50 190q0 136 100.5 231t247.5 95q187 0 303.5 -132.5t116.5 -327.5q0 -87 -24 -208l-134 -672h-120l140 710q12 61 12 132q0 121 -84.5 208.5t-211.5 87.5q-96 0 -158 -55.5t-62 -146.5q0 -50 20 -96z" />
    <glyph glyph-name="tm_k_iikaar" horiz-adv-x="1246" 
d="M638 340h-246q-106 0 -106 -80q0 -50 50 -85t110 -35q152 0 192 200zM878 340q-32 -159 -143 -249.5t-277 -90.5q-122 0 -217 71.5t-95 176.5q0 88 67.5 150t174.5 62q-182 100 -182 326q0 207 177.5 380.5t432.5 173.5q165 0 274.5 -76t109.5 -186q0 -86 -60 -141
t-148 -55q-78 0 -136 55t-58 135q0 84 58 140q-36 8 -74 8q-186 0 -321 -137t-135 -299q0 -148 86 -204l44 220h760l-24 -120h-246l-44 -220h38q146 0 236 -63t90 -163q0 -97 -79 -165.5t-197 -68.5q-46 0 -90 10l18 88h32q116 0 116 114q0 58 -51 93t-129 35h-8zM976 1180
q-54 0 -54 -68q0 -62 50 -62q54 0 54 68q0 62 -50 62zM662 460l44 220h-154l-44 -220h154z" />
    <glyph glyph-name="tm_ng_iikaar" horiz-adv-x="1470" 
d="M1312 0h-912l24 120h264q75 0 105.5 64t30.5 130q0 86 -62 86q-52 0 -70 -80l-26 -120h-226l96 480h-140l-136 -680h-120l160 800h620l-24 -120h-130l-36 -180q58 42 126 42q81 0 133.5 -60t52.5 -148q0 -114 -92 -214h156l96 480q-103 31 -163.5 115t-60.5 197
q0 165 134 296.5t316 131.5q137 0 230.5 -76t93.5 -186q0 -86 -60.5 -141t-151.5 -55q-77 0 -133.5 55t-56.5 135q0 77 48 130q-128 0 -214 -90.5t-86 -207.5q0 -71 35 -125t91 -71l18 92h230zM1528 1180q-54 0 -54 -68q0 -62 50 -62q54 0 54 68q0 62 -50 62z" />
    <glyph glyph-name="tm_c_iikaar" horiz-adv-x="1100" 
d="M638 340h-246q-106 0 -106 -80q0 -50 50 -85t110 -35q152 0 192 200zM1124 340h-246q-32 -159 -143 -249.5t-277 -90.5q-122 0 -217 71.5t-95 176.5q0 88 67.5 150t174.5 62q-182 100 -182 326q0 207 177.5 380.5t432.5 173.5q165 0 274.5 -76t109.5 -186q0 -86 -60 -141
t-148 -55q-78 0 -136 55t-58 135q0 84 58 140q-36 8 -74 8q-186 0 -321 -137t-135 -299q0 -148 86 -204l44 220h760l-24 -120h-246l-44 -220h246zM976 1180q-54 0 -54 -68q0 -62 50 -62q54 0 54 68q0 62 -50 62zM706 680h-154l-44 -220h154z" />
    <glyph glyph-name="tm_j_iikaar" horiz-adv-x="1498" 
d="M512 360q42 0 42 62q0 58 -42 58t-42 -62q0 -58 42 -58zM1256 836q108 -34 162 -128t54 -248q0 -196 -128.5 -328t-343.5 -132h-500q-130 0 -209 -61.5t-79 -158.5q0 -72 52.5 -116t135.5 -44q73 0 142 32t169 129t172 128t149 31q111 0 185.5 -64t74.5 -156
q0 -102 -81 -171t-199 -69q-92 0 -200 40l20 100q74 -20 140 -20q68 0 114 33.5t46 86.5q0 45 -34 72.5t-86 27.5q-68 0 -135.5 -40t-175 -146.5t-189.5 -140t-164 -33.5q-143 0 -249.5 84.5t-106.5 215.5q0 166 126.5 263t351.5 97h486q125 0 200.5 100.5t75.5 247.5
q0 93 -27 152.5t-73 59.5q-59 0 -80 -120l-60 -340h-226q46 127 46 230q0 112 -80 191t-198 79q-111 0 -186.5 -69.5t-75.5 -176.5q0 -142 120 -164q-60 56 -60 130q0 75 56 127.5t134 52.5q77 0 130.5 -50t53.5 -126q0 -104 -76.5 -169t-191.5 -65q-112 0 -189 78t-77 192
q0 141 112.5 250.5t281.5 109.5q246 0 374 -206q47 136 160 184q-134 113 -134 266q0 127 101 221.5t237 94.5t225 -73t89 -183q0 -87 -61 -144.5t-151 -57.5q-78 0 -134 55t-56 135q0 90 64 148q-81 0 -137.5 -59.5t-56.5 -146.5q0 -84 48 -149.5t122 -88.5zM1394 1240
q-54 0 -54 -68q0 -62 50 -62q54 0 54 68q0 62 -50 62z" />
    <glyph glyph-name="tm_ny_iikaar" horiz-adv-x="1878" 
d="M818 154q35 0 56.5 31.5t21.5 72.5q0 72 -60 72q-35 0 -56.5 -31.5t-21.5 -72.5q0 -72 60 -72zM1194 0l136 680h-338q-176 0 -291 -102.5t-115 -239.5q0 -117 76 -180q-20 46 -20 104q0 101 65 170.5t163 69.5q95 0 152.5 -64t57.5 -166q0 -116 -84 -199t-204 -83
q-143 0 -235.5 100t-92.5 248q0 191 160 326.5t398 135.5h364q-92 90 -92 228q0 129 98 220.5t240 91.5q136 0 225 -73t89 -183q0 -87 -61 -144.5t-151 -57.5q-78 0 -134 55t-56 135q0 90 64 148q-82 0 -138 -56t-56 -142q0 -92 58.5 -157t145.5 -65h146l-24 -120h-170
l-44 -224q49 46 126 46q90 0 146 -73t56 -189q0 -300 -253.5 -500t-590.5 -200q-371 0 -606.5 194.5t-235.5 517.5q0 147 62 297.5t162 250.5l90 -60q-194 -204 -194 -480q0 -262 190.5 -421t483.5 -159q294 0 476 152t182 408q0 118 -60 118q-55 0 -68 -64l-58 -294h-240z
M1696 1180q-54 0 -54 -68q0 -62 50 -62q54 0 54 68q0 62 -50 62z" />
    <glyph glyph-name="tm_tt_iikaar" horiz-adv-x="1542" 
d="M1516 0h-1376l160 800h240l-136 -680h376q-154 120 -154 304q0 170 130.5 293t319.5 123q156 0 260 -95.5t104 -232.5q0 -114 -77 -193t-191 -79q-108 0 -178 77t-70 191q0 102 64 172q-100 -8 -171 -88.5t-71 -181.5q0 -116 98 -203t236 -87h460zM1132 440q52 0 52 80
q0 39 -19 69.5t-49 30.5q-52 0 -52 -80q0 -39 19 -69.5t49 -30.5z" />
    <glyph glyph-name="tm_nn_iikaar" horiz-adv-x="2256" 
d="M502 154q35 0 56.5 31.5t21.5 72.5q0 72 -60 72q-35 0 -56.5 -31.5t-21.5 -72.5q0 -72 60 -72zM1022 154q38 0 61 38.5t23 87.5q0 129 -82 236q-78 -113 -78 -252q0 -110 76 -110zM1564 154q38 0 61 38.5t23 87.5q0 139 -66 246q-94 -117 -94 -262q0 -110 76 -110z
M2378 800l-20 -120h-128l-136 -680h-230l136 680h-102q-101 0 -192 -50q142 -156 142 -352q0 -126 -74 -207t-190 -81q-96 0 -156 76.5t-60 187.5q0 201 140 358q-82 68 -192 68q-90 0 -174 -52q164 -154 164 -350q0 -126 -74 -207t-190 -81q-96 0 -156 76.5t-60 187.5
q0 190 118 342q-113 84 -268 84q-176 0 -291 -102.5t-115 -239.5q0 -117 76 -180q-20 46 -20 104q0 101 63.5 170.5t160.5 69.5q96 0 155 -64.5t59 -165.5q0 -116 -84 -199t-204 -83q-143 0 -235.5 100t-92.5 248q0 191 160.5 326.5t397.5 135.5q188 0 344 -100
q134 100 292 100q148 0 276 -92q139 92 300 92h42q-92 90 -92 228q0 129 98 220.5t240 91.5q136 0 225 -73t89 -183q0 -87 -61 -144.5t-151 -57.5q-78 0 -134 55t-56 135q0 90 64 148q-82 0 -138 -56t-56 -142q0 -92 58.5 -157t145.5 -65h186zM2270 1180q-54 0 -54 -68
q0 -62 50 -62q54 0 54 68q0 62 -50 62z" />
    <glyph glyph-name="tm_t_iikaar" horiz-adv-x="1222" 
d="M638 340h-246q-106 0 -106 -80q0 -50 50 -85t110 -35q152 0 192 200zM662 460l44 220h-154l-44 -220h154zM456 800h720l-24 -120h-206l-44 -220h10q146 0 231 -70.5t85 -189.5q0 -181 -174.5 -290.5t-461.5 -109.5h-217q-94 0 -129 -44q62 -31 62 -100q0 -51 -34.5 -83.5
t-89.5 -32.5q-50 0 -83 39t-33 93q0 95 89.5 161.5t233.5 66.5h191q219 0 321.5 84t102.5 224q0 61 -35.5 96.5t-92.5 35.5q-32 -159 -143 -249.5t-277 -90.5q-122 0 -217 71.5t-95 176.5q0 88 67.5 150t174.5 62q-182 100 -182 326q0 207 177.5 380.5t432.5 173.5
q165 0 274.5 -76t109.5 -186q0 -86 -60 -141t-148 -55q-78 0 -136 55t-58 135q0 84 58 140q-36 8 -74 8q-186 0 -321 -137t-135 -299q0 -148 86 -204zM976 1180q-54 0 -54 -68q0 -62 50 -62q54 0 54 68q0 62 -50 62z" />
    <glyph glyph-name="tm_n_iikaar" horiz-adv-x="1102" 
d="M1020 800l-24 -120h-200l-44 -224q58 46 122 46q88 0 147 -75t59 -187q0 -108 -40.5 -191t-124 -142.5t-184 -83t-267.5 -23.5h-76q-93 0 -128 -44q62 -31 62 -100q0 -51 -34.5 -83.5t-89.5 -32.5q-50 0 -83 39t-33 93q0 95 90.5 161.5t237.5 66.5h50q98 0 158 8.5
t113 47t83 108.5t30 166q0 128 -64 128q-49 0 -64 -74l-56 -284h-240l136 680h-160l-136 -680h-120l160 800h322q-92 90 -92 228q0 129 98 220.5t240 91.5q136 0 225 -73t89 -183q0 -87 -61 -144.5t-151 -57.5q-78 0 -134 55t-56 135q0 90 64 148q-82 0 -138 -56t-56 -142
q0 -92 58.5 -157t145.5 -65h166zM932 1180q-54 0 -54 -68q0 -62 50 -62q54 0 54 68q0 62 -50 62z" />
    <glyph glyph-name="tm_nnn_iikaar" horiz-adv-x="1746" 
d="M502 154q35 0 56.5 31.5t21.5 72.5q0 72 -60 72q-35 0 -56.5 -31.5t-21.5 -72.5q0 -72 60 -72zM1022 154q38 0 61 38.5t23 87.5q0 122 -80 228q-80 -110 -80 -244q0 -110 76 -110zM1356 680q-112 0 -208 -58q158 -154 158 -344q0 -126 -74 -207t-190 -81q-96 0 -156 76.5
t-60 187.5q0 186 120 336q-117 90 -270 90q-176 0 -291 -102.5t-115 -239.5q0 -117 76 -180q-20 46 -20 104q0 101 63.5 170.5t160.5 69.5q96 0 155 -64.5t59 -165.5q0 -116 -84 -199t-204 -83q-143 0 -235.5 100t-92.5 248q0 192 159 327t399 135q194 0 352 -104
q144 104 318 104h72q-92 90 -92 228q0 129 98 220.5t240 91.5q136 0 225 -73t89 -183q0 -87 -61 -144.5t-151 -57.5q-78 0 -134 55t-56 135q0 90 64 148q-82 0 -138 -56t-56 -142q0 -92 58.5 -157t145.5 -65h186l-20 -120h-124l-136 -680h-240l136 680h-126zM1758 1180
q-54 0 -54 -68q0 -62 50 -62q54 0 54 68q0 62 -50 62z" />
    <glyph glyph-name="tm_p_iikaar" horiz-adv-x="1306" 
d="M1100 800h240l-160 -800h-1040l160 800h240l-136 -680h560l96 480q-104 31 -164 115t-60 197q-1 165 133.5 296.5t316.5 131.5q136 0 229.5 -76t94.5 -186q-1 -86 -61 -141t-151 -55q-78 0 -134.5 55t-55.5 135q0 77 48 130q-129 0 -214.5 -90.5t-85.5 -207.5
q0 -71 35 -125t91 -71zM1386 1180q-54 0 -54 -68q0 -62 50 -62q54 0 54 68q0 62 -50 62z" />
    <glyph glyph-name="tm_m_iikaar" horiz-adv-x="1372" 
d="M880 120h180q80 0 130 64t50 156q0 122 -53.5 212t-124.5 90q-39 0 -64 -29.5t-46 -132.5zM1112 780q98 -40 173 -160t75 -278q0 -148 -85 -245t-219 -97h-916l160 800h240l-136 -680h236l84 416q42 209 204 254q-100 104 -100 234q0 127 101 221.5t237 94.5t225 -73
t89 -183q0 -87 -61 -144.5t-151 -57.5q-78 0 -134 55t-56 135q0 90 64 148q-81 0 -137.5 -59.5t-56.5 -146.5q0 -75 46 -140t118 -94zM1256 1180q-54 0 -54 -68q0 -62 50 -62q54 0 54 68q0 62 -50 62z" />
    <glyph glyph-name="tm_y_iikaar" horiz-adv-x="1378" 
d="M1150 800h230l-160 -800h-540q-98 0 -110 90q-90 -90 -212 -90q-171 0 -171 194q0 39 9 84l104 522h230l-104 -518q-3 -17 -3 -33q0 -69 67 -69q76 0 96 102l104 518h230l-140 -680h234l106 534q-184 94 -184 318q0 141 104.5 254.5t245.5 113.5q134 0 221 -75t87 -187
q0 -86 -60.5 -141t-151.5 -55q-77 0 -133.5 55t-56.5 135q0 77 48 130q-80 -13 -132 -83t-52 -159q0 -142 86 -198zM1366 1050q54 0 54 68q0 62 -50 62q-54 0 -54 -68q0 -62 50 -62z" />
    <glyph glyph-name="tm_r_iikaar" horiz-adv-x="926" 
d="M34 -184l426 184l136 680h-200l-136 -680h-120l160 800h342q-92 90 -92 228q0 129 98 220.5t240 91.5q136 0 225 -73t89 -183q0 -87 -61 -144.5t-151 -57.5q-78 0 -134 55t-56 135q0 90 64 148q-82 0 -138 -56t-56 -142q0 -92 58.5 -157t145.5 -65h186l-24 -120h-200
l-136 -680l-634 -260zM952 1180q-54 0 -54 -68q0 -62 50 -62q54 0 54 68q0 62 -50 62z" />
    <glyph glyph-name="tm_rr_iikaar" horiz-adv-x="1272" 
d="M1040 816q96 -48 154 -151.5t58 -224.5q0 -270 -164.5 -455t-433.5 -185h-214q-93 0 -128 -44q62 -31 62 -100q0 -51 -34.5 -83.5t-89.5 -32.5q-50 0 -83 39t-33 93q0 95 90.5 161.5t237.5 66.5h192q182 0 273 142t91 394q0 98 -36 171t-94 73q-98 0 -124 -130l-110 -550
h-220l114 572q3 13 3 23q0 85 -79 85q-82 0 -104 -108l-114 -572h-120l120 600q48 240 240 240q140 0 184 -150q63 114 180 142q-98 104 -98 240q0 131 101 229.5t239 98.5q136 0 225 -73t89 -183q0 -87 -61 -144.5t-151 -57.5q-78 0 -134 55t-56 135q0 90 64 148
q-81 0 -138.5 -62.5t-57.5 -149.5q0 -55 19 -104t49.5 -83.5t91.5 -64.5zM1190 1240q-54 0 -54 -68q0 -62 50 -62q54 0 54 68q0 62 -50 62z" />
    <glyph glyph-name="tm_l_iikaar" horiz-adv-x="1532" 
d="M490 146q35 0 56.5 31.5t21.5 72.5q0 72 -60 72q-35 0 -56.5 -31.5t-21.5 -72.5q0 -72 60 -72zM1540 530q0 -220 -133.5 -380t-324.5 -160q-107 0 -179.5 67.5t-72.5 174.5q0 57 14 134t14 122q0 86 -62 139t-176 53q-148 0 -249 -107t-101 -241q0 -119 64 -174
q-20 46 -20 96q0 101 62.5 170.5t157.5 69.5q90 0 144 -63t54 -163q0 -114 -83.5 -196t-202.5 -82q-129 0 -213.5 96.5t-84.5 241.5q0 196 160 354t382 158q176 0 285 -92t109 -232q0 -46 -14 -130t-14 -130q0 -54 31 -90t81 -36q91 0 171.5 107.5t80.5 228.5q0 57 -10 110
q-139 16 -225.5 113t-86.5 231q0 165 133.5 292.5t316.5 127.5q137 0 230.5 -76t93.5 -186q0 -86 -60.5 -141t-151.5 -55q-77 0 -133.5 55t-56.5 135q0 77 48 130q-131 0 -215.5 -87t-84.5 -211q0 -83 43 -142.5t113 -77.5q-17 34 -42 68q-18 25 -18 54q0 76 76 76
q36 0 66 -31.5t57 -120t27 -200.5zM1648 1180q-54 0 -54 -68q0 -62 50 -62q54 0 54 68q0 62 -50 62z" />
    <glyph glyph-name="tm_ll_iikaar" horiz-adv-x="1638" 
d="M502 154q35 0 56.5 31.5t21.5 72.5q0 72 -60 72q-35 0 -56.5 -31.5t-21.5 -72.5q0 -72 60 -72zM1776 800l-24 -120h-186l-136 -680h-240l136 680h-154l-136 -680h-230l54 266q10 49 10 88q0 116 -79.5 203t-220.5 87q-125 0 -212.5 -90.5t-87.5 -215.5q0 -117 76 -180
q-20 46 -20 104q0 101 63.5 170.5t160.5 69.5q96 0 155 -64.5t59 -165.5q0 -116 -84 -199t-204 -83q-143 0 -235.5 100t-92.5 248q0 197 134 329.5t340 132.5q137 0 244 -67.5t159 -185.5l51 253h282q-92 90 -92 228q0 129 98 220.5t240 91.5q136 0 225 -73t89 -183
q0 -87 -61 -144.5t-151 -57.5q-78 0 -134 55t-56 135q0 90 64 148q-82 0 -138 -56t-56 -142q0 -92 58.5 -157t145.5 -65h186zM1668 1180q-54 0 -54 -68q0 -62 50 -62q54 0 54 68q0 62 -50 62z" />
    <glyph glyph-name="tm_lll_iikaar" horiz-adv-x="1368" 
d="M890 120h190q80 0 130 64t50 156q0 122 -53.5 212t-124.5 90q-87 0 -120 -162zM1132 780q98 -40 173 -160t75 -278q0 -148 -85 -245t-219 -97h-210q-3 -18 -3 -32q0 -68 73 -68h160l-40 -120h-174q-55 0 -89 -19.5t-87 -120.5q-105 -200 -364 -200q-121 0 -213.5 68
t-92.5 172q0 89 66.5 154.5t161.5 65.5q76 0 124 -35.5t48 -84.5q0 -43 -26 -71.5t-68 -28.5q-38 0 -75 42t-69 42q-30 0 -51 -21t-21 -53q0 -53 55.5 -90.5t138.5 -37.5q162 0 236 158q53 113 130 140q-54 33 -54 99q0 19 4 41h-496l160 800h240l-136 -680h256l84 416
q42 209 204 254q-100 104 -100 234q0 127 101 221.5t237 94.5t225 -73t89 -183q0 -87 -61 -144.5t-151 -57.5q-78 0 -134 55t-56 135q0 90 64 148q-81 0 -137.5 -59.5t-56.5 -146.5q0 -75 46 -140t118 -94zM1276 1180q-54 0 -54 -68q0 -62 50 -62q54 0 54 68q0 62 -50 62z
" />
    <glyph glyph-name="tm_v_iikaar" horiz-adv-x="1638" 
d="M512 154q35 0 56.5 31.5t21.5 72.5q0 72 -60 72q-35 0 -56.5 -31.5t-21.5 -72.5q0 -72 60 -72zM1430 800h240l-160 -800h-752q158 158 158 348q0 137 -88.5 234.5t-223.5 97.5q-136 0 -230 -97.5t-94 -230.5q0 -121 76 -184q-20 46 -20 102q0 101 65.5 174.5t162.5 73.5
q92 0 152 -67.5t60 -166.5q0 -122 -84.5 -208t-205.5 -86q-141 0 -234.5 105.5t-93.5 256.5q0 202 142 345t348 143q208 0 349 -135.5t141 -330.5q0 -130 -62 -254h218l96 480q-103 31 -163.5 115t-60.5 197q0 165 134 296.5t316 131.5q137 0 230.5 -76t93.5 -186
q0 -86 -60.5 -141t-151.5 -55q-77 0 -133.5 55t-56.5 135q0 77 48 130q-128 0 -214 -90.5t-86 -207.5q0 -71 35 -125t91 -71zM1716 1180q-54 0 -54 -68q0 -62 50 -62q54 0 54 68q0 62 -50 62z" />
    <glyph glyph-name="tm_ss_iikaar" horiz-adv-x="1942" 
d="M512 154q35 0 56.5 31.5t21.5 72.5q0 72 -60 72q-35 0 -56.5 -31.5t-21.5 -72.5q0 -72 60 -72zM1382 426l20 98q6 29 6 52q0 66 -44 66q-56 0 -56 -82q0 -97 74 -134zM1596 290l-34 -170h110l40 196q-62 -20 -116 -26zM1526 776q57 -29 85.5 -83t28.5 -133
q0 -43 -12 -106l-8 -42q187 35 352 188l-120 -600h-314l-92 -460h-240l92 460h-540q158 158 158 348q0 137 -88.5 234.5t-223.5 97.5q-136 0 -230 -97.5t-94 -230.5q0 -121 76 -184q-20 46 -20 102q0 101 65.5 174.5t162.5 73.5q92 0 152 -67.5t60 -166.5q0 -122 -84.5 -208
t-205.5 -86q-141 0 -234.5 105.5t-93.5 256.5q0 202 142 345t348 143q208 0 349 -135.5t141 -330.5q0 -130 -62 -254h246l36 184q-172 63 -172 242q0 87 47 158t125 90q-72 101 -72 216q0 129 102.5 229.5t239.5 100.5q136 0 225 -73t89 -183q0 -87 -61 -144.5t-151 -57.5
q-78 0 -134 55t-56 135q0 90 64 148q-81 0 -139.5 -66t-58.5 -154q0 -73 30 -133.5t90 -90.5zM1718 1180q-54 0 -54 -68q0 -62 50 -62q54 0 54 68q0 62 -50 62z" />
    <glyph glyph-name="tm_s_iikaar" horiz-adv-x="1928" 
d="M502 154q35 0 56.5 31.5t21.5 72.5q0 72 -60 72q-35 0 -56.5 -31.5t-21.5 -72.5q0 -72 60 -72zM1934 530q0 -218 -128 -379t-306 -161q-118 0 -190 71.5t-72 192.5q0 67 27 171q27 103 27 145q0 74 -54 74q-71 0 -104 -162l-98 -482h-230l54 266q10 49 10 88
q0 116 -79.5 203t-220.5 87q-125 0 -212.5 -90.5t-87.5 -215.5q0 -117 76 -180q-20 46 -20 104q0 101 63.5 170.5t160.5 69.5q96 0 155 -64.5t59 -165.5q0 -116 -84 -199t-204 -83q-143 0 -235.5 100t-92.5 248q0 197 134 329.5t340 132.5q137 0 243.5 -67.5t158.5 -186.5
q76 254 286 254q92 0 151 -63.5t59 -158.5q0 -47 -27 -152t-27 -156q0 -124 114 -124q87 0 160.5 103.5t73.5 216.5q0 57 -10 110q-139 16 -225.5 113t-86.5 231q0 165 133.5 292.5t316.5 127.5q137 0 230.5 -76t93.5 -186q0 -86 -60.5 -141t-151.5 -55q-77 0 -133.5 55
t-56.5 135q0 77 48 130q-131 0 -215.5 -87t-84.5 -211q0 -83 43 -142.5t113 -77.5q-17 34 -42 68q-18 25 -18 54q0 76 76 76q36 0 66 -31.5t57 -120t27 -200.5zM2042 1180q-54 0 -54 -68q0 -62 50 -62q54 0 54 68q0 62 -50 62z" />
    <glyph glyph-name="tm_h_iikaar" horiz-adv-x="2358" 
d="M512 154q35 0 56.5 31.5t21.5 72.5q0 72 -60 72q-35 0 -56.5 -31.5t-21.5 -72.5q0 -72 60 -72zM2134 816q96 -48 154 -151.5t58 -224.5q0 -270 -164.5 -455t-433.5 -185h-1266q-93 0 -128 -44q62 -31 62 -100q0 -51 -34.5 -83.5t-89.5 -32.5q-50 0 -83 39t-33 93
q0 95 90.5 161.5t237.5 66.5h1244q182 0 273 142t91 394q0 98 -36 171t-94 73q-98 0 -124 -130l-110 -550h-220l114 572q3 13 3 23q0 85 -79 85q-82 0 -104 -108l-114 -572h-590q158 158 158 348q0 137 -88.5 234.5t-223.5 97.5q-136 0 -230 -97.5t-94 -230.5
q0 -121 76 -184q-20 46 -20 102q0 101 65.5 174.5t162.5 73.5q92 0 152 -67.5t60 -166.5q0 -122 -84.5 -208t-205.5 -86q-141 0 -234.5 105.5t-93.5 256.5q0 202 142 345t348 143q208 0 349 -135.5t141 -330.5q0 -130 -62 -254h176l96 480q48 240 240 240q140 0 184 -150
q63 114 180 142q-98 104 -98 240q0 131 101 229.5t239 98.5q136 0 225 -73t89 -183q0 -87 -61 -144.5t-151 -57.5q-78 0 -134 55t-56 135q0 90 64 148q-81 0 -138.5 -62.5t-57.5 -149.5q0 -55 19 -104t49.5 -83.5t91.5 -64.5zM2284 1240q-54 0 -54 -68q0 -62 50 -62
q54 0 54 68q0 62 -50 62z" />
    <glyph glyph-name="tm_k_ukaar" horiz-adv-x="1584" 
d="M942 340h-246q-106 0 -106 -80q0 -50 50 -85t110 -35q152 0 192 200zM1182 340q-32 -159 -143 -249.5t-277 -90.5q-122 0 -217 71.5t-95 176.5q0 88 67.5 150t174.5 62l68 340h720l-24 -120h-206l-44 -220q136 0 242 -96.5t106 -235.5q0 -263 -220.5 -425.5
t-539.5 -162.5q-283 0 -471.5 180.5t-188.5 455.5q0 217 121 383.5t331 240.5l44 -84q-170 -59 -273 -201t-103 -319q0 -223 142 -369.5t376 -146.5q253 0 417.5 126t164.5 334q0 81 -49.5 140.5t-122.5 59.5zM1010 680h-154l-44 -220h154z" />
    <glyph glyph-name="tm_ng_ukaar" horiz-adv-x="1464" 
d="M1086 0h-686l24 120h278q75 0 105.5 64t30.5 130q0 86 -62 86q-52 0 -70 -80l-26 -120h-240l96 480h-140l-136 -680h-120l160 800h700l-24 -120h-196l-36 -180q58 42 126 42q81 0 133.5 -60t52.5 -148q0 -110 -96 -214h150l136 680h240l-252 -1260h-240z" />
    <glyph glyph-name="tm_c_ukaar" horiz-adv-x="1234" 
d="M638 340h-246q-106 0 -106 -80q0 -50 50 -85t110 -35q152 0 192 200zM978 340h-100q-32 -159 -143 -249.5t-277 -90.5q-122 0 -217 71.5t-95 176.5q0 88 67.5 150t174.5 62l68 340h760l-24 -120h-246l-44 -220h422l-24 -120h-92l-68 -340h-230zM706 680h-154l-44 -220
h154z" />
    <glyph glyph-name="glyph167" horiz-adv-x="1284" 
d="M222 1000h1000v-1000h-1000v1000zM1142 80v840h-840v-840h840z" />
    <glyph glyph-name="tm_ny_ukaar" horiz-adv-x="1984" 
d="M502 154q35 0 56.5 31.5t21.5 72.5q0 72 -60 72q-35 0 -56.5 -31.5t-21.5 -72.5q0 -72 60 -72zM878 0l136 680h-338q-176 0 -291 -102.5t-115 -239.5q0 -117 76 -180q-20 46 -20 104q0 101 65 170.5t163 69.5q95 0 152.5 -64t57.5 -166q0 -116 -84 -199t-204 -83
q-143 0 -235.5 100t-92.5 248q0 192 159.5 327t398.5 135h742l-24 -120h-170l-44 -224q49 46 132 46q90 0 152 -81t62 -199q0 -174 -114 -322h150l180 900h232l-200 -1000h-456q-138 -119 -340.5 -189.5t-397.5 -70.5q-284 0 -450 98.5t-166 183.5q0 78 100 78h1122
q118 137 118 306q0 67 -24 109.5t-58 42.5q-62 0 -76 -68l-58 -290h-240zM1106 -200h-984q137 -150 468 -150q304 0 516 150z" />
    <glyph glyph-name="tm_tt_ukaar" horiz-adv-x="1532" 
d="M900 980q-261 0 -437.5 -210.5t-176.5 -491.5q0 -223 96.5 -360.5t261.5 -137.5q162 0 259.5 117.5t97.5 296.5q0 164 -89 164q-62 0 -76 -72l-56 -286h-240l160 800h240l-68 -344q56 46 136 46q98 0 165.5 -85.5t67.5 -206.5q-1 -240 -167.5 -405t-405.5 -165
q-225 0 -363.5 167.5t-138.5 418.5q0 354 235.5 628t578.5 274q220 0 376 -160t156 -386q0 -62 -16 -142l-88 -440h-120l84 420q12 60 12 114q0 192 -137.5 319t-346.5 127z" />
    <glyph glyph-name="tm_nn_ukaar" horiz-adv-x="2462" 
d="M490 154q33 0 54.5 31.5t21.5 72.5q0 72 -58 72q-33 0 -53.5 -31.5t-20.5 -72.5q0 -72 56 -72zM970 154q38 0 61 38.5t23 87.5q0 138 -84 246q-76 -113 -76 -262q0 -110 76 -110zM1492 154q38 0 61 38.5t23 87.5q0 145 -74 256q-86 -129 -86 -272q0 -110 76 -110z
M1896 334q0 150 -54 248t-140 98q-43 0 -94 -34q148 -158 148 -368q0 -131 -66 -209.5t-178 -78.5q-95 0 -155.5 76t-60.5 188q0 199 132 364q-79 62 -184 62q-89 0 -164 -46q154 -154 154 -356q0 -131 -66 -209.5t-178 -78.5q-96 0 -156 76.5t-60 187.5q0 197 116 350
q-106 76 -252 76q-170 0 -269 -98t-99 -244q0 -115 68 -180q-20 46 -20 104q0 99 60.5 169.5t147.5 70.5q82 0 134 -64.5t52 -165.5q0 -115 -71 -198.5t-175 -83.5q-137 0 -227.5 100.5t-90.5 247.5q0 198 144.5 330t375.5 132q181 0 324 -94q125 94 278 94q142 0 260 -84
q111 84 226 84q144 0 235 -116.5t91 -293.5q0 -282 -142 -490h154l178 900h220l-200 -1000h-434q-294 -302 -920 -302q-345 0 -580.5 108.5t-235.5 215.5q0 78 100 78h1508q166 188 166 434zM1620 -200h-1370q90 -81 272 -136.5t396 -55.5q444 0 702 192z" />
    <glyph glyph-name="tm_t_ukaar" horiz-adv-x="1566" 
d="M616 460l44 220h-154l-44 -220h154zM592 340h-246q-106 0 -106 -80q0 -50 50 -85t110 -35q152 0 192 200zM756 -200h-634q83 -150 276 -150q204 0 358 150zM1378 -200h-422q-114 -121 -257.5 -190.5t-280.5 -69.5q-170 0 -297 93t-127 189q0 78 100 78h746
q102 151 102 296q0 144 -110 144q-32 -159 -143 -249.5t-277 -90.5q-122 0 -217 71.5t-95 176.5q0 88 67.5 150t174.5 62l68 340h720l-24 -120h-206l-44 -220q124 0 206 -68t82 -176q0 -157 -108 -316h134l178 900h230z" />
    <glyph glyph-name="tm_n_ukaar" horiz-adv-x="1480" 
d="M678 -200h-596q72 -150 264 -150q195 0 332 150zM1296 -200h-408q-106 -121 -245 -190.5t-277 -69.5q-168 0 -290 93t-122 189q0 78 100 78h698q88 150 88 296q0 162 -70 162q-50 0 -64 -68l-58 -290h-230l136 680h-158l-136 -680h-120l160 800h728l-24 -120h-220
l-44 -224q49 46 130 46q84 0 138 -80t54 -202q0 -161 -100 -320h126l178 900h230z" />
    <glyph glyph-name="tm_nnn_ukaar" horiz-adv-x="2196" 
d="M502 154q35 0 56.5 31.5t21.5 72.5q0 72 -60 72q-35 0 -56.5 -31.5t-21.5 -72.5q0 -72 60 -72zM1030 154q38 0 61 38.5t23 87.5q0 131 -86 238q-74 -119 -74 -254q0 -110 76 -110zM1270 -200h-1056q76 -83 217.5 -137.5t298.5 -54.5q331 0 540 192zM2016 -200h-506
q-283 -302 -760 -302q-301 0 -482.5 120t-181.5 204q0 78 100 78h1174q142 194 142 432q0 153 -63.5 250.5t-168.5 97.5q-66 0 -130 -42q174 -156 174 -360q0 -126 -76 -207t-192 -81q-95 0 -153.5 75.5t-58.5 188.5q0 190 112 342q-117 84 -270 84q-176 0 -291 -102.5
t-115 -239.5q0 -117 76 -180q-20 46 -20 104q0 101 63.5 170.5t160.5 69.5q96 0 155 -64.5t59 -165.5q0 -116 -84 -199t-204 -83q-143 0 -235.5 100t-92.5 248q0 191 160.5 326.5t397.5 135.5q190 0 346 -96q126 96 274 96q176 0 293 -127t117 -309q0 -252 -146 -464h218
l178 900h230z" />
    <glyph glyph-name="tm_p_ukaar" horiz-adv-x="1322" 
d="M940 0h-800l160 800h240l-136 -680h560l136 680h240l-252 -1260h-240z" />
    <glyph glyph-name="tm_m_ukaar" horiz-adv-x="1882" 
d="M1386 120h180q80 0 130 64t50 156q0 122 -53.5 212t-124.5 90q-39 0 -64 -29.5t-46 -132.5zM1362 0l-6 -28q-42 -195 -197 -313.5t-381 -118.5q-276 0 -460 180.5t-184 455.5q0 217 121 383.5t331 240.5l44 -84q-170 -59 -273 -201t-103 -319q0 -222 135 -369t355 -147
q310 0 372 292l6 28h-476l160 800h240l-136 -680h236l84 416q53 264 284 264q143 0 247.5 -136.5t104.5 -321.5q0 -148 -85 -245t-219 -97h-200z" />
    <glyph glyph-name="tm_y_ukaar" horiz-adv-x="1370" 
d="M990 0h-310q-98 0 -110 90q-90 -90 -212 -90q-171 0 -171 194q0 39 9 84l104 522h230l-104 -518q-3 -17 -3 -33q0 -69 67 -69q76 0 96 102l104 518h230l-140 -680h234l136 680h230l-252 -1260h-230z" />
    <glyph glyph-name="tm_r_ukaar" horiz-adv-x="1586" 
d="M872 0l136 680h-160l-136 -680h-120l160 800h720l-24 -120h-200l-44 -224q49 46 132 46q92 0 155 -91.5t63 -214.5q0 -280 -224 -468t-530 -188q-285 0 -475.5 181.5t-190.5 454.5q0 217 121 383.5t331 240.5l44 -84q-170 -59 -273 -201t-103 -319q0 -222 144.5 -369
t379.5 -147q247 0 401.5 138t154.5 362q0 80 -25 129t-65 49q-62 0 -76 -72l-56 -286h-240z" />
    <glyph glyph-name="tm_rr_ukaar" horiz-adv-x="1742" 
d="M1558 -200h-558q-241 -260 -582 -260q-170 0 -297 93t-127 189q0 78 100 78h770q154 223 154 530q0 103 -36 176.5t-94 73.5q-98 0 -124 -130l-110 -550h-220l114 572q3 13 3 23q0 85 -79 85q-82 0 -104 -108l-114 -572h-120l120 600q48 240 240 240q140 0 184 -150
q83 150 252 150q141 0 231.5 -118t90.5 -286q0 -289 -172 -536h270l178 900h230zM778 -200h-656q83 -150 276 -150q223 0 380 150z" />
    <glyph glyph-name="tm_l_ukaar" horiz-adv-x="1986" 
d="M490 146q35 0 56.5 31.5t21.5 72.5q0 72 -60 72q-35 0 -56.5 -31.5t-21.5 -72.5q0 -72 60 -72zM890 -200h-762q43 -84 136.5 -138t209.5 -54q275 0 416 192zM1800 -200h-696q-206 -302 -614 -302q-192 0 -341 109t-149 215q0 78 100 78h848q20 46 36 110
q-154 59 -154 222q0 58 14 134q14 77 14 122q0 86 -62 139t-176 53q-148 0 -249 -107t-101 -241q0 -119 64 -174q-20 46 -20 96q0 101 62.5 170.5t157.5 69.5q90 0 144 -63t54 -163q0 -114 -83.5 -196t-202.5 -82q-129 0 -213.5 96.5t-84.5 241.5q0 196 160 354t382 158
q176 0 285 -92t109 -232q0 -46 -14 -130t-14 -130q0 -110 116 -110q91 0 159.5 86.5t68.5 191.5q0 180 -150 276q-26 17 -26 50q0 48 32 93t80 45q80 0 137 -107t57 -251q0 -180 -93 -327.5t-235 -194.5q-21 -69 -40 -108h430l178 900h230z" />
    <glyph glyph-name="tm_ll_ukaar" horiz-adv-x="2110" 
d="M760 154q35 0 56.5 31.5t21.5 72.5q0 72 -60 72q-35 0 -56.5 -31.5t-21.5 -72.5q0 -72 60 -72zM2014 800l-24 -120h-170l-44 -224q49 46 126 46q90 0 146 -73t56 -189q0 -316 -285 -529t-693 -213q-429 0 -693.5 208t-264.5 546q0 147 62 297.5t162 250.5l90 -60
q-194 -204 -194 -480q0 -275 217.5 -448.5t558.5 -173.5q357 0 581.5 167t224.5 435q0 118 -60 118q-55 0 -68 -64l-58 -294h-230l136 680h-160l-136 -680h-230l54 266q10 49 10 88q0 116 -79.5 203t-220.5 87q-125 0 -212.5 -90.5t-87.5 -215.5q0 -117 76 -180
q-20 46 -20 104q0 101 63.5 170.5t160.5 69.5q96 0 155 -64.5t59 -165.5q0 -116 -84 -199t-204 -83q-143 0 -235.5 100t-92.5 248q0 192 135.5 327t338.5 135q137 0 244 -67.5t159 -185.5l51 253h680z" />
    <glyph glyph-name="tm_lll_ukaar" horiz-adv-x="1934" 
d="M1386 120h180q80 0 130 64t50 156q0 122 -53.5 212t-124.5 90q-39 0 -64 -29.5t-46 -132.5zM134 184q0 215 120.5 380.5t331.5 235.5l44 -84q-172 -59 -274 -197.5t-102 -314.5q0 -275 204 -458.5t514 -183.5q204 0 333 57t129 145q0 56 -54 56q-59 0 -70 -80h-240
l52 260h-476l160 800h240l-136 -680h236l84 416q53 264 284 264q143 0 247.5 -136.5t104.5 -321.5q0 -148 -85 -245t-219 -97h-200l-22 -106q36 18 86 18q71 0 119.5 -47.5t48.5 -118.5q0 -128 -163 -226t-415 -98q-388 0 -635 217.5t-247 544.5z" />
    <glyph glyph-name="tm_v_ukaar" horiz-adv-x="1668" 
d="M512 154q35 0 56.5 31.5t21.5 72.5q0 72 -60 72q-35 0 -56.5 -31.5t-21.5 -72.5q0 -72 60 -72zM1276 0h-518q158 158 158 348q0 137 -88.5 234.5t-223.5 97.5q-136 0 -230 -97.5t-94 -230.5q0 -121 76 -184q-20 46 -20 102q0 101 65.5 174.5t162.5 73.5q92 0 152 -67.5
t60 -166.5q0 -122 -84.5 -208t-205.5 -86q-141 0 -234.5 105.5t-93.5 256.5q0 202 142 345t348 143q208 0 349 -135.5t141 -330.5q0 -130 -62 -254h224l136 680h240l-252 -1260h-240z" />
    <glyph glyph-name="tm_k_uukaar" horiz-adv-x="1640" 
d="M1044 158q48 0 48 68q0 72 -44 100q-46 -49 -46 -106q0 -62 42 -62zM596 340h-246q-106 0 -106 -80q0 -50 50 -85t110 -35q152 0 192 200zM620 460l44 220h-154l-44 -220h154zM1618 0h-336q70 95 70 200q0 76 -45 132t-111 56q-5 0 -24 -2q66 -69 66 -164q0 -94 -54 -158
t-138 -64q-73 0 -118.5 57.5t-45.5 142.5q0 73 34 140h-80q-32 -159 -143 -249.5t-277 -90.5q-122 0 -217 71.5t-95 176.5q0 88 67.5 150t174.5 62l68 340h760l-24 -120h-246l-44 -220h158q93 70 208 70q123 0 207.5 -82.5t84.5 -193.5q0 -65 -32 -134h156z" />
    <glyph glyph-name="tm_ng_uukaar" horiz-adv-x="1756" 
d="M1086 0h-686l24 120h278q75 0 105.5 64t30.5 130q0 86 -62 86q-52 0 -70 -80l-26 -120h-240l96 480h-140l-136 -680h-120l160 800h700l-24 -120h-196l-36 -180q58 42 126 42q81 0 133.5 -60t52.5 -148q0 -110 -96 -214h150l136 680h240l-148 -746q83 66 196 66
q107 0 176.5 -69.5t69.5 -172.5q0 -184 -227.5 -301t-572.5 -117q-307 0 -523.5 94t-216.5 222q0 63 84 103.5t226 40.5q240 0 470 -100l-80 -120q-164 140 -400 140q-160 0 -160 -80q0 -81 162 -140.5t398 -59.5q272 0 454 81t182 199q0 52 -35 86t-91 34q-132 0 -154 -110
l-38 -190h-240z" />
    <glyph glyph-name="tm_c_uukaar" horiz-adv-x="1790" 
d="M942 340h-246q-106 0 -106 -80q0 -50 50 -85t110 -35q152 0 192 200zM1282 340h-100q-32 -159 -143 -249.5t-277 -90.5q-122 0 -217 71.5t-95 176.5q0 88 67.5 150t174.5 62l68 340h760l-24 -120h-246l-44 -220h422l-24 -120h-92l-20 -102q35 14 74 14q90 0 150 -66
t60 -170q0 -217 -238.5 -367.5t-607.5 -150.5q-330 0 -563 200.5t-233 477.5q0 217 121 383.5t331 240.5l44 -84q-170 -59 -273 -201t-103 -319q0 -214 195.5 -386t458.5 -172q302 0 490 114t188 290q0 120 -86 120q-7 0 -24 -4l-32 -158h-230zM1010 680h-154l-44 -220h154z
" />
    <glyph glyph-name="glyph186" horiz-adv-x="1284" 
d="M222 1000h1000v-1000h-1000v1000zM1142 80v840h-840v-840h840z" />
    <glyph glyph-name="tm_ny_uukaar" horiz-adv-x="2324" 
d="M502 154q35 0 56.5 31.5t21.5 72.5q0 72 -60 72q-35 0 -56.5 -31.5t-21.5 -72.5q0 -72 60 -72zM878 0l136 680h-338q-176 0 -291 -102.5t-115 -239.5q0 -117 76 -180q-20 46 -20 104q0 101 65 170.5t163 69.5q95 0 152.5 -64t57.5 -166q0 -116 -84 -199t-204 -83
q-143 0 -235.5 100t-92.5 248q0 192 160 327t398 135h742l-24 -120h-170l-44 -224q49 46 132 46q90 0 152 -81t62 -199q0 -174 -114 -322h150l180 900h680l-24 -120h-130l-176 -880h-230l176 880h-200l-176 -880h-344q-138 -119 -340.5 -189.5t-397.5 -70.5
q-284 0 -450 98.5t-166 183.5q0 78 100 78h1122q118 137 118 306q0 67 -24 109.5t-58 42.5q-62 0 -76 -68l-58 -290h-240zM1106 -200h-984q137 -150 468 -150q304 0 516 150z" />
    <glyph glyph-name="tm_tt_uukaar" horiz-adv-x="1380" 
d="M920 1080q-253 0 -430.5 -216.5t-177.5 -503.5q0 -241 112.5 -410.5t299.5 -169.5q158 0 249 115t91 299q0 164 -90 164q-62 0 -76 -72l-56 -286h-240l160 800h240l-68 -344q56 46 136 46q98 0 165 -85.5t67 -206.5q0 -242 -158 -406t-394 -164q-253 0 -405.5 205
t-152.5 515q0 351 223 605.5t563 254.5q210 0 363 -102t153 -234q0 -84 -56.5 -144t-141.5 -60q-81 0 -136.5 52.5t-55.5 133.5q0 91 72 152q-107 62 -256 62zM1282 970q-54 0 -54 -68q0 -62 50 -62q54 0 54 68q0 62 -50 62z" />
    <glyph glyph-name="tm_nn_uukaar" horiz-adv-x="2868" 
d="M490 154q33 0 54.5 31.5t21.5 72.5q0 72 -58 72q-33 0 -53.5 -31.5t-20.5 -72.5q0 -72 56 -72zM970 154q38 0 61 38.5t23 87.5q0 138 -84 246q-76 -113 -76 -262q0 -110 76 -110zM1492 154q38 0 61 38.5t23 87.5q0 145 -74 256q-86 -129 -86 -272q0 -110 76 -110z
M1896 334q0 150 -54 248t-140 98q-43 0 -94 -34q148 -158 148 -368q0 -131 -66 -209.5t-178 -78.5q-95 0 -155.5 76t-60.5 188q0 199 132 364q-79 62 -184 62q-89 0 -164 -46q154 -154 154 -356q0 -131 -66 -209.5t-178 -78.5q-96 0 -156 76.5t-60 187.5q0 197 116 350
q-106 76 -252 76q-170 0 -269 -98t-99 -244q0 -115 68 -180q-20 46 -20 104q0 99 60.5 169.5t147.5 70.5q82 0 134 -64.5t52 -165.5q0 -115 -71 -198.5t-175 -83.5q-137 0 -227.5 100.5t-90.5 247.5q0 198 144.5 330t375.5 132q181 0 324 -94q125 94 278 94q142 0 260 -84
q111 84 226 84q144 0 235 -116.5t91 -293.5q0 -282 -142 -490h162l180 900h680l-24 -120h-130l-176 -880h-230l176 880h-200l-176 -880h-344q-294 -302 -920 -302q-345 0 -580.5 108.5t-235.5 215.5q0 78 100 78h1508q166 188 166 434zM1620 -200h-1370q90 -81 272 -136.5
t396 -55.5q444 0 702 192z" />
    <glyph glyph-name="tm_t_uukaar" horiz-adv-x="1924" 
d="M616 460l44 220h-154l-44 -220h154zM592 340h-246q-106 0 -106 -80q0 -50 50 -85t110 -35q152 0 192 200zM756 -200h-634q83 -150 276 -150q204 0 358 150zM1290 -200h-334q-114 -121 -257.5 -190.5t-280.5 -69.5q-170 0 -297 93t-127 189q0 78 100 78h746
q102 151 102 296q0 144 -110 144q-32 -159 -143 -249.5t-277 -90.5q-122 0 -217 71.5t-95 176.5q0 88 67.5 150t174.5 62l68 340h720l-24 -120h-206l-44 -220q124 0 206 -68t82 -176q0 -157 -108 -316h154l180 900h680l-24 -120h-130l-176 -880h-230l176 880h-200z" />
    <glyph glyph-name="tm_n_uukaar" horiz-adv-x="1842" 
d="M678 -200h-596q72 -150 264 -150q195 0 332 150zM1188 -200h-300q-106 -121 -245 -190.5t-277 -69.5q-168 0 -290 93t-122 189q0 78 100 78h698q88 150 88 296q0 162 -70 162q-50 0 -64 -68l-58 -290h-230l136 680h-158l-136 -680h-120l160 800h728l-24 -120h-220
l-44 -224q49 46 130 46q84 0 138 -80t54 -202q0 -161 -100 -320h126l180 900h680l-24 -120h-130l-176 -880h-230l176 880h-200z" />
    <glyph glyph-name="tm_nnn_uukaar" horiz-adv-x="2522" 
d="M502 154q35 0 56.5 31.5t21.5 72.5q0 72 -60 72q-35 0 -56.5 -31.5t-21.5 -72.5q0 -72 60 -72zM1030 154q38 0 61 38.5t23 87.5q0 131 -86 238q-74 -119 -74 -254q0 -110 76 -110zM1270 -200h-1056q76 -83 217.5 -137.5t298.5 -54.5q331 0 540 192zM1856 -200h-346
q-283 -302 -760 -302q-301 0 -482.5 120t-181.5 204q0 78 100 78h1174q142 194 142 432q0 153 -63.5 250.5t-168.5 97.5q-66 0 -130 -42q174 -156 174 -360q0 -126 -76 -207t-192 -81q-95 0 -153.5 75.5t-58.5 188.5q0 190 112 342q-117 84 -270 84q-176 0 -291 -102.5
t-115 -239.5q0 -117 76 -180q-20 46 -20 104q0 101 63.5 170.5t160.5 69.5q96 0 155 -64.5t59 -165.5q0 -116 -84 -199t-204 -83q-143 0 -235.5 100t-92.5 248q0 191 160.5 326.5t397.5 135.5q190 0 346 -96q126 96 274 96q176 0 293 -127t117 -309q0 -252 -146 -464h166
l180 900h680l-24 -120h-130l-176 -880h-230l176 880h-200z" />
    <glyph glyph-name="tm_p_uukaar" horiz-adv-x="1450" 
d="M940 0h-800l160 800h240l-136 -680h560l136 680h240l-148 -746q60 66 146 66q79 0 135.5 -63.5t56.5 -146.5q0 -178 -208.5 -314t-521.5 -136q-294 0 -510 94t-216 222q0 63 84 103.5t226 40.5q240 0 470 -100l-80 -120q-164 140 -400 140q-160 0 -160 -80t164 -140
t396 -60q244 0 399 92t155 214q0 96 -74 96q-81 0 -104 -112l-22 -110h-240z" />
    <glyph glyph-name="tm_m_uukaar" horiz-adv-x="1962" 
d="M1426 120h180q80 0 130 64t50 156q0 122 -53.5 212t-124.5 90q-39 0 -64 -29.5t-46 -132.5zM1402 0l-6 -28q-42 -195 -197 -313.5t-381 -118.5q-279 0 -466.5 196.5t-187.5 493.5q0 237 103.5 403.5t256.5 166.5q75 0 127.5 -52.5t52.5 -127.5q0 -110 -82.5 -185
t-197.5 -75q-70 0 -122 46q-28 -90 -28 -206q0 -218 143.5 -369t366.5 -151q310 0 372 292l6 28h-476l160 800h240l-136 -680h236l84 416q53 264 284 264q143 0 247.5 -136.5t104.5 -321.5q0 -148 -85 -245t-219 -97h-200zM484 680q-45 0 -82.5 -46t-37.5 -94q0 -26 34 -26
q43 0 85.5 35t42.5 77q0 54 -42 54z" />
    <glyph glyph-name="tm_y_uukaar" horiz-adv-x="1652" 
d="M991 0h-310q-98 0 -110 90q-90 -90 -212 -90q-171 0 -171 194q0 39 9 84l104 522h230l-104 -518q-3 -17 -3 -33q0 -69 67 -69q76 0 96 102l104 518h230l-140 -680h234l136 680h240l-148 -746q82 66 196 66q107 0 176.5 -69.5t69.5 -172.5q0 -184 -228 -301t-572 -117
q-308 0 -524 94t-216 222q0 63 84 103.5t226 40.5q240 0 470 -100l-80 -120q-165 140 -400 140q-160 0 -160 -80q0 -81 161.5 -140.5t398.5 -59.5q272 0 454 81t182 199q0 52 -35 86t-91 34q-132 0 -154 -110l-22 -110h-240z" />
    <glyph glyph-name="tm_r_uukaar" horiz-adv-x="1748" 
d="M1016 0l136 680h-160l-136 -680h-120l160 800h644l-24 -120h-124l-44 -224q49 46 132 46q95 0 163.5 -92.5t68.5 -213.5q0 -282 -236.5 -469t-591.5 -187q-299 0 -509.5 198t-210.5 492q0 236 105 403t259 167q75 0 127.5 -52.5t52.5 -127.5q0 -110 -82.5 -185
t-197.5 -75q-70 0 -122 46q-32 -89 -32 -198q0 -216 171.5 -382t402.5 -166q287 0 458.5 143.5t171.5 376.5q0 80 -25 129t-65 49q-62 0 -76 -72l-56 -286h-240zM488 680q-45 0 -82.5 -46t-37.5 -94q0 -26 34 -26q43 0 85.5 35t42.5 77q0 54 -42 54z" />
    <glyph glyph-name="tm_rr_uukaar" horiz-adv-x="2150" 
d="M1448 -200h-448q-241 -260 -582 -260q-170 0 -297 93t-127 189q0 78 100 78h770q154 223 154 530q0 103 -36 176.5t-94 73.5q-98 0 -124 -130l-110 -550h-220l114 572q3 13 3 23q0 85 -79 85q-82 0 -104 -108l-114 -572h-120l120 600q48 240 240 240q140 0 184 -150
q83 150 252 150q141 0 231.5 -118t90.5 -286q0 -289 -172 -536h268l180 900h680l-24 -120h-130l-176 -880h-230l176 880h-200zM778 -200h-656q83 -150 276 -150q223 0 380 150z" />
    <glyph glyph-name="tm_l_uukaar" horiz-adv-x="2376" 
d="M490 146q35 0 56.5 31.5t21.5 72.5q0 72 -60 72q-35 0 -56.5 -31.5t-21.5 -72.5q0 -72 60 -72zM890 -200h-762q43 -84 136.5 -138t209.5 -54q275 0 416 192zM1692 -200h-588q-206 -302 -614 -302q-192 0 -341 109t-149 215q0 78 100 78h848q20 46 36 110
q-154 59 -154 222q0 58 14 134q14 77 14 122q0 86 -62 139t-176 53q-148 0 -249 -107t-101 -241q0 -119 64 -174q-20 46 -20 96q0 101 62.5 170.5t157.5 69.5q90 0 144 -63t54 -163q0 -114 -83.5 -196t-202.5 -82q-129 0 -213.5 96.5t-84.5 241.5q0 196 160 354t382 158
q176 0 285 -92t109 -232q0 -46 -14 -130t-14 -130q0 -110 116 -110q91 0 159.5 86.5t68.5 191.5q0 180 -150 276q-26 17 -26 50q0 48 32 93t80 45q80 0 137 -107t57 -251q0 -180 -93 -327.5t-235 -194.5q-21 -69 -40 -108h430l180 900h680l-24 -120h-130l-176 -880h-230
l176 880h-200z" />
    <glyph glyph-name="tm_ll_uukaar" horiz-adv-x="2510" 
d="M1112 154q35 0 56.5 31.5t21.5 72.5q0 72 -60 72q-35 0 -56.5 -31.5t-21.5 -72.5q0 -72 60 -72zM2366 800l-24 -120h-170l-44 -224q49 46 140 46q95 0 159.5 -80t64.5 -196q0 -308 -354.5 -518t-863.5 -210q-499 0 -804.5 212.5t-305.5 553.5q0 226 105.5 381t260.5 155
q75 0 126.5 -52.5t51.5 -127.5q0 -110 -81.5 -185t-196.5 -75q-70 0 -122 46q-24 -72 -24 -154q0 -266 257.5 -440t656.5 -174q468 0 765 159t297 429q0 56 -25.5 94t-62.5 38q-66 0 -80 -72l-56 -286h-230l136 680h-160l-136 -680h-230l54 266q10 49 10 88q0 116 -79.5 203
t-220.5 87q-125 0 -212.5 -90.5t-87.5 -215.5q0 -117 76 -180q-20 46 -20 104q0 101 63.5 170.5t160.5 69.5q96 0 155 -64.5t59 -165.5q0 -116 -84 -199t-204 -83q-143 0 -235.5 100t-92.5 248q0 192 135.5 327t338.5 135q137 0 243.5 -67.5t158.5 -186.5l52 254h680z
M404 514q43 0 85.5 35t42.5 77q0 54 -42 54q-45 0 -82.5 -46t-37.5 -94q0 -26 34 -26z" />
    <glyph glyph-name="tm_lll_uukaar" horiz-adv-x="1954" 
d="M1456 120h180q80 0 130 64t50 156q0 122 -53.5 212t-124.5 90q-39 0 -64 -29.5t-46 -132.5zM164 230q0 235 109 402.5t273 167.5q75 0 129.5 -53t54.5 -127q0 -110 -82.5 -185t-197.5 -75q-88 0 -136 62q-30 -73 -30 -178q0 -280 209 -481t498 -201q233 0 373 56.5
t140 145.5q0 56 -54 56q-59 0 -70 -80h-240l52 260h-476l160 800h240l-136 -680h236l84 416q53 264 284 264q143 0 247.5 -136.5t104.5 -321.5q0 -148 -85 -245t-219 -97h-200l-22 -106q36 18 86 18q71 0 119.5 -47.5t48.5 -118.5q0 -132 -174.5 -228t-463.5 -96
q-360 0 -611 239t-251 569zM510 680q-45 0 -82.5 -46t-37.5 -94q0 -26 34 -26q43 0 85.5 35t42.5 77q0 54 -42 54z" />
    <glyph glyph-name="tm_v_uukaar" horiz-adv-x="1758" 
d="M512 154q35 0 56.5 31.5t21.5 72.5q0 72 -60 72q-35 0 -56.5 -31.5t-21.5 -72.5q0 -72 60 -72zM1210 0h-452q158 158 158 348q0 137 -88.5 234.5t-223.5 97.5q-136 0 -230 -97.5t-94 -230.5q0 -121 76 -184q-20 46 -20 102q0 101 65.5 174.5t162.5 73.5q92 0 152 -67.5
t60 -166.5q0 -122 -84.5 -208t-205.5 -86q-141 0 -234.5 105.5t-93.5 256.5q0 202 142 345t348 143q208 0 349 -135.5t141 -330.5q0 -130 -62 -254h158l136 680h240l-148 -746q60 66 146 66q79 0 135 -73.5t57 -169.5q0 -182 -241.5 -299.5t-592.5 -117.5q-382 0 -594 96.5
t-212 205.5q0 69 91.5 115.5t236.5 46.5q244 0 572 -166l-120 -102q-84 72 -224 128t-244 56q-168 0 -168 -80q0 -67 167 -133.5t455 -66.5q297 0 484.5 92t187.5 214q0 96 -74 96q-81 0 -104 -112l-22 -110h-240z" />
    <glyph glyph-name="tm_k_ssa" horiz-adv-x="2222" 
d="M1034 158q48 0 48 68q0 72 -44 100q-46 -49 -46 -106q0 -62 42 -62zM596 340h-246q-106 0 -106 -80q0 -50 50 -85t110 -35q152 0 192 200zM620 460l44 220h-154l-44 -220h154zM1674 426l20 98q6 29 6 52q0 66 -44 66q-56 0 -56 -82q0 -97 74 -134zM1844 120h110l40 196
q-62 -20 -116 -26zM1706 800q216 0 216 -240q0 -43 -12 -106l-8 -42q174 33 342 188l-120 -600h-304l-92 -460h-230l92 460h-318q70 95 70 200q0 76 -45 132t-111 56q-5 0 -24 -2q66 -69 66 -164q0 -94 -54 -158t-138 -64q-73 0 -118.5 57.5t-45.5 142.5q0 73 34 140h-80
q-33 -161 -139.5 -250.5t-270.5 -89.5q-122 0 -217 71.5t-95 176.5q0 88 67.5 150t174.5 62l68 340h750l-24 -120h-246l-44 -220h158q93 70 208 70q123 0 207.5 -82.5t84.5 -193.5q0 -65 -32 -134h138l36 184q-172 63 -172 242q0 104 64 179t164 75z" />
    <glyph glyph-name="tm_k_ss_ikaar" horiz-adv-x="2488" 
d="M1034 158q48 0 48 68q0 72 -44 100q-46 -49 -46 -106q0 -62 42 -62zM620 460l44 220h-154l-44 -220h154zM596 340h-246q-106 0 -106 -80q0 -50 50 -85t110 -35q152 0 192 200zM1674 426l20 98q6 29 6 52q0 66 -44 66q-56 0 -56 -82q0 -97 74 -134zM1844 120h110l40 196
q-62 -20 -116 -26zM1818 774q104 -59 104 -214q0 -43 -12 -106l-8 -42q174 33 342 188l-120 -600h-304l-92 -460h-230l92 460h-318q70 95 70 200q0 76 -45 132t-111 56q-5 0 -24 -2q66 -69 66 -164q0 -94 -54 -158t-138 -64q-73 0 -118.5 57.5t-45.5 142.5q0 73 34 140h-80
q-33 -161 -139.5 -250.5t-270.5 -89.5q-122 0 -217 71.5t-95 176.5q0 88 67.5 150t174.5 62l68 340h750l-24 -120h-246l-44 -220h158q93 70 208 70q123 0 207.5 -82.5t84.5 -193.5q0 -65 -32 -134h138l36 184q-172 63 -172 242q0 108 62.5 181t167.5 73q-22 75 -22 160
q0 151 106.5 265.5t267.5 114.5q199 0 328.5 -147t129.5 -347q0 -94 -26 -226l-122 -620h-120l122 620q20 102 20 178q0 134 -98 237t-236 103q-117 0 -188.5 -71t-71.5 -171q0 -62 20 -122z" />
    <glyph glyph-name="tm_k_ss_iikaar" horiz-adv-x="2222" 
d="M1034 158q48 0 48 68q0 72 -44 100q-46 -49 -46 -106q0 -62 42 -62zM620 460l44 220h-154l-44 -220h154zM596 340h-246q-106 0 -106 -80q0 -50 50 -85t110 -35q152 0 192 200zM1674 426l20 98q6 29 6 52q0 66 -44 66q-56 0 -56 -82q0 -97 74 -134zM1844 120h110l40 196
q-62 -20 -116 -26zM1812 776q110 -55 110 -216q0 -43 -12 -106l-8 -42q174 33 342 188l-120 -600h-304l-92 -460h-230l92 460h-318q70 95 70 200q0 76 -45 132t-111 56q-5 0 -24 -2q66 -69 66 -164q0 -94 -54 -158t-138 -64q-73 0 -118.5 57.5t-45.5 142.5q0 73 34 140h-80
q-33 -161 -139.5 -250.5t-270.5 -89.5q-122 0 -217 71.5t-95 176.5q0 88 67.5 150t174.5 62l68 340h750l-24 -120h-246l-44 -220h158q93 70 208 70q123 0 207.5 -82.5t84.5 -193.5q0 -65 -32 -134h138l36 184q-172 63 -172 242q0 90 45 159.5t121 88.5q-72 101 -72 216
q0 129 102.5 229.5t239.5 100.5q136 0 225 -73t89 -183q0 -87 -61 -144.5t-151 -57.5q-78 0 -134 55t-56 135q0 90 64 148q-81 0 -139.5 -66t-58.5 -154q0 -73 30 -133.5t90 -90.5zM2004 1180q-54 0 -54 -68q0 -62 50 -62q54 0 54 68q0 62 -50 62z" />
    <glyph glyph-name="tm_nn_aakaar" horiz-adv-x="2606" 
d="M814 154q33 0 54.5 31.5t21.5 72.5q0 72 -58 72q-33 0 -53.5 -31.5t-20.5 -72.5q0 -72 56 -72zM1304 154q38 0 61 38.5t23 87.5q0 138 -84 246q-76 -113 -76 -262q0 -110 76 -110zM1846 154q38 0 61 38.5t23 87.5q0 145 -74 256q-86 -129 -86 -272q0 -110 76 -110z
M2290 320q0 147 -67 253.5t-163 106.5q-47 0 -98 -34q148 -158 148 -368q0 -130 -67.5 -209t-180.5 -79q-95 0 -153.5 75.5t-58.5 188.5q0 199 132 364q-79 62 -194 62q-99 0 -174 -46q154 -154 154 -356q0 -130 -67.5 -209t-180.5 -79q-95 0 -153.5 75.5t-58.5 188.5
q0 197 116 350q-106 76 -254 76q-171 0 -273.5 -99t-102.5 -243q0 -115 68 -180q-20 46 -20 104q0 99 60.5 169.5t147.5 70.5q82 0 134 -64.5t52 -165.5q0 -115 -71 -198.5t-175 -83.5q-137 0 -227.5 100.5t-90.5 247.5q0 191 149.5 326.5t378.5 135.5q183 0 326 -94
q125 94 288 94q152 0 270 -84q111 84 246 84q167 0 279.5 -138.5t112.5 -341.5q0 -360 -354.5 -591t-887.5 -231q-492 0 -802 227t-310 573q0 292 224 502l90 -60q-194 -184 -194 -434q0 -275 264 -471.5t652 -196.5q488 0 787 183.5t299 498.5z" />
    <glyph glyph-name="tm_nnn_aakaar" horiz-adv-x="2072" 
d="M392 800l90 -60q-194 -184 -194 -434q0 -293 195.5 -480.5t516.5 -187.5q383 0 610.5 188.5t227.5 511.5q0 128 -76.5 235t-179.5 107q-65 0 -122 -34q184 -159 184 -368q0 -128 -75 -208t-193 -80q-94 0 -153 77.5t-59 190.5q0 196 106 346q-111 76 -256 76
q-176 0 -291 -102.5t-115 -239.5q0 -115 78 -180q-20 46 -20 104q0 99 60.5 169.5t147.5 70.5q82 0 134 -64.5t52 -165.5q0 -115 -71 -198.5t-175 -83.5q-143 0 -235.5 100t-92.5 248q0 191 160.5 326.5t397.5 135.5q175 0 326 -90q116 90 258 90q172 0 292 -142t120 -334
q0 -350 -285.5 -588t-692.5 -238q-408 0 -651 221.5t-243 578.5q0 292 224 502zM1350 530q-66 -112 -66 -262q0 -114 74 -114q38 0 62 38.5t24 87.5q0 139 -94 250zM856 330q-33 0 -53.5 -31.5t-20.5 -72.5q0 -72 56 -72q33 0 54.5 31.5t21.5 72.5q0 72 -58 72z" />
    <glyph glyph-name="tm_rr_aakaar" horiz-adv-x="1696" 
d="M1488 840q108 0 180 -63t72 -149q0 -93 -65 -166l-103 -99q-46 -44 -65 -93.5t-19 -103.5v-132q0 -192 -225.5 -364t-478.5 -172q-302 0 -476 187t-174 469q0 221 120 392.5t332 253.5l44 -84q-171 -65 -273.5 -202.5t-102.5 -305.5q0 -222 170 -392t422 -170
q196 0 303 73t107 209v152q0 111 66 182l104 94q45 41 63.5 88.5t18.5 101.5q0 58 -35 96t-93 38q-118 0 -148 -150l-106 -530h-240l110 554q4 18 4 33q0 93 -80 93q-88 0 -110 -108l-114 -572h-120l120 600q22 109 92.5 174.5t165.5 65.5q180 0 240 -150q111 150 294 150z
" />
    <glyph glyph-name="tm_s_r_iikaar" horiz-adv-x="2186" 
d="M2124 1220q-82 0 -138 -56t-56 -142q0 -92 58.5 -157t145.5 -65h186l-24 -120h-146l-90 -452q-72 -360 -408 -574t-772 -214q-336 0 -558 94t-222 226q0 81 109.5 130.5t300.5 49.5q265 0 512 -166l-90 -62q-179 128 -422 128q-124 0 -197 -28.5t-73 -71.5
q0 -84 171 -142t429 -58q381 0 654 186.5t338 511.5l88 442h-178q-90 0 -168 -36q158 -154 158 -344q0 -128 -76.5 -219t-195.5 -91q-104 0 -167 84t-63 210q0 207 150 362q-50 34 -110 34q-114 0 -150 -180l-100 -500h-880l160 800h240l-136 -680h400l80 404
q55 276 346 276q121 0 244 -78q123 78 270 78h158q-92 90 -92 228q0 129 98 220.5t240 91.5q136 0 225 -73t89 -183q0 -87 -61 -144.5t-151 -57.5q-78 0 -134 55t-56 135q0 90 64 148zM2212 1180q-54 0 -54 -68q0 -62 50 -62q54 0 54 68q0 62 -50 62zM1458 562
q-108 -112 -108 -262q0 -146 90 -146q37 0 64.5 44t27.5 102q0 148 -74 262z" />
    <glyph glyph-name="tm_year_sign.original" horiz-adv-x="2792" 
d="M738 154q33 0 54.5 31.5t21.5 72.5q0 72 -58 72q-33 0 -53.5 -31.5t-20.5 -72.5q0 -72 56 -72zM2104 800l-24 -120h-170l-44 -224q49 46 120 46q83 0 142.5 -86t59.5 -200q0 -191 -108.5 -352.5t-334.5 -252.5t-541 -91q-458 0 -736 236t-278 624q0 390 301 625t805 235
q520 0 816 -155.5t296 -410.5q0 -75 -23 -216t-23 -208q0 -150 108 -150q90 0 142 113.5t52 246.5q0 80 -36.5 135t-89.5 55q-33 0 -56.5 32.5t-23.5 77.5q0 33 30 56.5t76 23.5q91 0 153.5 -93t62.5 -227q0 -225 -96.5 -377.5t-237.5 -152.5q-93 0 -148.5 67.5t-55.5 182.5
q0 67 23 205t23 215q0 220 -264.5 350t-727.5 130q-449 0 -717.5 -210.5t-268.5 -549.5q0 -338 244.5 -549t649.5 -211q350 0 556 152t206 420q0 166 -68 166q-52 0 -66 -68l-58 -290h-220l136 680h-154l-136 -680h-472q150 150 150 348q0 145 -73.5 238.5t-200.5 93.5
q-121 0 -203.5 -102t-82.5 -240q0 -115 68 -180q-20 46 -20 104q0 98 58.5 169t141.5 71t138.5 -65t55.5 -165q0 -115 -72 -198.5t-178 -83.5q-138 0 -226 105t-88 265q0 199 131.5 339.5t324.5 140.5q187 0 310.5 -130t123.5 -320q0 -146 -62 -270h84l136 680h660z" />
    <glyph glyph-name="tm_Om" unicode="&#xbd0;" horiz-adv-x="1506" 
d="M458 154q35 0 56.5 31.5t21.5 72.5q0 72 -60 72q-35 0 -56.5 -31.5t-21.5 -72.5q0 -72 60 -72zM1042 -112q-190 67 -190 272q0 118 88.5 199t211.5 81q-20 -66 -20 -140q0 -140 70 -140t70 140q0 168 -142 274t-352 106q-229 0 -378.5 -105.5t-149.5 -252.5
q0 -108 54 -162q-22 50 -22 102q0 101 63.5 170.5t160.5 69.5q96 0 155 -64.5t59 -165.5q0 -116 -84 -199t-204 -83q-128 0 -215 87t-87 223q0 211 197 355.5t493 144.5q264 0 468 -149.5t204 -370.5q0 -112 -69 -195t-173 -83q-96 0 -158 79t-62 187q0 7 2 30
q-74 -43 -74 -134q0 -112 91 -178t223 -66h100l-24 -120h-116q-66 0 -135 -37.5t-215 -202.5q-141 -160 -460 -160q-148 0 -249 74t-101 166q0 28 10 76l30 144h120l-30 -150h160l28 138q24 118 144 118q73 0 132.5 -56t59.5 -136q0 -59 -41 -99.5t-107 -40.5h-360
q49 -74 206 -74q218 0 318 96q2 2 78.5 83.5t118 108t103.5 40.5zM482 -290h108q72 0 72 70q0 41 -27.5 77.5t-62.5 36.5q-52 0 -66 -66zM744 -26q-78 0 -78 62t78 62t78 -62t-78 -62z" />
    <glyph glyph-name="tm_ra_halant.alt" horiz-adv-x="926" 
d="M1060 800l-24 -120h-200l-136 -680h-240l136 680h-200l-136 -680h-120l160 800h760zM700 960q-62 0 -106 44t-44 106q0 63 44 106.5t106 43.5t106 -43.5t44 -106.5q0 -62 -43.5 -106t-106.5 -44z" />
    <glyph glyph-name="tm_ka_halant" horiz-adv-x="1226" 
d="M592 340h-246q-106 0 -106 -80q0 -50 50 -85t110 -35q152 0 192 200zM832 340q-32 -159 -143 -249.5t-277 -90.5q-122 0 -217 71.5t-95 176.5q0 88 67.5 150t174.5 62l68 340h760l-24 -120h-246l-44 -220h38q146 0 236 -63t90 -163q0 -97 -79 -165.5t-197 -68.5
q-46 0 -90 10l18 88h32q116 0 116 114q0 58 -51 93t-129 35h-8zM660 680h-154l-44 -220h154zM992 960q-62 0 -106 44t-44 106q0 63 44 106.5t106 43.5t106 -43.5t44 -106.5q0 -62 -43.5 -106t-106.5 -44z" />
    <glyph glyph-name="tm_nga_halant" horiz-adv-x="1460" 
d="M1326 0h-926l24 120h278q75 0 105.5 64t30.5 130q0 86 -62 86q-52 0 -70 -80l-26 -120h-240l96 480h-140l-136 -680h-120l160 800h780l-24 -120h-276l-36 -180q58 42 126 42q81 0 133.5 -60t52.5 -148q0 -110 -96 -214h150l136 680h240zM1108 960q-62 0 -106 44t-44 106
q0 63 44 106.5t106 43.5t106 -43.5t44 -106.5q0 -62 -43.5 -106t-106.5 -44z" />
    <glyph glyph-name="tm_ca_halant" horiz-adv-x="1052" 
d="M592 340h-246q-106 0 -106 -80q0 -50 50 -85t110 -35q152 0 192 200zM1078 340h-246q-32 -159 -143 -249.5t-277 -90.5q-122 0 -217 71.5t-95 176.5q0 88 67.5 150t174.5 62l68 340h760l-24 -120h-246l-44 -220h246zM660 680h-154l-44 -220h154zM904 960q-62 0 -106 44
t-44 106q0 63 44 106.5t106 43.5t106 -43.5t44 -106.5q0 -62 -43.5 -106t-106.5 -44z" />
    <glyph glyph-name="tm_nya_halant" horiz-adv-x="1878" 
d="M818 154q35 0 56.5 31.5t21.5 72.5q0 72 -60 72q-35 0 -56.5 -31.5t-21.5 -72.5q0 -72 60 -72zM1194 0l136 680h-338q-176 0 -291 -102.5t-115 -239.5q0 -117 76 -180q-20 46 -20 104q0 101 65 170.5t163 69.5q95 0 152.5 -64t57.5 -166q0 -116 -84 -199t-204 -83
q-143 0 -235.5 100t-92.5 248q0 192 160 327t398 135h742l-24 -120h-170l-44 -224q49 46 126 46q90 0 146 -73t56 -189q0 -300 -253.5 -500t-590.5 -200q-371 0 -606.5 194.5t-235.5 517.5q0 147 62 297.5t162 250.5l90 -60q-194 -204 -194 -480q0 -262 190.5 -421
t483.5 -159q294 0 476 152t182 408q0 118 -60 118q-55 0 -68 -64l-58 -294h-240zM1316 960q-62 0 -106 44t-44 106q0 63 44 106.5t106 43.5t106 -43.5t44 -106.5q0 -62 -43.5 -106t-106.5 -44z" />
    <glyph glyph-name="tm_tta_halant" horiz-adv-x="1482" 
d="M1456 0h-1316l160 800h240l-136 -680h1076zM1118 960q-62 0 -106 44t-44 106q0 63 44 106.5t106 43.5t106 -43.5t44 -106.5q0 -62 -43.5 -106t-106.5 -44z" />
    <glyph glyph-name="tm_nna_halant" horiz-adv-x="2256" 
d="M502 154q35 0 56.5 31.5t21.5 72.5q0 72 -60 72q-35 0 -56.5 -31.5t-21.5 -72.5q0 -72 60 -72zM1022 154q38 0 61 38.5t23 87.5q0 129 -82 236q-78 -113 -78 -252q0 -110 76 -110zM1564 154q38 0 61 38.5t23 87.5q0 139 -66 246q-94 -117 -94 -262q0 -110 76 -110z
M2378 800l-20 -120h-128l-136 -680h-230l136 680h-102q-101 0 -192 -50q142 -156 142 -352q0 -126 -74 -207t-190 -81q-96 0 -156 76.5t-60 187.5q0 201 140 358q-82 68 -192 68q-90 0 -174 -52q164 -154 164 -350q0 -126 -74 -207t-190 -81q-96 0 -156 76.5t-60 187.5
q0 190 118 342q-113 84 -268 84q-176 0 -291 -102.5t-115 -239.5q0 -117 76 -180q-20 46 -20 104q0 101 63.5 170.5t160.5 69.5q96 0 155 -64.5t59 -165.5q0 -116 -84 -199t-204 -83q-143 0 -235.5 100t-92.5 248q0 191 160.5 326.5t397.5 135.5q188 0 344 -100
q134 100 292 100q148 0 276 -92q139 92 300 92h460zM1506 960q-62 0 -106 44t-44 106q0 63 44 106.5t106 43.5t106 -43.5t44 -106.5q0 -62 -43.5 -106t-106.5 -44z" />
    <glyph glyph-name="tm_ta_halant" horiz-adv-x="1206" 
d="M592 340h-246q-106 0 -106 -80q0 -50 50 -85t110 -35q152 0 192 200zM616 460l44 220h-154l-44 -220h154zM410 800h720l-24 -120h-206l-44 -220h10q146 0 231 -70.5t85 -189.5q0 -181 -174.5 -290.5t-461.5 -109.5h-217q-94 0 -129 -44q62 -31 62 -100q0 -51 -34.5 -83.5
t-89.5 -32.5q-50 0 -83 39t-33 93q0 95 89.5 161.5t233.5 66.5h191q219 0 321.5 84t102.5 224q0 61 -35.5 96.5t-92.5 35.5q-32 -159 -143 -249.5t-277 -90.5q-122 0 -217 71.5t-95 176.5q0 88 67.5 150t174.5 62zM980 960q-62 0 -106 44t-44 106q0 63 44 106.5t106 43.5
t106 -43.5t44 -106.5q0 -62 -43.5 -106t-106.5 -44z" />
    <glyph glyph-name="tm_na_halant" horiz-adv-x="1102" 
d="M1020 800l-24 -120h-200l-44 -224q58 46 122 46q88 0 147 -75t59 -187q0 -108 -40.5 -191t-124 -142.5t-184 -83t-267.5 -23.5h-76q-93 0 -128 -44q62 -31 62 -100q0 -51 -34.5 -83.5t-89.5 -32.5q-50 0 -83 39t-33 93q0 95 90.5 161.5t237.5 66.5h50q98 0 158 8.5
t113 47t83 108.5t30 166q0 128 -64 128q-49 0 -64 -74l-56 -284h-240l136 680h-160l-136 -680h-120l160 800h720zM928 960q-62 0 -106 44t-44 106q0 63 44 106.5t106 43.5t106 -43.5t44 -106.5q0 -62 -43.5 -106t-106.5 -44z" />
    <glyph glyph-name="tm_pa_halant" horiz-adv-x="1320" 
d="M1100 800h240l-160 -800h-1040l160 800h240l-136 -680h560zM1038 960q-62 0 -106 44t-44 106q0 63 44 106.5t106 43.5t106 -43.5t44 -106.5q0 -62 -43.5 -106t-106.5 -44z" />
    <glyph glyph-name="tm_ma_halant" horiz-adv-x="1372" 
d="M880 120h180q80 0 130 64t50 156q0 122 -53.5 212t-124.5 90q-39 0 -64 -29.5t-46 -132.5zM1008 800q143 0 247.5 -136.5t104.5 -321.5q0 -148 -85 -245t-219 -97h-916l160 800h240l-136 -680h236l84 416q53 264 284 264zM1064 960q-62 0 -106 44t-44 106q0 63 44 106.5
t106 43.5t106 -43.5t44 -106.5q0 -62 -43.5 -106t-106.5 -44z" />
    <glyph glyph-name="tm_ya_halant" horiz-adv-x="1368" 
d="M1150 800h230l-160 -800h-540q-98 0 -110 90q-90 -90 -212 -90q-170 0 -170 194q0 44 8 84l104 522h230l-104 -518q-4 -20 -4 -34q0 -68 68 -68q76 0 96 102l104 518h230l-140 -680h234zM1064 960q-62 0 -106 44t-44 106q0 63 44 106.5t106 43.5t106 -43.5t44 -106.5
q0 -62 -43.5 -106t-106.5 -44z" />
    <glyph glyph-name="tm_ra_halant" horiz-adv-x="906" 
d="M74 -184l426 184l136 680h-240l-136 -680h-120l160 800h740l-24 -120h-140l-136 -680l-634 -260zM830 960q-62 0 -106 44t-44 106q0 63 44 106.5t106 43.5t106 -43.5t44 -106.5q0 -62 -43.5 -106t-106.5 -44z" />
    <glyph glyph-name="tm_la_halant" horiz-adv-x="1464" 
d="M490 146q35 0 56.5 31.5t21.5 72.5q0 72 -60 72q-35 0 -56.5 -31.5t-21.5 -72.5q0 -72 60 -72zM1530 530q0 -217 -128 -378.5t-306 -161.5q-114 0 -190 67t-76 175q0 57 14 134t14 122q0 86 -62 139t-176 53q-148 0 -249 -107t-101 -241q0 -119 64 -174q-20 46 -20 96
q0 101 62.5 170.5t157.5 69.5q90 0 144 -63t54 -163q0 -114 -83.5 -196t-202.5 -82q-129 0 -213.5 96.5t-84.5 241.5q0 196 160 354t382 158q176 0 285 -92t109 -232q0 -46 -14 -130t-14 -130q0 -110 116 -110q91 0 159.5 86.5t68.5 191.5q0 180 -150 276q-26 17 -26 50
q0 48 32 93t80 45q80 0 137 -107t57 -251zM1150 960q-62 0 -106 44t-44 106q0 63 44 106.5t106 43.5t106 -43.5t44 -106.5q0 -62 -43.5 -106t-106.5 -44z" />
    <glyph glyph-name="tm_va_halant" horiz-adv-x="1650" 
d="M512 154q35 0 56.5 31.5t21.5 72.5q0 72 -60 72q-35 0 -56.5 -31.5t-21.5 -72.5q0 -72 60 -72zM1430 800h240l-160 -800h-752q158 158 158 348q0 137 -88.5 234.5t-223.5 97.5q-136 0 -230 -97.5t-94 -230.5q0 -121 76 -184q-20 46 -20 102q0 101 65.5 174.5t162.5 73.5
q92 0 152 -67.5t60 -166.5q0 -122 -84.5 -208t-205.5 -86q-141 0 -234.5 105.5t-93.5 256.5q0 202 142 345t348 143q208 0 349 -135.5t141 -330.5q0 -130 -62 -254h224zM1202 960q-62 0 -106 44t-44 106q0 63 44 106.5t106 43.5t106 -43.5t44 -106.5q0 -62 -43.5 -106
t-106.5 -44z" />
    <glyph glyph-name="tm_llla_halant" horiz-adv-x="1396" 
d="M890 120h190q80 0 130 64t50 156q0 122 -53.5 212t-124.5 90q-87 0 -120 -162zM1028 800q143 0 247.5 -136.5t104.5 -321.5q0 -148 -85 -245t-219 -97h-210q-3 -18 -3 -32q0 -68 73 -68h160l-40 -120h-174q-55 0 -89 -19.5t-87 -120.5q-105 -200 -364 -200
q-121 0 -213.5 68t-92.5 172q0 89 66.5 154.5t161.5 65.5q76 0 124 -35.5t48 -84.5q0 -43 -26 -71.5t-68 -28.5q-38 0 -75 42t-69 42q-30 0 -51 -21t-21 -53q0 -53 55.5 -90.5t138.5 -37.5q162 0 236 158q53 113 130 140q-54 33 -54 99q0 19 4 41h-496l160 800h240
l-136 -680h256l84 416q53 264 284 264zM1076 960q-62 0 -106 44t-44 106q0 63 44 106.5t106 43.5t106 -43.5t44 -106.5q0 -62 -43.5 -106t-106.5 -44z" />
    <glyph glyph-name="tm_lla_halant" horiz-adv-x="1638" 
d="M502 154q35 0 56.5 31.5t21.5 72.5q0 72 -60 72q-35 0 -56.5 -31.5t-21.5 -72.5q0 -72 60 -72zM1776 800l-24 -120h-186l-136 -680h-240l136 680h-154l-136 -680h-230l54 266q10 49 10 88q0 116 -79.5 203t-220.5 87q-125 0 -212.5 -90.5t-87.5 -215.5q0 -117 76 -180
q-20 46 -20 104q0 101 63.5 170.5t160.5 69.5q96 0 155 -64.5t59 -165.5q0 -116 -84 -199t-204 -83q-143 0 -235.5 100t-92.5 248q0 197 134 329.5t340 132.5q137 0 244 -67.5t159 -185.5l51 253h700zM1196 960q-62 0 -106 44t-44 106q0 63 44 106.5t106 43.5t106 -43.5
t44 -106.5q0 -62 -43.5 -106t-106.5 -44z" />
    <glyph glyph-name="tm_rra_halant" horiz-adv-x="1274" 
d="M930 840q141 0 231.5 -116.5t90.5 -283.5q0 -270 -163.5 -455t-434.5 -185h-214q-93 0 -128 -44q62 -31 62 -100q0 -51 -34.5 -83.5t-89.5 -32.5q-50 0 -83 39t-33 93q0 95 90.5 161.5t237.5 66.5h192q182 0 273 142t91 394q0 98 -36 171t-94 73q-98 0 -124 -130
l-110 -550h-220l114 571q3 13 3 23q0 86 -79 86q-82 0 -104 -109l-114 -571h-120l120 600q48 240 240 240q140 0 184 -150q83 150 252 150zM1014 960q-62 0 -106 44t-44 106q0 63 44 106.5t106 43.5t106 -43.5t44 -106.5q0 -62 -43.5 -106t-106.5 -44z" />
    <glyph glyph-name="tm_nnna_halant" horiz-adv-x="1748" 
d="M502 154q35 0 56.5 31.5t21.5 72.5q0 72 -60 72q-35 0 -56.5 -31.5t-21.5 -72.5q0 -72 60 -72zM1022 154q38 0 61 38.5t23 87.5q0 122 -80 228q-80 -110 -80 -244q0 -110 76 -110zM1356 680q-112 0 -208 -58q158 -154 158 -344q0 -126 -74 -207t-190 -81q-96 0 -156 76.5
t-60 187.5q0 186 120 336q-117 90 -270 90q-176 0 -291 -102.5t-115 -239.5q0 -117 76 -180q-20 46 -20 104q0 101 63.5 170.5t160.5 69.5q96 0 155 -64.5t59 -165.5q0 -116 -84 -199t-204 -83q-143 0 -235.5 100t-92.5 248q0 192 159 327t399 135q194 0 352 -104
q144 104 318 104h490l-20 -120h-124l-136 -680h-240l136 680h-126zM1252 960q-62 0 -106 44t-44 106q0 63 44 106.5t106 43.5t106 -43.5t44 -106.5q0 -62 -43.5 -106t-106.5 -44z" />
    <glyph glyph-name="tm_sa_halant" horiz-adv-x="1930" 
d="M502 154q35 0 56.5 31.5t21.5 72.5q0 72 -60 72q-35 0 -56.5 -31.5t-21.5 -72.5q0 -72 60 -72zM1934 530q0 -218 -128 -379t-306 -161q-118 0 -190 72t-72 192q0 67 27 171q27 103 27 145q0 74 -54 74q-72 0 -105 -162l-97 -482h-230l54 266q10 49 10 88q0 116 -79.5 203
t-220.5 87q-125 0 -212.5 -90.5t-87.5 -215.5q0 -117 76 -180q-20 46 -20 104q0 101 63.5 170.5t160.5 69.5q96 0 155 -64.5t59 -165.5q0 -116 -84 -199t-204 -83q-143 0 -235.5 100t-92.5 248q0 197 134 329.5t340 132.5q137 0 243.5 -67.5t158.5 -186.5q76 254 286 254
q92 0 151 -63.5t59 -158.5q0 -47 -27 -152t-27 -156q0 -124 114 -124q86 0 155 88t69 186q0 184 -150 280q-26 17 -26 50q0 48 32 93t80 45q80 0 137 -107t57 -251zM1342 960q-62 0 -106 44t-44 106q0 63 44 106.5t106 43.5t106 -43.5t44 -106.5q0 -62 -43.5 -106
t-106.5 -44z" />
    <glyph glyph-name="tm_ha_halant" horiz-adv-x="2360" 
d="M512 154q35 0 56.5 31.5t21.5 72.5q0 72 -60 72q-35 0 -56.5 -31.5t-21.5 -72.5q0 -72 60 -72zM2024 840q141 0 231.5 -116.5t90.5 -283.5q0 -270 -164.5 -455t-433.5 -185h-1266q-93 0 -128 -44q62 -31 62 -100q0 -51 -34.5 -83.5t-89.5 -32.5q-50 0 -83 39t-33 93
q0 95 90.5 161.5t237.5 66.5h1244q182 0 273 142t91 394q0 98 -36 171t-94 73q-98 0 -124 -130l-110 -550h-220l114 572q3 13 3 23q0 85 -79 85q-82 0 -104 -108l-114 -572h-590q158 158 158 348q0 137 -88.5 234.5t-223.5 97.5q-136 0 -230 -97.5t-94 -230.5
q0 -121 76 -184q-20 46 -20 102q0 101 65.5 174.5t162.5 73.5q92 0 152 -67.5t60 -166.5q0 -122 -84.5 -208t-205.5 -86q-141 0 -234.5 105.5t-93.5 256.5q0 202 142 345t348 143q208 0 349 -135.5t141 -330.5q0 -130 -62 -254h176l96 480q48 240 240 240q140 0 184 -150
q83 150 252 150zM1558 960q-62 0 -106 44t-44 106q0 63 44 106.5t106 43.5t106 -43.5t44 -106.5q0 -62 -43.5 -106t-106.5 -44z" />
    <glyph glyph-name="tm_ssa_halant" horiz-adv-x="1954" 
d="M1972 600l-120 -600h-314l-92 -460h-240l92 460h-540q158 158 158 348q0 137 -88.5 234.5t-223.5 97.5q-136 0 -230 -97.5t-94 -230.5q0 -121 76 -184q-20 46 -20 102q0 101 65.5 174.5t162.5 73.5q92 0 152 -67.5t60 -166.5q0 -122 -84.5 -208t-205.5 -86
q-141 0 -234.5 105.5t-93.5 256.5q0 202 142 345t348 143q208 0 349 -135.5t141 -330.5q0 -130 -62 -254h246l36 184q-172 63 -172 242q0 104 64 179t164 75q105 0 165.5 -64t60.5 -176q0 -43 -12 -106l-8 -42q187 35 352 188zM1402 524q6 29 6 52q0 66 -44 66
q-56 0 -56 -82q0 -97 74 -134zM530 330q-35 0 -56.5 -31.5t-21.5 -72.5q0 -72 60 -72q35 0 56.5 31.5t21.5 72.5q0 72 -60 72zM1712 316q-62 -20 -116 -26l-34 -170h110zM1354 960q-62 0 -106 44t-44 106q0 63 44 106.5t106 43.5t106 -43.5t44 -106.5q0 -62 -43.5 -106
t-106.5 -44z" />
    <glyph glyph-name="tm_ja_halant" horiz-adv-x="1470" 
d="M512 360q42 0 42 62q0 58 -42 58t-42 -62q0 -58 42 -58zM1216 840q113 0 184.5 -110t71.5 -270q0 -196 -128.5 -328t-343.5 -132h-500q-130 0 -209 -61.5t-79 -158.5q0 -72 52.5 -116t135.5 -44q73 0 142 32t169 129t172 128t149 31q111 0 185.5 -64t74.5 -156
q0 -102 -81 -171t-199 -69q-92 0 -200 40l20 100q74 -20 140 -20q68 0 114 33.5t46 86.5q0 45 -34 72.5t-86 27.5q-68 0 -135.5 -40t-175 -146.5t-189.5 -140t-164 -33.5q-143 0 -249.5 84.5t-106.5 215.5q0 166 126.5 263t351.5 97h486q124 0 200 101t76 247
q0 93 -27 152.5t-73 59.5q-59 0 -80 -120l-60 -340h-226q46 127 46 230q0 112 -80 191t-198 79q-111 0 -186.5 -69.5t-75.5 -176.5q0 -142 120 -164q-60 56 -60 130q0 75 56 127.5t134 52.5q77 0 130.5 -50t53.5 -126q0 -104 -76.5 -169t-191.5 -65q-112 0 -189 78t-77 192
q0 141 112.5 250.5t281.5 109.5q246 0 374 -206q72 206 276 206zM1112 960q-62 0 -106 44t-44 106q0 63 44 106.5t106 43.5t106 -43.5t44 -106.5q0 -62 -43.5 -106t-106.5 -44z" />
    <glyph glyph-name="tm_k_ssa_halant" horiz-adv-x="2222" 
d="M1034 158q48 0 48 68q0 72 -44 100q-46 -49 -46 -106q0 -62 42 -62zM596 340h-246q-106 0 -106 -80q0 -50 50 -85t110 -35q152 0 192 200zM620 460l44 220h-154l-44 -220h154zM1674 426l20 98q6 29 6 52q0 66 -44 66q-56 0 -56 -82q0 -97 74 -134zM1844 120h110l40 196
q-62 -20 -116 -26zM1706 800q216 0 216 -240q0 -43 -12 -106l-8 -42q174 33 342 188l-120 -600h-304l-92 -460h-230l92 460h-318q70 95 70 200q0 76 -45 132t-111 56q-5 0 -24 -2q66 -69 66 -164q0 -94 -54 -158t-138 -64q-73 0 -118.5 57.5t-45.5 142.5q0 73 34 140h-80
q-33 -161 -139.5 -250.5t-270.5 -89.5q-122 0 -217 71.5t-95 176.5q0 88 67.5 150t174.5 62l68 340h750l-24 -120h-246l-44 -220h158q93 70 208 70q123 0 207.5 -82.5t84.5 -193.5q0 -65 -32 -134h138l36 184q-172 63 -172 242q0 104 64 179t164 75zM1488 960q-62 0 -106 44
t-44 106q0 63 44 106.5t106 43.5t106 -43.5t44 -106.5q0 -62 -43.5 -106t-106.5 -44z" />
    <glyph glyph-name="degree" unicode="&#xb0;" horiz-adv-x="659" 
d="M423 1114q116 0 197.5 -81t81.5 -197t-81.5 -197.5t-197.5 -81.5q-115 0 -196.5 81.5t-81.5 197.5t81.5 197t196.5 81zM423 1009q-72 0 -122.5 -50.5t-50.5 -122.5q0 -71 51 -122t122 -51q72 0 123 51t51 122q0 72 -51 122.5t-123 50.5z" />
    <glyph glyph-name="section" unicode="&#xa7;" 
d="M299 690q-24 38 -36.5 74t-12.5 70q0 116 88.5 199.5t233.5 83.5q136 0 218.5 -72.5t82.5 -161.5q0 -40 -26 -67.5t-65 -27.5q-40 0 -64.5 25t-24.5 70q0 21 4 42q7 35 7 48q0 33 -31 60t-93 27q-79 0 -126 -44t-47 -101q0 -52 29 -98t138 -133.5t154 -169.5
q34 -62 34 -132q0 -93 -52 -173t-159 -154q22 -42 33 -78t11 -66q0 -103 -91 -185t-233 -82q-130 0 -212 70t-82 152q0 44 27 71.5t65 27.5q37 0 62 -26t25 -69q0 -20 -5 -41q-8 -37 -8 -50q0 -31 31.5 -57t91.5 -26q79 0 125.5 41.5t46.5 98.5q0 54 -27 99
q-29 45 -135.5 129.5t-151.5 165.5q-33 61 -33 129q0 97 52.5 179t155.5 152zM324 654q-98 -86 -98 -177q0 -54 29 -104t133 -143q69 -61 135 -133q59 49 83 90.5t24 88.5q0 58 -31.5 110t-146.5 146q-72 60 -128 122z" />
    <glyph glyph-name="bullet" unicode="&#x2022;" horiz-adv-x="577" 
d="M311 774q96 0 162.5 -67.5t66.5 -162.5t-67 -162.5t-162 -67.5q-96 0 -163 67t-67 163q0 95 66.5 162.5t163.5 67.5z" />
    <glyph glyph-name="paragraph" unicode="&#xb6;" 
d="M481 1030v-1386h-80v701q-150 7 -243 50.5t-141.5 132.5t-48.5 199q0 82 20 135.5t64 102t90 75.5t105 37q77 15 259 15h354v-36h-36q-47 0 -71 -14.5t-37 -41.5q-8 -20 -8 -107v-1249h-80v1386h-147z" />
    <glyph glyph-name="logicalnot" unicode="&#xac;" horiz-adv-x="999" 
d="M59 726h880v-366h-103v265l-777 -2v103z" />
    <glyph glyph-name="currency" unicode="&#xa4;" 
d="M659 827l111 108l72 -70l-113 -112q70 -99 70 -210q0 -108 -70 -213l104 -103l-74 -73l-105 104q-64 -41 -109.5 -55t-101.5 -14q-60 0 -107 15.5t-105 53.5l-107 -104l-71 73l106 103q-71 94 -71 210q0 57 17.5 113t53.5 100l-110 108l75 74l107 -108q100 72 210 72
q108 0 218 -72zM443 795q-105 0 -178.5 -74t-73.5 -178t74 -178t178 -74t178 74t74 178t-74 178t-178 74z" />
    <glyph glyph-name="uni00B7" unicode="&#xb7;" horiz-adv-x="412" 
d="M258 681q54 0 93 -39t39 -94t-39 -93.5t-93 -38.5q-56 0 -94.5 38.5t-38.5 93.5t38.5 94t94.5 39z" />
    <glyph glyph-name="periodcentered" unicode="&#x2219;" horiz-adv-x="717" 
d="M616 532q0 -79 -55 -133.5t-134 -54.5q-78 0 -133 55t-55 133q0 79 54.5 134t133.5 55t134 -55t55 -134z" />
    <glyph glyph-name="tm_anusvar" unicode="&#xb82;" horiz-adv-x="0" 
d="M-170 1000q-58 0 -99 41t-41 99t41 99t99 41t99 -41t41 -99t-41 -99t-99 -41zM-170 1230q-37 0 -63.5 -26t-26.5 -64q0 -37 26.5 -63.5t63.5 -26.5t63.5 26.5t26.5 63.5q0 38 -26 64t-64 26z" />
    <glyph glyph-name="tm_sha" unicode="&#xbb6;" horiz-adv-x="1860" 
d="M746 800h1147l-90 -452q-18 -91 -51 -156.5t-85 -108t-124 -63t-167 -20.5q-64 0 -117.5 15.5t-92.5 46t-60.5 74.5t-21.5 101q0 23 3.5 55t8.5 58l66 330h-200l-66 -332q-18 -91 -51 -156.5t-85 -108t-124 -63t-167 -20.5q-64 0 -117.5 15.5t-92.5 46t-60.5 74.5
t-21.5 101q0 23 3.5 55t8.5 58l91 450h240l-104 -520q-3 -15 -5.5 -34t-2.5 -33q0 -45 22 -69t64 -24q34 0 58.5 12.5t43.5 40t33 72t27 107.5zM1315 213q0 -45 22 -69t64 -24q34 0 58.5 12.5t43.5 40t33 72t27 107.5l66 328h-226l-80 -400q-3 -15 -5.5 -34t-2.5 -33z" />
    <glyph glyph-name="tm_sha_halant" horiz-adv-x="1860" 
d="M746 800h1147l-90 -452q-18 -91 -51 -156.5t-85 -108t-124 -63t-167 -20.5q-64 0 -117.5 15.5t-92.5 46t-60.5 74.5t-21.5 101q0 23 3.5 55t8.5 58l66 330h-200l-66 -332q-18 -91 -51 -156.5t-85 -108t-124 -63t-167 -20.5q-64 0 -117.5 15.5t-92.5 46t-60.5 74.5
t-21.5 101q0 23 3.5 55t8.5 58l91 450h240l-104 -520q-3 -15 -5.5 -34t-2.5 -33q0 -45 22 -69t64 -24q34 0 58.5 12.5t43.5 40t33 72t27 107.5zM1315 213q0 -45 22 -69t64 -24q34 0 58.5 12.5t43.5 40t33 72t27 107.5l66 328h-226l-80 -400q-3 -15 -5.5 -34t-2.5 -33z
M1000 960q-62 0 -106 44t-44 106q0 63 44 106.5t106 43.5t106 -43.5t44 -106.5q0 -62 -43.5 -106t-106.5 -44z" />
    <glyph glyph-name="tm_sh_ikaar" horiz-adv-x="2241" 
d="M746 800h783q-64 88 -64 198q0 66 28 128t76.5 109.5t115 76t144.5 28.5q98 0 181 -40.5t143 -108.5t94 -157.5t34 -187.5q0 -48 -6.5 -104t-19.5 -122l-122 -620h-120l122 620q10 51 15 95.5t5 82.5q0 68 -24.5 130t-68 108.5t-104 74t-131.5 27.5q-52 0 -95 -17
t-74.5 -46t-49 -67.5t-17.5 -81.5q0 -69 48 -126h254l-90 -452q-18 -91 -51 -156.5t-85 -108t-124 -63t-167 -20.5q-64 0 -117.5 15.5t-92.5 46t-60.5 74.5t-21.5 101q0 23 3.5 55t8.5 58l66 330h-200l-66 -332q-18 -91 -51 -156.5t-85 -108t-124 -63t-167 -20.5
q-64 0 -117.5 15.5t-92.5 46t-60.5 74.5t-21.5 101q0 23 3.5 55t8.5 58l91 450h240l-104 -520q-3 -15 -5.5 -34t-2.5 -33q0 -45 22 -69t64 -24q34 0 58.5 12.5t43.5 40t33 72t27 107.5zM1315 213q0 -45 22 -69t64 -24q34 0 58.5 12.5t43.5 40t33 72t27 107.5l66 328h-226
l-80 -400q-3 -15 -5.5 -34t-2.5 -33z" />
    <glyph glyph-name="tm_sh_iikaar" horiz-adv-x="1860" 
d="M746 800h763q-140 101 -140 234q0 64 24.5 117t67.5 90.5t102.5 58t129.5 20.5q68 0 125.5 -19.5t99.5 -54t65.5 -81t23.5 -101.5q0 -43 -16 -80t-44.5 -64t-67.5 -42.5t-84 -15.5q-39 0 -73.5 15t-60.5 40.5t-41 60.5t-15 74q0 90 64 148q-34 0 -63 -13t-50.5 -35.5
t-34 -53.5t-12.5 -68q0 -129 158 -230h226l-90 -452q-18 -91 -51 -156.5t-85 -108t-124 -63t-167 -20.5q-64 0 -117.5 15.5t-92.5 46t-60.5 74.5t-21.5 101q0 23 3.5 55t8.5 58l66 330h-200l-66 -332q-18 -91 -51 -156.5t-85 -108t-124 -63t-167 -20.5q-64 0 -117.5 15.5
t-92.5 46t-60.5 74.5t-21.5 101q0 23 3.5 55t8.5 58l91 450h240l-104 -520q-3 -15 -5.5 -34t-2.5 -33q0 -45 22 -69t64 -24q34 0 58.5 12.5t43.5 40t33 72t27 107.5zM1315 213q0 -45 22 -69t64 -24q34 0 58.5 12.5t43.5 40t33 72t27 107.5l66 328h-226l-80 -400
q-3 -15 -5.5 -34t-2.5 -33zM1783 1160q-54 0 -54 -68q0 -62 50 -62q54 0 54 68q0 62 -50 62z" />
    <glyph glyph-name="tm_digit_zero" unicode="&#xbe6;" horiz-adv-x="860" 
d="M410 0q-76 0 -134 20.5t-98 57.5t-60.5 87t-20.5 108q0 98 33 193t95.5 169t153 119.5t205.5 45.5q75 0 134.5 -19t101.5 -53.5t64.5 -83t22.5 -107.5q0 -68 -15 -134t-44 -125.5t-71.5 -110.5t-98 -88t-123 -58t-145.5 -21zM527 680q-46 0 -85 -18t-71 -48.5t-56 -70
t-40 -83t-24.5 -87t-8.5 -81.5q0 -83 42.5 -127.5t117.5 -44.5q71 0 122.5 39.5t85.5 98.5t50.5 127.5t16.5 126.5q0 37 -9 67.5t-28 53t-47 35t-66 12.5z" />
    <glyph glyph-name="tm_day_sign" unicode="&#xbf3;" horiz-adv-x="1549" 
d="M512 154q18 0 32 8.5t24.5 23t16 33t5.5 39.5q0 72 -60 72q-18 0 -32 -8.5t-24.5 -23t-16 -33t-5.5 -39.5q0 -72 60 -72zM1535 120l-25 -120h-752q158 158 158 348q0 67 -23.5 127.5t-65.5 106t-99 72t-124 26.5t-126.5 -26.5t-103 -71.5t-69 -104.5t-25.5 -125.5
q0 -121 76 -184q-20 48 -20 102q0 50 17.5 95t48 79t72.5 54t90 20q46 0 84.5 -18.5t67 -50t44.5 -74t16 -91.5q0 -60 -22.5 -113.5t-62 -93.5t-92.5 -63.5t-113 -23.5q-70 0 -130.5 28.5t-104 78t-68.5 115t-25 140.5q0 101 38.5 189.5t104.5 155t155.5 105t191.5 38.5
q103 0 192.5 -36.5t155.5 -99.5t104 -148t38 -182q0 -128 -62 -254h459z" />
    <glyph glyph-name="tm_month_sign" unicode="&#xbf4;" horiz-adv-x="1851" 
d="M831 1030q0 59 19.5 108.5t54 85.5t81.5 56t103 20q20 0 39.5 -1.5t36.5 -5.5q31 17 67.5 27t79.5 10q61 0 108 -22.5t79.5 -59.5t49.5 -85.5t17 -99.5q0 -70 -16 -133.5t-48 -129.5h230l-15 -120h-358v80q33 51 60 121.5t27 160.5q0 39 -9.5 71.5t-26.5 56t-40.5 36.5
t-51.5 13h-13q60 -63 60 -155q0 -37 -12.5 -70.5t-34.5 -59t-53 -40t-67 -14.5q-39 0 -70 14.5t-52.5 39t-33 57t-11.5 69.5q0 69 32 128q-53 -9 -82.5 -52t-29.5 -106q0 -76 45 -141.5t144 -124.5q48 -27 88 -70.5t69.5 -99t46 -120t16.5 -132.5q0 -73 -22.5 -136
t-63 -108.5t-96 -71.5t-122.5 -26h-916l160 800h240l-136 -680h236l84 416q47 231 230 260q-56 45 -89.5 106.5t-33.5 127.5zM880 120h180q41 0 74 17.5t56.5 47.5t36.5 70t13 85q0 59 -14.5 113.5t-38.5 96.5t-56.5 67t-68.5 25q-19 0 -34.5 -5t-28.5 -22t-24.5 -49
t-22.5 -86zM1151 1060q0 -27 12.5 -43.5t34.5 -16.5q25 0 36 18t11 46q0 35 -16.5 60t-42.5 41q-18 -22 -26.5 -49t-8.5 -56z" />
    <glyph glyph-name="tm_year_sign" unicode="&#xbf5;" horiz-adv-x="2702" 
d="M760 154q18 0 32 8.5t24.5 23t16 33t5.5 39.5q0 72 -60 72q-18 0 -32 -8.5t-24.5 -23t-16 -33t-5.5 -39.5q0 -72 60 -72zM1303 1140q-148 0 -279.5 -26t-242 -74.5t-198.5 -118t-149.5 -156t-94 -188t-32.5 -214.5q0 -161 58.5 -297.5t164.5 -235.5t254.5 -154.5
t329.5 -55.5q173 0 314 43t240.5 119.5t153.5 181t54 228.5q0 166 -68 166q-52 0 -66 -68l-58 -290h-220l136 680h-170l-136 -680h-230l54 266q10 47 10 88q0 57 -20.5 109t-59 92.5t-94 64.5t-126.5 24q-61 0 -116 -24.5t-95.5 -66t-64.5 -97t-24 -118.5q0 -117 76 -180
q-20 48 -20 104q0 51 17 94.5t47 76t71 51t89 18.5t87.5 -17t67.5 -48t43.5 -73t15.5 -92q0 -58 -22.5 -109t-61.5 -89.5t-91.5 -61t-112.5 -22.5q-71 0 -131 26.5t-104 73.5t-68.5 110.5t-24.5 137.5q0 96 36.5 180t100 147t150.5 99t187 36q137 0 244 -68t159 -185l51 253
h680l-24 -120h-170l-44 -224q49 46 120 46q42 0 78.5 -24t64 -63.5t43.5 -91t16 -107.5q0 -124 -38 -224t-105.5 -177.5t-160 -133t-202 -91.5t-231.5 -53t-247 -17q-208 0 -379 62t-293 173.5t-188.5 266.5t-66.5 341q0 142 41 262.5t114.5 218t176.5 171.5t227 124
t265 75.5t292 25.5q423 0 719 -155.5t296 -410.5q0 -75 -23 -216t-23 -208q0 -150 108 -150q90 0 142 113.5t52 246.5q0 80 -36.5 135t-89.5 55q-33 0 -56.5 32.5t-23.5 77.5q0 33 30 56.5t76 23.5q91 0 153.5 -93t62.5 -227q0 -225 -96.5 -377.5t-237.5 -152.5
q-93 0 -148.5 67.5t-55.5 182.5q0 67 23 205t23 215q0 220 -264.5 350t-630.5 130z" />
    <glyph glyph-name="tm_debit_sign" unicode="&#xbf6;" horiz-adv-x="1798" 
d="M140 0l160 800h240l-136 -680h560l136 680h240l-152 -758q-8 -40 -24.5 -80.5t-32.5 -61.5h275l178 900h230l-200 -1000h-558q-242 -260 -582 -260q-169 0 -297 93q-127 93 -127 189q0 78 100 78h748q5 7 11 19t11.5 26t10.5 28.5t8 26.5h-799zM834 -200h-656
q83 -150 276 -150q223 0 380 150z" />
    <glyph glyph-name="tm_credit_sign" unicode="&#xbf7;" horiz-adv-x="2110" 
d="M936 0l136 680h-398q-176 0 -291 -102.5t-115 -239.5q0 -117 76 -180q-20 46 -20 104q0 101 65 170.5t163 69.5q95 0 152.5 -64t57.5 -166q0 -116 -84 -199t-204 -83q-143 0 -235.5 100t-92.5 248q0 191 160.5 326.5t397.5 135.5h832l-24 -120h-200l-44 -220h220
q93 70 208 70q123 0 207.5 -82.5t84.5 -193.5q0 -65 -32 -134h156l-24 -120h-336q70 95 70 200q0 76 -45 132t-111 56q-5 0 -24 -2q66 -69 66 -164q0 -94 -54 -158t-138 -64q-73 0 -118.5 57.5t-45.5 142.5q0 73 34 140h-142l-68 -340h-240zM500 154q35 0 56.5 31.5
t21.5 72.5q0 72 -60 72q-35 0 -56.5 -31.5t-21.5 -72.5q0 -72 60 -72zM1514 158q48 0 48 68q0 72 -44 100q-46 -49 -46 -106q0 -62 42 -62z" />
    <glyph glyph-name="tm_as_above_sign" unicode="&#xbf8;" horiz-adv-x="2640" 
d="M1305 0q-80 0 -119 51.5t-39 139.5q0 80 29.5 146t79.5 115t118 80t144 41q-4 130 -49 233t-121.5 175t-181 110.5t-229.5 38.5q-79 0 -156.5 -18t-147 -52.5t-129.5 -84t-103.5 -113.5t-68 -141.5t-24.5 -166.5q0 -86 26.5 -161.5t70.5 -134t101 -95.5t118 -45
q-26 43 -39 94t-13 102q0 66 21 122.5t58.5 97t90 63.5t115.5 23q58 0 106 -20t83 -56t54.5 -85.5t19.5 -108.5q0 -84 -35 -150.5t-92 -113t-130.5 -71.5t-150.5 -25q-116 0 -213 49t-167 130.5t-109 187t-39 219.5q0 105 27 199.5t76 175t118 145t152.5 110t179.5 70
t200 24.5q160 0 293.5 -51t229.5 -146t150 -230.5t54 -303.5q52 -12 99.5 -38.5t83.5 -67t57.5 -93.5t21.5 -116q0 -32 -8 -68t-22 -66h136l36 184q-172 63 -172 242q0 105 64 179q65 75 164 75q216 0 216 -240q0 -43 -12 -106l-8 -42q173 33 342 188l-120 -600h-304
l-92 -460h-230l92 460h-318q35 48 52.5 105t17.5 110q0 71 -31 122t-79 79q-18 -98 -57 -175.5t-87.5 -131t-101 -81.5t-99.5 -28zM730 116q39 4 74.5 21.5t63.5 44t44.5 60.5t16.5 72q0 54 -28 89t-77 35q-32 0 -57 -13.5t-42 -36t-26 -52t-9 -60.5q0 -48 11.5 -91
t28.5 -69zM1253 198q0 -35 15.5 -56.5t43.5 -21.5q20 0 50 16t60.5 53.5t56 99.5t35.5 155q-72 -4 -121.5 -29t-80.5 -61t-45 -77t-14 -79zM2262 120h110l40 196q-64 -20 -116 -26zM2092 426l20 98q6 29 6 52q0 66 -44 66q-56 0 -56 -82q0 -96 74 -134z" />
    <glyph glyph-name="tm_rupee_sign" unicode="&#xbf9;" horiz-adv-x="1657" 
d="M1044 1005q-116 0 -215.5 -32.5t-180.5 -89t-144 -134.5t-105.5 -169.5t-64.5 -192t-22 -203.5q0 -232 126 -377q128 -147 340 -147q229 0 361 142q133 140 133 378q0 81 -25 129.5t-65 48.5q-62 0 -76 -72l-56 -286h-240l136 680h-160l-136 -680h-120l160 800h644
l-24 -120h-124l-44 -224q49 46 132 46q95 0 156 -91q62 -92 62 -215q0 -276 -205 -466q-203 -190 -489 -190q-273 0 -440 179q-166 178 -166 461q0 127 28 246.5t81 225t130.5 193t176 150.5t217 98t254.5 35q87 0 172 -14t162 -42t142.5 -68t113.5 -92t75 -115t27 -137
q0 -49 -14 -90t-39 -70.5t-60 -45.5t-77 -16q-39 0 -76 14.5t-66.5 44t-47 73t-17.5 100.5q0 21 5 49t15 58.5t26.5 60t38.5 53.5q-27 18 -66 38.5t-90.5 37t-116 27.5t-142.5 11zM1533 829q-29 -32 -41.5 -74.5t-10.5 -87.5q0 -15 4.5 -29t11.5 -25t17.5 -18t22.5 -7
q17 0 28.5 8.5t18 21.5t9 30t2.5 33q0 35 -15 77t-47 71z" />
    <glyph glyph-name="tm_number_sign" unicode="&#xbfa;" horiz-adv-x="1925" 
d="M811 27q17 47 28.5 97t11.5 109q0 66 -23 95.5t-58 29.5q-50 0 -64 -68l-58 -290h-230l136 680h-158l-136 -680h-120l160 800h658q-29 36 -50 90.5t-21 120.5q0 56 20 98.5t54.5 71.5t82 44t102.5 15q80 0 143.5 -31t110 -84t74.5 -123t36 -147q53 -7 98 -27t77 -52
t50 -76t18 -98q0 -57 -16 -107.5t-38 -83.5h209l-19 -120h-333v80q34 45 55.5 98.5t21.5 123.5q0 54 -31.5 94.5t-90.5 54.5q-4 -72 -19.5 -150t-46.5 -143t-79 -107t-117 -42q-41 0 -74 16.5t-56.5 45t-36 67.5t-12.5 83q0 62 23.5 118.5t65.5 102.5t100 77.5t127 42.5
q-8 55 -27 105t-49.5 88.5t-72 61t-94.5 22.5q-70 0 -103 -38t-33 -97q0 -28 7.5 -55.5t19.5 -52.5t26.5 -47t28.5 -40l-24 -120h-281l-44 -224q25 23 62.5 34.5t78.5 11.5q51 0 87.5 -21t60 -55.5t34 -77.5t10.5 -87q0 -40 -9 -81t-24 -78.5t-33.5 -69t-37.5 -52.5z
M1190 502q0 -46 19 -68.5t45 -22.5q25 0 44.5 16.5t34.5 44t25.5 62.5t18 71.5t11 72.5t4.5 64q-46 -9 -83.5 -30.5t-63.5 -53t-40.5 -71t-14.5 -85.5z" />
    <glyph glyph-name="dotlessi" unicode="&#x131;" horiz-adv-x="458" 
d="M423 746l-165 -572q-13 -49 -13 -65q0 -8 7 -16t15 -8q14 0 28 12q36 30 87 108l27 -16q-122 -212 -258 -212q-53 0 -84 29.5t-31 74.5q0 30 14 76l112 385q16 55 16 83q0 18 -15.5 32t-41.5 14q-12 0 -29 -1l10 32l273 44h48z" />
    <glyph glyph-name="caron" unicode="&#x2c7;" horiz-adv-x="549" 
d="M690 1117l-213 -277h-211l-86 277h96l114 -166l197 166h103z" />
    <glyph glyph-name="ring" unicode="&#x2da;" horiz-adv-x="549" 
d="M438 1148q70 0 118.5 -49t48.5 -119q0 -69 -48.5 -118t-118.5 -49q-69 0 -118.5 49t-49.5 118q0 70 49 119t119 49zM438 1088q-44 0 -75.5 -31.5t-31.5 -76.5q0 -44 31.5 -75.5t75.5 -31.5q45 0 76.5 31.5t31.5 75.5q0 45 -31.5 76.5t-76.5 31.5z" />
    <glyph glyph-name="A" unicode="A" horiz-adv-x="1100" 
d="M668 352h-338l-68 -84l-77 -93q-22 -29 -33 -53q-8 -19 -8 -37q0 -20 20.5 -36.5t68.5 -18.5v-30h-326l8 30q43 7 77 30q45 33 130 133l773 924h36l-36 -894q-2 -70 -2 -85q0 -54 22 -79t74 -29l-9 -30h-472l9 30q70 6 80 11q23 11 41.5 47t22.5 125zM668 418l21 356
l-303 -356h282z" />
    <glyph glyph-name="B" unicode="B" horiz-adv-x="1100" 
d="M255 1092h432q144 0 206 -16q81 -19 125.5 -75t44.5 -127q0 -58 -35 -118t-105.5 -99.5t-216.5 -72.5q151 -42 210 -109t59 -155q0 -83 -58 -164t-154 -118.5t-351 -37.5h-454l11 30q66 0 94.5 12t45.5 37.5t41 105.5l195 672q29 102 29 136q0 29 -23.5 47.5t-103.5 21.5
zM502 609q110 2 173 35t101.5 108.5t38.5 141.5q0 63 -39.5 102.5t-105.5 37.5l-45 -1zM483 549l-139 -485q40 -2 60 -2q180 0 250 100t70 215q0 54 -27 96.5t-70 59t-144 16.5z" />
    <glyph glyph-name="C" unicode="C" horiz-adv-x="1100" 
d="M1188 1117l-80 -347h-32q-5 141 -69 211t-167 70q-111 0 -221.5 -95t-187.5 -291q-62 -159 -62 -313q0 -139 68.5 -211.5t186.5 -72.5q96 0 174.5 41.5t159.5 136.5h39q-100 -150 -202 -210.5t-249 -60.5q-197 0 -317.5 119.5t-120.5 312.5q0 180 95.5 343.5t275.5 265
t358 101.5q68 0 168 -29q52 -15 72 -15q40 0 81 44h30z" />
    <glyph glyph-name="D" unicode="D" horiz-adv-x="1191" 
d="M-60 0l10 30q79 0 119.5 32.5t67.5 121.5l198 689q19 67 19 111q0 37 -22.5 54.5t-114.5 23.5l9 30h374q295 0 426 -120t131 -335q0 -152 -61 -255q-118 -202 -280.5 -292t-417.5 -90h-458zM622 1027l-240 -827q-17 -58 -17 -82q0 -23 19 -37q24 -18 72 -18q113 0 202 71
q115 91 175 244.5t60 304.5q0 110 -34.5 191.5t-107.5 123.5q-51 29 -129 29z" />
    <glyph glyph-name="E" unicode="E" horiz-adv-x="1100" 
d="M623 1031l-121 -423h37q146 0 213 38.5t114 136.5h30l-122 -425h-29q8 43 8 69q0 45 -26.5 73t-68.5 40q-27 8 -113 8h-63l-104 -366q-14 -48 -14 -72q0 -18 18 -29q25 -17 97 -17q138 0 259.5 58.5t217.5 176.5h33l-113 -299h-934l10 30q82 0 119.5 31t68.5 136l205 703
q17 59 17 93q0 30 -21.5 46.5t-98.5 22.5l8 30h871l-70 -273h-29q-4 80 -25 113q-34 52 -90 75.5t-182 23.5h-102z" />
    <glyph glyph-name="F" unicode="F" horiz-adv-x="1100" 
d="M675 1030l-121 -412q123 2 160 10q60 12 109.5 51t82.5 108h31l-125 -430h-32q8 41 8 66q0 50 -20.5 80t-52.5 41t-177 14l-98 -341l-20 -68q-4 -20 -4 -40q0 -28 11 -44t35 -25t92 -10l-9 -30h-545l9 30q79 0 115 29.5t65 128.5l195 668q31 105 32 135q-1 28 -25.5 48
t-99.5 23l8 30h892l-73 -289h-30q-4 91 -27.5 134.5t-77 68t-171.5 24.5h-137z" />
    <glyph glyph-name="G" unicode="G" horiz-adv-x="1191" 
d="M1232 1117l-76 -351h-31q-6 153 -68.5 220.5t-175.5 67.5q-115 0 -231 -82t-198 -252t-82 -358q0 -161 72.5 -246t170.5 -85q41 0 99 24l84 288q21 72 21 95q0 30 -25.5 50.5t-87.5 20.5l8 30h471l-7 -30q-42 -3 -65.5 -16t-37.5 -39q-8 -15 -25 -79l-99 -336
q-169 -64 -356 -64q-144 0 -245 52.5t-167.5 166t-66.5 258.5q0 309 275 509q215 156 488 156q47 0 87 -5q30 -4 105 -23q48 -12 66 -12q35 0 67 40h30z" />
    <glyph glyph-name="H" unicode="H" horiz-adv-x="1282" 
d="M490 589h400l88 305q18 63 18 96q0 32 -22 49t-105 23l9 30h543l-9 -30q-80 0 -121 -34t-70 -134l-203 -698q-20 -69 -20 -99q0 -29 22 -45q28 -21 102 -22l-8 -30h-532l12 30q77 0 114 30t67 136l94 325h-397l-94 -325q-20 -67 -20 -99q0 -29 24.5 -47.5t97.5 -19.5
l-8 -30h-525l9 30q77 0 113 30t66 136l203 698q18 61 18 95q0 33 -21.5 50t-101.5 23l9 30h533l-12 -30q-74 0 -112 -32t-69 -136z" />
    <glyph glyph-name="I" unicode="I" horiz-adv-x="642" 
d="M228 1062l9 30h533l-11 -30q-72 0 -110.5 -32.5t-67.5 -134.5l-199 -699q-22 -74 -22 -99q0 -29 22 -45q29 -21 110 -22l-8 -30h-542l9 30q81 0 119 31t68 135l202 699q18 65 18 98q0 29 -22.5 46t-107.5 23z" />
    <glyph glyph-name="J" unicode="J" 
d="M440 1062l9 30h536l-9 -30q-74 0 -114.5 -33.5t-67.5 -128.5l-117 -409q-64 -221 -111.5 -309.5t-136 -147.5t-224.5 -59q-110 0 -164 46.5t-54 116.5q0 59 36.5 98t83.5 39q42 0 70.5 -26.5t28.5 -64.5q0 -36 -35 -77q-20 -26 -20 -41q0 -13 11 -22q19 -14 44 -14
q47 0 87 61t117 321l143 488q19 64 19 93t-23 46t-109 23z" />
    <glyph glyph-name="K" unicode="K" horiz-adv-x="1100" 
d="M1011 0h-472l8 30q47 4 69.5 27t22.5 57q0 36 -25 115l-116 370l-115 -397q-19 -67 -19 -97q0 -33 26.5 -53.5t95.5 -21.5l-9 -30h-530l9 30q63 1 94.5 16.5t50 47.5t44.5 123l183 635q32 110 32 140q0 27 -25.5 47t-96.5 23l9 30h514l-9 -30q-52 0 -79 -15
q-36 -21 -59 -62q-15 -26 -42 -123l-74 -261l284 261q83 77 93 92q13 20 13 43q0 24 -17.5 41.5t-59.5 23.5l8 30h412l-9 -30q-48 -4 -77 -14q-40 -13 -90.5 -44t-102.5 -73l-75 -69l-173 -155l128 -403q63 -199 97.5 -235t90.5 -39z" />
    <glyph glyph-name="L" unicode="L" horiz-adv-x="1007" 
d="M819 0h-872l9 30q78 0 113.5 30t66.5 136l203 701q17 58 17 91q0 32 -24 51.5t-95 22.5l9 30h524l-9 -30q-76 -2 -113.5 -34t-66.5 -131l-185 -642q-35 -122 -35 -149q0 -16 18 -30t58 -14q134 0 258 61t211 183h33z" />
    <glyph glyph-name="M" unicode="M" horiz-adv-x="1466" 
d="M624 1092l80 -751l520 751h382l-10 -30q-79 0 -120 -34t-70 -134l-201 -698q-19 -66 -19 -99q0 -29 24 -47.5t95 -19.5l-7 -30h-545l9 30q88 0 130 33.5t71 132.5l205 707l-625 -903h-33l-98 921l-208 -725q-13 -45 -13 -74q0 -41 27.5 -65.5t94.5 -26.5l-8 -30h-361
l8 30q65 2 100 27q61 45 88 139l236 806q-34 37 -61 48.5t-90 11.5l9 30h390z" />
    <glyph glyph-name="N" unicode="N" horiz-adv-x="1191" 
d="M588 1092l341 -728l154 528q12 43 12 77q0 40 -25.5 64.5t-87.5 28.5l9 30h346l-8 -30q-66 -4 -109 -37t-73 -133l-266 -904h-31l-438 931l-212 -726q-10 -38 -10 -67q0 -44 28.5 -70t91.5 -26l-7 -30h-356l7 30q46 0 65 8q34 13 66.5 49.5t52.5 105.5l231 793
q-43 48 -72 61.5t-87 14.5l9 30h369z" />
    <glyph glyph-name="O" unicode="O" horiz-adv-x="1191" 
d="M464 -26q-132 0 -213.5 54t-122 147.5t-40.5 181.5q0 179 102 360.5t275.5 290.5t342.5 109q99 0 188 -49.5t138.5 -139t49.5 -180.5q0 -204 -129.5 -409t-291.5 -296q-122 -69 -299 -69zM782 1051q-64 0 -108.5 -23t-93 -76.5t-98.5 -154t-93.5 -272.5t-43.5 -288
q0 -98 42.5 -148t109.5 -50q88 0 150 58q123 117 201 343t78 402q0 110 -41.5 159.5t-102.5 49.5z" />
    <glyph glyph-name="P" unicode="P" horiz-adv-x="1007" 
d="M468 502l-89 -305q-18 -64 -18 -91q0 -37 24 -56t109 -20l-10 -30h-533l9 30q67 1 95.5 13.5t46.5 40.5q14 18 41 113l202 693q21 70 21 99q0 30 -26.5 50.5t-96.5 22.5l9 30h432q178 0 256 -45q121 -71 121 -213q0 -137 -120.5 -241t-323.5 -104q-62 0 -149 13zM484 564
q52 -7 87 -7q111 0 174.5 101.5t63.5 211.5q0 75 -41 116.5t-114 41.5q-15 0 -37 -2z" />
    <glyph glyph-name="Q" unicode="Q" horiz-adv-x="1191" 
d="M493 -25l-142 -129q80 16 130 16q70 0 197.5 -33.5t200.5 -33.5q81 0 149 29q43 17 88 60l24 -22q-81 -99 -191.5 -152t-277.5 -53q-95 0 -220.5 27t-199.5 27q-59 0 -125 -18l-16 20l297 262q-104 18 -160 56q-76 52 -117.5 141.5t-41.5 184.5q0 179 102.5 360.5
t275 290.5t342.5 109q98 0 187.5 -49.5t138.5 -139t49 -186.5q0 -144 -70 -295.5t-189.5 -264.5t-240.5 -163q-82 -35 -190 -44zM782 1051q-64 0 -108.5 -23t-93 -76.5t-98.5 -154t-93.5 -272.5t-43.5 -288q0 -98 42.5 -148t109.5 -50q88 0 150 58q123 117 201 343t78 402
q0 110 -41.5 159.5t-102.5 49.5z" />
    <glyph glyph-name="R" unicode="R" horiz-adv-x="1100" 
d="M473 533l-96 -331q-21 -70 -21 -103q0 -31 25 -49.5t104 -19.5l-12 -30h-525l9 30q79 0 115.5 30.5t67.5 136.5l203 701q17 58 17 92q0 32 -21 49t-97 23l8 30h452q194 0 273 -68t79 -174q0 -112 -92 -202q-58 -56 -205 -97l98 -331q39 -133 68.5 -160.5t98.5 -29.5v-30
h-340l-155 533l-26 -2q-9 0 -28 2zM485 581q28 -1 47 -1q118 0 193.5 80.5t75.5 210.5q0 77 -40.5 117.5t-106.5 40.5q-16 0 -37 -1z" />
    <glyph glyph-name="S" unicode="S" horiz-adv-x="917" 
d="M962 1117l-91 -371h-27q-8 87 -31 140q-34 75 -90 116t-121 41q-63 0 -110 -48t-47 -108q0 -59 32.5 -117t154.5 -173q97 -93 130.5 -160t33.5 -145q0 -88 -46.5 -162t-135.5 -114.5t-202 -40.5q-69 0 -174 20.5t-140 20.5q-27 0 -49 -8.5t-54 -32.5h-31l97 416h31
q10 -109 44 -186t96.5 -120t143.5 -43q80 0 133.5 52.5t53.5 123.5q0 61 -30.5 116.5t-138 161.5t-148.5 190q-29 62 -29 132q0 121 95.5 210t250.5 89q70 0 184 -32q67 -18 94 -18q24 0 42.5 10t43.5 40h35z" />
    <glyph glyph-name="T" unicode="T" horiz-adv-x="1007" 
d="M264 1092h878l-83 -294h-29q2 23 2 41q0 84 -49 130t-166 53l-243 -822q-20 -69 -20 -102q0 -30 25 -48.5t101 -19.5l-7 -30h-542l10 30q83 0 120.5 31t69.5 139l243 822q-126 -4 -210.5 -55t-154.5 -169h-31z" />
    <glyph glyph-name="U" unicode="U" horiz-adv-x="1191" 
d="M964 1092h369l-7 -30q-64 -5 -98 -31q-56 -41 -83 -135l-145 -501q-68 -234 -184 -327t-294 -93q-102 0 -179 29t-113.5 65t-55.5 90t-19 90q0 57 32 169l138 478q19 64 19 96q0 30 -23 47t-107 23l9 30h544l-9 -30q-79 0 -120.5 -34t-69.5 -132l-140 -478
q-34 -120 -34 -193q0 -66 53 -115t148 -49q87 0 147.5 32t101.5 89q53 76 95 219l142 495q12 43 12 71q0 50 -35 76q-25 19 -103 19z" />
    <glyph glyph-name="V" unicode="V" horiz-adv-x="1100" 
d="M258 -25l35 913q2 80 2 84q0 44 -21 65t-78 25l9 30h459l-9 -30q-58 0 -88.5 -35.5t-35.5 -146.5l-25 -569l425 494q83 96 102.5 133t19.5 64q0 20 -17.5 36t-67.5 24l11 30h301v-30q-39 -10 -63 -28q-35 -27 -109 -113l-815 -946h-35z" />
    <glyph glyph-name="W" unicode="W" horiz-adv-x="1466" 
d="M215 -25l74 934q3 41 3 67q0 43 -19.5 63t-69.5 23l12 30h441l-9 -30h-22q-43 0 -70 -28.5t-33 -106.5l-42 -554l329 450l8 104q3 32 3 51q0 40 -21 60.5t-70 23.5l8 30h444l-9 -30q-59 0 -87 -28.5t-34 -106.5l-42 -554l317 436q81 112 100 152q14 28 14 47q0 18 -18 33
t-70 21l8 30h292l-7 -30q-40 -7 -66 -28q-36 -28 -94 -107l-693 -952h-47l55 737l-537 -737h-48z" />
    <glyph glyph-name="X" unicode="X" horiz-adv-x="1100" 
d="M496 505l-170 396q-45 104 -73 129.5t-87 31.5v30h482l-9 -30q-51 -4 -68.5 -20t-17.5 -43q0 -31 28 -98l97 -229l134 123q113 103 144 153q19 30 19 54q0 22 -20 39.5t-63 20.5l10 30h356l-7 -30q-40 -7 -74 -29q-54 -35 -180 -151l-294 -269l165 -384
q57 -132 85.5 -160t84.5 -39l-8 -30h-483l9 30q51 1 74.5 20.5t23.5 48.5q0 39 -45 143l-89 205l-201 -188q-96 -88 -111.5 -115t-15.5 -51q0 -25 22.5 -43.5t73.5 -19.5l-9 -30h-379l8 30q43 8 73 26q75 45 185 147z" />
    <glyph glyph-name="Y" unicode="Y" horiz-adv-x="1007" 
d="M436 482l-91 398q-24 103 -57 141q-25 29 -91 41l9 30h524l-10 -30q-76 0 -111 -31t-35 -74q0 -26 14 -92l71 -323l177 243q67 93 84 131.5t17 67.5t-21.5 50.5t-70.5 27.5l9 30h328v-30q-45 -5 -77 -29t-125 -153l-310 -427l-73 -253q-23 -78 -23 -91q0 -34 26.5 -56.5
t89.5 -22.5h30l-8 -30h-559l8 30q61 -1 98 16.5t56 44.5q13 19 38 103z" />
    <glyph glyph-name="Z" unicode="Z" horiz-adv-x="1007" 
d="M1119 1062l-835 -1002h65q196 0 314.5 57.5t218.5 190.5h34l-114 -308h-847v30l834 999h-102q-197 0 -292 -49t-162 -165h-33l94 277h825v-30z" />
    <glyph glyph-name="a" unicode="a" 
d="M790 735l-156 -535l-17 -66q-2 -12 -2 -17q0 -10 7 -17t14 -7q17 0 47 25q12 11 58 74l28 -14q-57 -105 -122 -153t-140 -48q-46 0 -70 24t-24 60q0 32 26 117l19 65q-93 -160 -179 -227q-50 -39 -107 -39q-74 0 -107 61t-33 137q0 114 69.5 261t181.5 236q93 74 174 74
q45 0 72.5 -26t40.5 -95l29 99zM532 582q0 65 -20 94q-15 20 -39 20q-25 0 -52 -24q-54 -50 -116.5 -202.5t-62.5 -263.5q0 -43 14 -61.5t31 -18.5q37 0 74 41q53 60 95 146q76 151 76 269z" />
    <glyph glyph-name="b" unicode="b" 
d="M521 1117l-139 -486q63 69 105.5 92t92.5 23q97 0 145 -69.5t48 -160.5q0 -217 -158 -388q-140 -151 -319 -151q-133 0 -281 79l247 854q17 60 17 83q0 19 -16 30q-22 16 -68 14l9 32l269 48h48zM212 47q38 -24 68 -24q43 0 72 17q46 28 96 99.5t84 173t34 201.5
q0 58 -26 87.5t-59 29.5q-57 0 -99 -55q-28 -35 -61 -150z" />
    <glyph glyph-name="c" unicode="c" horiz-adv-x="732" 
d="M599 194l24 -22q-78 -93 -154 -137q-100 -58 -208 -58q-73 0 -128.5 31t-82.5 87t-27 115q0 132 72 259.5t189.5 202t230.5 74.5q91 0 137 -40t46 -100q0 -54 -34.5 -91.5t-77.5 -37.5q-37 0 -61.5 24t-24.5 57q0 43 44 76q29 22 29 39q0 14 -12 23q-16 13 -42 13
q-67 0 -127 -55q-79 -72 -120.5 -183t-41.5 -211q0 -79 42.5 -126t101.5 -47q51 0 111 26.5t114 80.5z" />
    <glyph glyph-name="d" unicode="d" 
d="M899 1117l-261 -901q-25 -85 -25 -102q0 -9 6 -15.5t14 -6.5q13 0 31 13q30 23 73 86l29 -16q-114 -198 -250 -198q-48 0 -74.5 25.5t-26.5 65.5q0 37 21 107l24 83q-100 -178 -174 -237q-57 -44 -110 -44q-60 0 -101.5 49.5t-41.5 143.5q0 120 53 236.5t123 194.5
t133 111.5t124 33.5q31 0 56 -13t56 -48l60 201q21 74 21 106q0 19 -14.5 32.5t-38.5 13.5q-11 0 -28 -2l8 31l265 50h48zM545 606q0 49 -19.5 71.5t-44.5 22.5q-26 0 -56 -26q-57 -52 -119.5 -207.5t-62.5 -262.5q0 -38 13.5 -56.5t30.5 -18.5q29 0 57 26q68 61 134.5 210
t66.5 241z" />
    <glyph glyph-name="e" unicode="e" horiz-adv-x="732" 
d="M258 302q-8 -52 -8 -86q0 -61 35 -97t94 -36q57 0 113.5 27.5t131.5 95.5l24 -22q-93 -112 -180.5 -159.5t-193.5 -47.5q-135 0 -186.5 64.5t-51.5 149.5q0 132 77 264t209.5 211.5t265.5 79.5q68 0 102.5 -32t34.5 -81q0 -59 -34 -115q-46 -75 -117 -121.5t-159 -70.5
q-58 -16 -157 -24zM265 344q71 10 110 28t76.5 58t64.5 101t27 114q0 22 -12.5 35t-31.5 13q-39 0 -87 -54q-88 -98 -147 -295z" />
    <glyph glyph-name="f" unicode="f" horiz-adv-x="549" 
d="M431 630l-94 -372q-66 -264 -128.5 -382t-147 -175t-192.5 -57q-69 0 -101 26.5t-32 61.5q0 33 26.5 57t70.5 24q36 0 55 -18.5t19 -46.5q0 -26 -12 -38.5t-12 -16.5l4 -5q5 -4 12 -4q24 0 41 15q42 38 63 92q15 37 56 195l164 644h-112l27 94q60 -1 87.5 15t57.5 72
q89 164 187 235t219 71q77 0 112 -30t35 -78q0 -41 -23 -65.5t-58 -24.5q-32 0 -53 20t-21 48q0 20 13.5 42.5t13.5 30.5q0 9 -6 14.5t-16 5.5q-48 0 -98 -58q-82 -95 -132 -298h117l-28 -94h-114z" />
    <glyph glyph-name="g" unicode="g" 
d="M638 697h214l-26 -88h-111q26 -48 26 -91q0 -73 -40 -135t-117.5 -99t-172.5 -37q-25 0 -55.5 3.5t-65.5 10.5q-53 -28 -67 -44q-10 -11 -10 -23q0 -14 12 -25q21 -18 62 -27q165 -36 217 -57q72 -30 108.5 -77t36.5 -113q0 -100 -92.5 -175.5t-286.5 -75.5
q-196 0 -289 65q-66 46 -66 111q0 49 43.5 91t188.5 74q-50 27 -66 50q-24 30 -24 63q0 54 43 95t145 82q-79 31 -114 80.5t-35 115.5q0 70 42 133t124.5 102.5t189.5 39.5q69 0 122 -15q27 -8 64 -34zM469 707q-39 0 -66 -26q-44 -39 -76.5 -132t-32.5 -175q0 -40 23 -63
t57 -23q33 0 57 23q46 44 79.5 141t33.5 176q0 35 -21.5 57t-53.5 22zM192 -34q-77 -30 -104.5 -64.5t-27.5 -74.5q0 -52 55 -94.5t176 -42.5q100 0 145 36.5t45 85.5q0 44 -41.5 71.5t-158.5 56.5q-55 15 -89 26z" />
    <glyph glyph-name="h" unicode="h" horiz-adv-x="917" 
d="M542 1117l-210 -726q109 160 158 217q74 81 126.5 109.5t100.5 28.5q41 0 70.5 -31t29.5 -82q0 -44 -19 -109l-102 -343q-14 -45 -14 -60q0 -7 5.5 -13.5t12.5 -6.5q10 0 20 8q25 21 54 65q8 11 24 34l31 -18q-69 -114 -131 -157t-118 -43q-50 0 -78 26t-28 65
q0 35 19 100l100 343q10 35 10 52q0 8 -7 15t-16 7q-29 0 -79 -48q-105 -99 -210 -311l-71 -239h-200l264 910q16 58 16 83q0 20 -16 31q-21 15 -64 13l5 32l268 48h49z" />
    <glyph glyph-name="i" unicode="i" horiz-adv-x="458" 
d="M370 1117q50 0 84.5 -35t34.5 -84t-35 -83.5t-84 -34.5q-48 0 -82.5 34.5t-34.5 83.5t34 84t83 35zM420 746l-165 -572q-13 -49 -13 -65q0 -8 7 -16t15 -8q14 0 27 12q37 30 87 108l28 -16q-122 -212 -259 -212q-52 0 -83 29.5t-31 74.5q0 30 14 76l112 385q16 55 16 83
q0 18 -15.5 32t-41.5 14q-13 0 -29 -1l10 32l273 44h48z" />
    <glyph glyph-name="j" unicode="j" horiz-adv-x="458" 
d="M371 1117q50 0 84.5 -35t34.5 -85t-35 -85t-84 -35q-50 0 -85 35t-35 85t35 85t85 35zM439 746l-172 -633q-53 -194 -119 -307q-46 -79 -123 -120.5t-158 -41.5q-67 0 -100 26.5t-33 60.5t27 60t69 26q32 0 50.5 -17t18.5 -42q0 -23 -21 -46q-9 -10 -9 -15t5 -9.5
t16 -4.5q35 0 61 40q18 27 63 200l164 620q18 66 18 83q0 16 -18 31t-47 15q-9 0 -21 -1l9 31l271 44h49z" />
    <glyph glyph-name="k" unicode="k" 
d="M537 1117l-222 -762l184 171l61 54q27 28 37 47q7 12 7 23q0 17 -16 28t-78 15l8 31h328l-8 -31q-58 -14 -94 -31q-28 -14 -69 -45q-62 -48 -88 -74l-36 -33l50 -222q28 -129 41 -149q9 -12 21 -12q28 0 67 66q6 9 15 25l30 -18q-60 -113 -136 -172q-51 -39 -92 -39
t-68 29t-55 154l-40 183l-89 -79l-80 -276h-205l267 909q17 58 17 78q0 18 -8 30t-22 17.5t-56 5.5l7 30l274 47h48z" />
    <glyph glyph-name="l" unicode="l" horiz-adv-x="458" 
d="M522 1117l-267 -907q-23 -80 -23 -101q0 -10 7 -17t15 -7q14 0 27 11q39 31 86 106l31 -14q-76 -123 -150 -175q-51 -36 -108 -36q-53 0 -84.5 29t-31.5 69q0 30 19 96l218 742q18 61 18 81q0 19 -17 31q-23 16 -69 13l9 31l271 48h49z" />
    <glyph glyph-name="m" unicode="m" horiz-adv-x="1282" 
d="M438 746l-103 -346q104 159 151 215q70 81 115.5 106t91.5 25q52 0 75.5 -31.5t23.5 -68.5q0 -40 -22 -116l-36 -130q105 161 151 214q71 82 123 111q36 21 77 21q43 0 71.5 -28.5t28.5 -74.5q0 -51 -24 -133l-90 -301q-20 -67 -20 -86q0 -6 5.5 -12t11.5 -6q9 0 16 6
q29 23 61 69q7 9 21 29l28 -17q-56 -104 -122.5 -152.5t-122.5 -48.5q-49 0 -79 27t-30 63q0 35 21 105l91 314q18 65 18 81q0 6 -5.5 11t-11.5 5q-10 0 -21 -5q-15 -8 -47 -41.5t-91.5 -121t-82.5 -136.5t-45 -127l-49 -166h-204l151 526q12 42 12 58q0 6 -5.5 11t-11.5 5
q-29 0 -94 -78q-98 -121 -178 -291l-66 -231h-205l151 518q23 76 23 108q0 13 -6.5 22.5t-21 14.5t-55.5 5l8 31l275 47h48z" />
    <glyph glyph-name="n" unicode="n" horiz-adv-x="917" 
d="M440 746l-99 -345q100 151 150 207q73 80 126.5 109t99.5 29q42 0 72 -31t30 -81q0 -45 -20 -109l-103 -344q-13 -45 -13 -59q0 -8 6.5 -14.5t12.5 -6.5q8 0 17 7q28 23 57 66q7 11 23 34l31 -19q-118 -199 -249 -199q-50 0 -78 26t-28 65q0 33 19 100l101 344
q10 34 10 50q0 9 -7 15.5t-17 6.5q-30 0 -74 -42q-111 -106 -215 -316l-66 -239h-205l150 517q22 76 22 108q0 14 -6.5 23.5t-21 14.5t-54.5 5l9 31l271 47h49z" />
    <glyph glyph-name="o" unicode="o" 
d="M542 746q63 0 119 -29.5t84.5 -81.5t28.5 -116q0 -130 -72.5 -260.5t-192 -206t-239.5 -75.5q-110 0 -170 65.5t-60 159.5q0 112 45 210t113.5 170.5t158 118t185.5 45.5zM509 704q-43 0 -71 -25q-56 -51 -127 -237.5t-71 -336.5q0 -37 22.5 -61t53.5 -24t55 19
q36 29 87.5 130t84.5 223t33 224q0 42 -20.5 65t-46.5 23z" />
    <glyph glyph-name="p" unicode="p" 
d="M100 701l266 45h49l-37 -131q85 77 139 104t107 27q76 0 117 -58t41 -143q0 -231 -161 -410q-141 -158 -309 -158q-29 0 -50 6t-59 25l-42 -145q-23 -79 -23 -120q0 -26 18 -40.5t83 -25.5l-7 -30h-433l8 30q51 2 85.5 33.5t64.5 134.5l196 677q22 76 22 108
q0 13 -6.5 22.5t-19.5 13.5t-58 4zM225 83q25 -40 44 -53t45 -13t50.5 14t60.5 56.5t69.5 109.5t53.5 152t20 162q0 62 -22 90.5t-53 28.5q-29 0 -53 -15q-37 -21 -86 -78z" />
    <glyph glyph-name="q" unicode="q" 
d="M797 724l-238 -814q-24 -84 -29 -106q-7 -35 -7 -59q0 -25 20 -41q27 -22 84 -27l-9 -30h-426l8 30q48 7 71 22t40.5 50t40.5 119l107 365q-90 -155 -168 -212q-59 -44 -118 -44t-94 44q-48 58 -48 157q0 104 48 218t126.5 201t158.5 128q40 21 91 21q50 0 81 -29t43 -95
l30 102h188zM475 695q-29 0 -59 -27q-53 -47 -108 -187q-66 -173 -66 -272q0 -42 18 -65q13 -17 33 -17q28 0 56 26q68 60 133 201t65 229q0 55 -22.5 83.5t-49.5 28.5z" />
    <glyph glyph-name="r" unicode="r" horiz-adv-x="642" 
d="M390 746l-121 -452q150 331 225 407q45 45 94 45q33 0 54 -24.5t21 -69.5q0 -78 -38 -131q-24 -34 -53 -34q-33 0 -49 30t-22.5 35t-13.5 5q-8 0 -17 -5q-18 -9 -46.5 -46.5t-70 -125.5t-65 -148.5t-65.5 -231.5h-195l133 534q14 59 14 79q0 21 -7.5 33t-20.5 18t-55 6
l7 23l243 53h48z" />
    <glyph glyph-name="s" unicode="s" horiz-adv-x="642" 
d="M613 746l-35 -249h-30q-6 97 -59 152.5t-113 55.5q-37 0 -61 -21.5t-24 -52.5q0 -26 10.5 -48.5t46.5 -60.5q127 -137 154.5 -188.5t27.5 -110.5q0 -64 -32.5 -120.5t-96.5 -91t-133 -34.5q-47 0 -115 19q-45 13 -68 13q-20 0 -31 -6t-25 -26h-30l40 269h25
q29 -98 53.5 -139.5t65.5 -66t79 -24.5q44 0 73 28t29 66t-19 73.5t-87 110.5q-95 102 -124 158q-21 40 -21 91q0 87 63 145t177 58q50 0 123 -17q36 -9 58 -9q31 0 50 26h29z" />
    <glyph glyph-name="t" unicode="t" horiz-adv-x="458" 
d="M473 943l-65 -219h106l-29 -93h-103l-135 -467q-13 -43 -13 -66q0 -10 7.5 -18t16.5 -8q13 0 28 12q37 28 86 98l28 -18q-55 -96 -122 -141.5t-131 -45.5q-55 0 -85.5 28t-30.5 71q0 46 21 120l128 435h-110l16 60q103 38 174 88.5t171 163.5h42z" />
    <glyph glyph-name="u" unicode="u" horiz-adv-x="917" 
d="M438 746l-156 -547q-12 -38 -12 -52q0 -8 6 -12q7 -6 15 -6q37 0 99 66q89 96 186 275l74 246l203 8l-154 -532q-20 -67 -20 -77q0 -6 6 -13t13 -7q11 0 22 10q29 23 76 94l28 -19q-112 -203 -247 -203q-50 0 -78.5 25.5t-28.5 66.5q0 44 20 111l40 136
q-105 -153 -152 -206q-73 -79 -122.5 -106t-94.5 -27q-43 0 -74 31.5t-31 80.5q0 41 20 110l91 322q23 79 23 106q0 12 -6.5 21.5t-21.5 14.5t-55 5l8 31l275 47h48z" />
    <glyph glyph-name="v" unicode="v" horiz-adv-x="732" 
d="M227 -23h-29q2 66 2 100q0 92 -14 265.5t-31 231.5q-14 43 -37 62q-15 13 -39 13q-14 0 -33 -3v29l268 71q80 -220 78 -562q118 112 163 182t45 117q0 37 -28 75.5t-35 54.5t-7 35q0 42 27.5 70t69.5 28q44 0 69 -28q33 -39 33 -93q0 -56 -19.5 -109.5t-67.5 -126.5
t-107 -132q-108 -110 -308 -280z" />
    <glyph glyph-name="w" unicode="w" horiz-adv-x="1100" 
d="M709 746l60 -565q121 120 158 189.5t37 116.5q0 18 -8 35.5t-32 49t-27 39.5q-6 15 -6 37q0 41 28 69.5t71 28.5t68 -29q35 -42 35 -96q0 -90 -85 -234.5t-390 -409.5h-32l-50 495l-348 -495h-34q12 224 12 419q0 127 -14 184q-8 33 -28.5 49.5t-44.5 16.5q-13 0 -33 -3
v30l277 73q22 -63 30 -118q14 -85 14 -199q0 -40 -3 -122l311 439h34z" />
    <glyph glyph-name="x" unicode="x" 
d="M75 698l281 48q76 -120 108 -264q79 117 119 164q54 62 89 81t74 19q45 0 68.5 -24t23.5 -65q0 -39 -23.5 -63.5t-59.5 -24.5q-26 0 -59 9.5t-46 9.5q-34 0 -65 -24q-42 -34 -103 -141q69 -242 110 -295q24 -31 49 -31q21 0 36 10q23 17 72 85l29 -17q-71 -115 -139 -161
q-51 -37 -101 -37q-52 0 -86 23t-60.5 75t-63.5 167q-94 -120 -147.5 -175.5t-89 -72.5t-75.5 -17q-42 0 -66.5 24.5t-24.5 62.5q0 41 26.5 68t67.5 27q22 0 49 -13q41 -20 58 -20q24 0 42 10q24 12 61 52q23 25 83 107q-77 286 -120 343q-28 36 -70 36q-21 0 -53 -7z" />
    <glyph glyph-name="y" unicode="y" horiz-adv-x="732" 
d="M42 674l248 72q30 -37 42 -70q21 -57 30 -158q17 -198 24 -422q86 113 197 300q34 56 34 106q0 32 -39 60t-49 43.5t-10 40.5q0 41 29.5 70.5t71.5 29.5q44 0 76.5 -33.5t32.5 -79.5q0 -54 -30 -125.5t-141 -244.5q-143 -221 -279 -383q-88 -103 -142 -148.5t-112 -72.5
q-35 -15 -68 -15q-46 0 -79 32.5t-33 76.5t29.5 74.5t69.5 30.5q49 0 90 -51q27 -35 45 -35t36 11q24 13 68 59q5 101 5 152q0 70 -7 195l-14 307q-7 84 -36 121q-22 28 -59 28q-13 0 -30 -3v32z" />
    <glyph glyph-name="z" unicode="z" horiz-adv-x="642" 
d="M654 724l-457 -540q52 -16 77 -46q32 -41 46.5 -121t33 -101t37.5 -21q13 0 24.5 11.5t11.5 25.5q0 16 -10 50q-6 24 -6 45q0 45 28.5 76t68.5 31q36 0 60.5 -27t24.5 -71q0 -67 -61 -121.5t-150 -54.5q-103 0 -202 95q-41 38 -66 51q-14 8 -37 8q-19 0 -42 -14h-52
l467 554h-167q-72 0 -104 -18t-60 -69h-34l66 257h503z" />
    <glyph glyph-name="Euro" unicode="&#x20ac;" 
d="M751 593h-359q-12 -34 -22 -67h359l-18 -62h-357q-34 -136 -34 -231q0 -180 122 -180q92 0 170 59q40 30 130 130l29 -29q-97 -114 -158 -157q-107 -79 -241 -79q-283 0 -283 322q0 77 19 165h-81l18 62h77l4 13q7 25 17 54h-76l18 63h83q80 186 234 315q170 143 357 143
q88 0 147 -24q17 -7 82 -47l-69 -240h-31q9 45 9 83q0 162 -141 162q-101 0 -199 -128q-79 -102 -142 -264h355z" />
    <glyph glyph-name="quotesinglbase" unicode="&#x201a;" horiz-adv-x="549" 
d="M41 -265l-18 34q123 70 152 106q24 28 24 57q0 31 -41.5 69t-55.5 65q-10 20 -10 52q0 52 39 90t94 38q54 0 94 -43t40 -106q0 -101 -77 -198.5t-241 -163.5z" />
    <glyph glyph-name="florin" unicode="&#x192;" 
d="M572 631l-81 -402q-55 -272 -98 -369.5t-116.5 -156.5t-151.5 -59q-60 0 -93 28.5t-33 65.5q0 31 24 55t59 24q34 0 57 -20q18 -15 18 -43q0 -10 -3 -19q-7 -19 -7 -24q0 -6 6 -12t17 -6q22 0 42 25t20 74q0 21 -5 82q-2 36 -2 66q0 63 5 107.5t27 152.5l88 431h-115
l20 98q79 0 119.5 32.5t83.5 148.5t102 161q58 46 141 46q62 0 95.5 -29t33.5 -74q0 -40 -25 -65.5t-62 -25.5q-30 0 -50.5 20t-20.5 46q0 17 22 61q4 8 4 13q0 6 -6.5 11.5t-15.5 5.5q-29 0 -52.5 -29t-23.5 -83q0 -32 3.5 -75t3.5 -64q0 -37 -11 -100h124l-19 -98h-124z
" />
    <glyph glyph-name="quotedblbase" unicode="&#x201e;" 
d="M-28 -264l-20 34q115 59 151 103q26 30 26 62q0 29 -45 69q-62 56 -62 110t39.5 94t92.5 40q54 0 95.5 -44t41.5 -107q0 -99 -68 -185q-85 -108 -251 -176zM328 -266l-20 33q113 60 152 106q25 31 25 59q0 29 -41 67.5t-55 66.5q-11 20 -11 47q0 54 39 92.5t95 38.5
t95 -41.5t39 -105.5q0 -100 -62 -179q-82 -106 -256 -184z" />
    <glyph glyph-name="dagger" unicode="&#x2020;" 
d="M210 -353h-30q141 532 148 856q63 36 91.5 70t53.5 104q-46 -5 -64 -10t-84 -35t-104 -30q-34 0 -56.5 22t-22.5 59q0 42 26.5 69t60.5 27q29 0 102 -30q52 -21 77 -28t75 -13q10 64 10 97q0 23 -5.5 72t-5.5 86q0 73 34.5 113.5t83.5 40.5q41 0 66 -24.5t25 -61.5
q0 -67 -66.5 -154t-73.5 -99q-12 -18 -33 -70q44 5 62 11q13 4 78 32t107 28q32 0 53.5 -22.5t21.5 -59.5q0 -46 -24.5 -71t-63.5 -25q-40 0 -108 30.5t-73 31.5q-17 6 -61 14q-4 -39 -4 -66q0 -32 9.5 -59.5t37.5 -69.5q-89 -140 -171 -342q-107 -262 -172 -493z" />
    <glyph glyph-name="daggerdbl" unicode="&#x2021;" 
d="M515 694q-8 -37 -8 -60q0 -31 13.5 -57t51.5 -59q-80 -38 -112 -77t-32 -90q0 -35 16 -64t58 -65q-66 -30 -97.5 -59.5t-66.5 -95.5q46 3 71.5 10t73.5 29q64 30 98 30q36 0 60.5 -25.5t24.5 -62.5q0 -34 -27.5 -59.5t-68.5 -25.5q-29 0 -84.5 23t-81.5 30t-77 13
q-9 -51 -9 -77t7 -71q10 -62 10 -101q0 -57 -36.5 -96.5t-78.5 -39.5q-36 0 -63 26.5t-27 63.5q0 32 10.5 56.5t61.5 85.5t93 153q-47 -9 -66 -15q-11 -4 -85 -34q-35 -15 -63 -15q-42 0 -70 25q-21 18 -21 55q0 44 22.5 67t62.5 23q24 0 52 -7q15 -4 62.5 -26.5t52.5 -24.5
q17 -5 64 -10q5 34 5 56q0 32 -12.5 58t-49.5 61q76 36 107 71q40 46 40 100q0 35 -17 63.5t-58 59.5q75 35 105.5 65.5t55.5 92.5q-88 -11 -139 -38t-61 -31q-13 -4 -32 -4q-40 0 -65.5 25.5t-25.5 63.5q0 36 24.5 61t61.5 25q41 0 104 -27.5t82.5 -33.5t62.5 -11
q12 56 12 84q0 24 -8.5 76t-8.5 91q0 63 36 102.5t84 39.5q37 0 62 -26t25 -64q0 -30 -12 -57t-55.5 -81t-61.5 -83t-42 -82q43 5 63 12t59 28q56 30 95 30q44 0 69.5 -24.5t25.5 -63.5t-23.5 -63t-63.5 -24q-38 0 -90 26.5t-74 34t-71 14.5z" />
    <glyph glyph-name="circumflex" unicode="&#x2c6;" horiz-adv-x="549" 
d="M368 1117h183l82 -274h-82l-108 163l-237 -163h-84z" />
    <glyph glyph-name="perthousand" unicode="&#x2030;" horiz-adv-x="1649" 
d="M1142 1117l-1004 -1160h-96l1001 1160h99zM307 525q-83 0 -136 56t-53 158q0 156 99 265.5t214 109.5q85 0 139 -56.5t54 -152.5q0 -160 -98 -270t-219 -110zM307 568q21 0 38 14q27 22 45.5 65t61.5 199q33 118 33 160q0 30 -15.5 47.5t-37.5 17.5q-29 0 -56 -30.5
t-56 -125.5q-64 -212 -64 -291q0 -24 15.5 -40t35.5 -16zM736 -45q-78 0 -131.5 58t-53.5 151q0 156 108 279q90 101 205 101q85 0 140 -56.5t55 -150.5q0 -157 -101.5 -269.5t-221.5 -112.5zM741 0q24 0 41 14q26 20 46 67q15 35 66 217q27 96 27 141q0 27 -17.5 45
t-42.5 18q-24 0 -49.5 -30t-59.5 -144q-62 -204 -62 -270q0 -27 14.5 -42.5t36.5 -15.5zM1301 -45q-81 0 -134.5 55.5t-53.5 152.5q0 160 98 270t213 110q86 0 140.5 -55.5t54.5 -153.5q0 -160 -98.5 -269.5t-219.5 -109.5zM1301 0q26 0 43 12q24 19 44 65q14 35 66 218
q28 98 28 143q0 28 -17 45.5t-40 17.5q-28 0 -52.5 -29t-59.5 -147q-61 -204 -61 -270q0 -26 13.5 -40.5t35.5 -14.5z" />
    <glyph glyph-name="Scaron" unicode="&#x160;" horiz-adv-x="917" 
d="M962 1117l-91 -371h-27q-8 87 -31 140q-34 75 -90 116t-121 41q-63 0 -110 -48t-47 -108q0 -59 32.5 -117t154.5 -173q97 -93 130.5 -160t33.5 -145q0 -88 -46.5 -162t-135.5 -114.5t-202 -40.5q-69 0 -174 20.5t-140 20.5q-27 0 -49 -8.5t-54 -32.5h-31l97 416h31
q10 -109 44 -186t96.5 -120t143.5 -43q80 0 133.5 52.5t53.5 123.5q0 61 -30.5 116.5t-138 161.5t-148.5 190q-29 62 -29 132q0 121 95.5 210t250.5 89q70 0 184 -32q67 -18 94 -18q24 0 42.5 10t43.5 40h35zM940 1460l-213 -277h-211l-86 277h96l114 -166l197 166h103z" />
    <glyph glyph-name="guilsinglleft" unicode="&#x2039;" horiz-adv-x="549" 
d="M504 734l-208 -371l49 -372h-49l-199 372l356 371h51z" />
    <glyph glyph-name="OE" unicode="&#x152;" horiz-adv-x="1556" 
d="M1031 548l-90 -311q-27 -95 -27 -126q0 -17 15 -30.5t44 -13.5q114 0 232 58.5t210 172.5h34l-114 -298h-466q-153 0 -198 -2q-179 -7 -184 -7q-114 0 -204 50t-135.5 137.5t-45.5 195.5q0 184 98.5 355.5t268.5 271t346 99.5q59 0 150 -5q44 -3 181 -3h434l-69 -273h-31
q0 99 -62.5 155.5t-208.5 56.5h-35l-124 -422q128 1 189.5 37t115.5 136h30l-124 -422h-28q8 38 8 66q0 39 -18.5 65.5t-61 42.5t-130.5 14zM853 735l36 124q7 33 7 69q0 52 -30 82t-80 30q-78 0 -130 -45q-121 -103 -216 -323t-95 -422q0 -75 39 -135t121 -60
q71 0 126 51.5t98 198.5z" />
    <glyph glyph-name="Zcaron" unicode="&#x17d;" horiz-adv-x="1007" 
d="M1119 1062l-835 -1002h65q196 0 314.5 57.5t218.5 190.5h34l-114 -308h-847v30l834 999h-102q-197 0 -292 -49t-162 -165h-33l94 277h825v-30zM986 1446l-213 -277h-211l-86 277h96l114 -166l197 166h103z" />
    <glyph glyph-name="tilde" unicode="&#x2dc;" horiz-adv-x="549" 
d="M605 1092h51q-2 -112 -49 -168t-105 -56q-57 0 -171 52q-48 22 -70 22q-23 0 -39.5 -17t-21.5 -56h-53q6 116 53.5 169.5t107.5 53.5q64 0 171 -52q45 -21 65 -21q24 0 40.5 16.5t20.5 56.5z" />
    <glyph glyph-name="trademark" unicode="&#x2122;" horiz-adv-x="1649" 
d="M-2 1092h625v-182h-28q-3 70 -39.5 105t-116.5 35h-31v-473q0 -68 15 -85q17 -23 68 -23v-27h-365v27q47 4 58.5 10t17.5 23t6 78v470h-28q-77 0 -113.5 -33t-42.5 -107h-26v182zM712 1092h296l186 -399l184 399h279v-31q-38 0 -52.5 -8t-21.5 -24t-7 -76v-380
q0 -61 12 -77q20 -23 69 -27v-27h-371v27q59 2 75.5 19.5t16.5 84.5v407l-257 -538h-20l-256 538v-404q0 -54 5 -67q7 -18 25.5 -28.5t62.5 -11.5v-27h-226v27q46 3 60 10.5t21 24.5t7 74v377q0 57 -7.5 73.5t-22 24.5t-58.5 8v31z" />
    <glyph glyph-name="scaron" unicode="&#x161;" horiz-adv-x="642" 
d="M613 746l-35 -249h-30q-6 97 -59 152.5t-113 55.5q-37 0 -61 -21.5t-24 -52.5q0 -26 10.5 -48.5t46.5 -60.5q127 -137 154.5 -188.5t27.5 -110.5q0 -64 -32.5 -120.5t-96.5 -91t-133 -34.5q-47 0 -115 19q-45 13 -68 13q-20 0 -31 -6t-25 -26h-30l40 269h25
q29 -98 53.5 -139.5t65.5 -66t79 -24.5q44 0 73 28t29 66t-19 73.5t-87 110.5q-95 102 -124 158q-21 40 -21 91q0 87 63 145t177 58q50 0 123 -17q36 -9 58 -9q31 0 50 26h29zM690 1117l-213 -277h-211l-86 277h96l114 -166l197 166h103z" />
    <glyph glyph-name="guilsinglright" unicode="&#x203a;" horiz-adv-x="549" 
d="M46 -9l208 371l-50 372h50l199 -372l-356 -371h-51z" />
    <glyph glyph-name="oe" unicode="&#x153;" horiz-adv-x="1191" 
d="M716 303q-13 -49 -13 -80q0 -56 39.5 -98t96.5 -42t114 29t127 97l27 -23q-94 -113 -183 -161t-191 -48q-77 0 -129 30q-40 23 -79 83q-51 -55 -96 -77q-72 -36 -154 -36q-120 0 -179 65.5t-59 165.5q0 131 73.5 258t190.5 203.5t233 76.5q80 0 123.5 -27.5t77.5 -95.5
q87 70 151.5 96.5t140.5 26.5q82 0 119 -31.5t37 -80.5q0 -65 -51.5 -141.5t-144 -121.5t-271.5 -68zM501 700q-33 0 -69 -32q-58 -52 -121 -220q-77 -206 -77 -338q0 -42 23 -66t57 -24q42 0 85 51q60 69 118.5 260.5t58.5 280.5q0 42 -21.5 65t-53.5 23zM722 340
q100 24 153 62t88 111t35 133q0 24 -11 35.5t-31 11.5q-40 0 -97 -63q-86 -95 -137 -290z" />
    <glyph glyph-name="zcaron" unicode="&#x17e;" horiz-adv-x="642" 
d="M654 724l-457 -540q52 -16 77 -46q32 -41 46.5 -121t33 -101t37.5 -21q13 0 24.5 11.5t11.5 25.5q0 16 -10 50q-6 24 -6 45q0 45 28.5 76t68.5 31q36 0 60.5 -27t24.5 -71q0 -67 -61 -121.5t-150 -54.5q-103 0 -202 95q-41 38 -66 51q-14 8 -37 8q-19 0 -42 -14h-52
l467 554h-167q-72 0 -104 -18t-60 -69h-34l66 257h503zM690 1117l-213 -277h-211l-86 277h96l114 -166l197 166h103z" />
    <glyph glyph-name="Ydieresis" unicode="&#x178;" horiz-adv-x="1007" 
d="M436 482l-91 398q-24 103 -57 141q-25 29 -91 41l9 30h524l-10 -30q-76 0 -111 -31t-35 -74q0 -26 14 -92l71 -323l177 243q67 93 84 131.5t17 67.5t-21.5 50.5t-70.5 27.5l9 30h328v-30q-45 -5 -77 -29t-125 -153l-310 -427l-73 -253q-23 -78 -23 -91q0 -34 26.5 -56.5
t89.5 -22.5h30l-8 -30h-559l8 30q61 -1 98 16.5t56 44.5q13 19 38 103zM609 1403q44 0 75.5 -31t31.5 -76q0 -44 -31.5 -75.5t-75.5 -31.5t-75.5 31.5t-31.5 75.5q0 45 31.5 76t75.5 31zM908 1403q45 0 76 -31.5t31 -75.5t-31.5 -75t-75.5 -31t-75 31t-31 75t31 75.5
t75 31.5z" />
    <glyph glyph-name="exclamdown" unicode="&#xa1;" horiz-adv-x="642" 
d="M390 784q54 0 92.5 -38t38.5 -93q0 -54 -38.5 -92.5t-92.5 -38.5t-93 38.5t-39 92.5q0 55 38.5 93t93.5 38zM316 450h30q-39 -213 -58.5 -433t-60 -296.5t-105.5 -76.5q-36 0 -63 31t-27 75q0 35 14 77.5t84 190.5q118 246 186 432z" />
    <glyph glyph-name="sterling" unicode="&#xa3;" 
d="M500 611h172l-37 -118h-163q-48 -143 -94 -254q41 -15 135.5 -61t142.5 -46q41 0 76 51h30q-44 -109 -110.5 -157.5t-151.5 -48.5q-48 0 -91.5 15.5t-118.5 60.5q-23 -38 -52 -57t-63 -19q-48 0 -82 35t-34 88q0 71 49 116.5t146 46.5q2 69 12 230h-146l36 118h119
q50 267 152.5 385t259.5 118q87 0 132.5 -38t45.5 -89q0 -40 -28.5 -68.5t-66.5 -28.5t-67 26q-23 21 -23 56q0 19 7 33q13 25 13 31q0 8 -11 17q-10 9 -29 9q-38 0 -61 -39q-15 -26 -45 -171q-40 -187 -54 -241zM227 96q-43 30 -68 30q-17 0 -30.5 -13t-13.5 -33
q0 -23 13.5 -36.5t32.5 -13.5t31 10t35 56z" />
    <glyph glyph-name="yen" unicode="&#xa5;" 
d="M618 551h269l-18 -54h-287l-33 -49l-31 -114h317l-18 -54h-315l-21 -79q-21 -72 -21 -99q0 -17 13.5 -35.5t36.5 -27.5t82 -9l-8 -30h-520l10 30q87 0 124.5 29.5t64.5 126.5l28 94h-306l17 54h305l44 155l-2 8h-312l17 54h285l-68 358q-18 96 -43 127q-17 21 -60 26
l10 30h414l-8 -30q-64 -5 -86 -25t-22 -56q0 -33 12 -100l61 -330l192 294q72 111 72 163q0 19 -18.5 35t-61.5 19l8 30h272l-9 -30q-25 -2 -44 -15q-25 -18 -68 -84z" />
    <glyph glyph-name="brokenbar" unicode="&#xa6;" horiz-adv-x="363" 
d="M128 529v588h105v-588h-105zM128 -356v589h105v-589h-105z" />
    <glyph glyph-name="dieresis" unicode="&#xa8;" horiz-adv-x="549" 
d="M256 1084q44 0 75.5 -31t31.5 -76q0 -44 -31.5 -75.5t-75.5 -31.5t-75.5 31.5t-31.5 75.5q0 45 31.5 76t75.5 31zM555 1084q45 0 76 -31.5t31 -75.5t-31.5 -75t-75.5 -31t-75 31t-31 75t31 75.5t75 31.5z" />
    <glyph glyph-name="copyright" unicode="&#xa9;" horiz-adv-x="1232" 
d="M659 1117q144 0 281 -74t214 -211t77 -286q0 -148 -75.5 -284t-212 -211.5t-284.5 -75.5t-283.5 75.5t-211 211.5t-75.5 284q0 149 76.5 286t213.5 211t280 74zM659 1045q-125 0 -244.5 -64.5t-187 -185t-67.5 -249.5q0 -130 66 -248.5t185 -184.5t248 -66
q130 0 248.5 66t184.5 184.5t66 248.5q0 129 -66.5 249.5t-186 185t-246.5 64.5zM929 890v-212h-31q-16 81 -70 127.5t-128 46.5q-88 0 -147.5 -70.5t-59.5 -222.5q0 -163 58 -232t145 -69q119 0 210 111v-57q-97 -102 -256 -102q-151 0 -244.5 91.5t-93.5 236.5
q0 153 100.5 253t253.5 100q69 0 158 -32q26 -10 37 -10q15 0 25 10t12 31h31z" />
    <glyph glyph-name="ordfeminine" unicode="&#xaa;" horiz-adv-x="439" 
d="M605 1107l-100 -319q-13 -40 -13 -51q0 -5 4.5 -9.5t9.5 -4.5q8 0 15 6q19 13 52 53l19 -10q-73 -119 -166 -119q-35 0 -52 15.5t-17 38.5q0 18 12 54l17 51q-65 -100 -103.5 -129.5t-79.5 -29.5q-40 0 -65 29.5t-25 82.5q0 130 95.5 239.5t179.5 109.5q31 0 47.5 -15
t24.5 -55l17 56zM398 1084q-22 0 -42 -17t-63.5 -119.5t-43.5 -156.5q0 -23 12 -38q6 -10 18 -10q47 0 102 100.5t55 179.5q0 32 -13 50q-8 11 -25 11z" />
    <glyph glyph-name="guillemotleft" unicode="&#xab;" 
d="M474 733l-207 -371l48 -370h-48l-200 370l356 371h51zM813 733l-206 -371l51 -370h-51l-198 370l355 371h49z" />
    <glyph glyph-name="uni00AD" unicode="&#xad;" horiz-adv-x="549" 
d="M63 445h468l-50 -167h-471z" />
    <glyph glyph-name="registered" unicode="&#xae;" horiz-adv-x="1232" 
d="M659 1117q144 0 281 -74t214 -211t77 -286q0 -148 -75.5 -284t-212 -211.5t-284.5 -75.5t-283.5 75.5t-211 211.5t-75.5 284q0 149 76.5 286t213.5 211t280 74zM659 1045q-125 0 -244.5 -64.5t-187 -185t-67.5 -249.5q0 -130 66 -248.5t185 -184.5t248 -66
q130 0 248.5 66t184.5 184.5t66 248.5q0 129 -66.5 249.5t-186 185t-246.5 64.5zM354 877h292q147 0 204 -35q81 -51 81 -141q0 -57 -35.5 -101.5t-108.5 -64.5l111 -202q24 -43 49 -65q13 -10 35 -14v-28h-195l-165 296h-37v-159q0 -68 18 -87.5t79 -21.5v-28h-341v28
q50 0 65 16q20 24 20 93v380q0 66 -14 84t-58 23v27zM585 564q28 -5 46 -5q52 0 89.5 39.5t37.5 105.5q0 68 -35 103t-107 35h-31v-278z" />
    <glyph glyph-name="macron" unicode="&#xaf;" 
d="M207 1282h855v-105h-855v105z" />
    <glyph glyph-name="plusminus" unicode="&#xb1;" horiz-adv-x="905" 
d="M25 599h387v386h106v-386h387v-106h-387v-277h387v-107h-880l-1 106h388v278h-387v106z" />
    <glyph glyph-name="twosuperior" unicode="&#xb2;" horiz-adv-x="494" 
d="M440 535h-359v21q244 195 309 288q33 46 33 98q0 37 -23.5 59t-63.5 22q-61 0 -108 -65l-32 13q29 71 81 107t121 36q77 0 123 -40t46 -89q0 -66 -60.5 -134t-254.5 -212h105q59 0 79.5 11t42.5 48h42z" />
    <glyph glyph-name="threesuperior" unicode="&#xb3;" horiz-adv-x="494" 
d="M200 838l9 27q116 13 172 58q37 29 37 68q0 26 -19 44t-50 18q-24 0 -45 -12t-48 -44l-34 14q42 55 84 79t97 24q70 0 110.5 -33.5t40.5 -75.5q0 -45 -32 -75q-43 -43 -119 -55q49 -23 68 -47q29 -38 29 -86q0 -83 -81 -151.5t-211 -68.5q-66 0 -98 22q-21 15 -21 36
t14 32q21 17 49 17q27 0 77 -31q37 -22 60 -22q24 0 45 27q28 36 28 89q0 73 -50 113q-33 26 -112 33z" />
    <glyph glyph-name="acute" unicode="&#xb4;" horiz-adv-x="549" 
d="M419 1117h248l-271 -282h-72z" />
    <glyph glyph-name="mu1" unicode="&#xb5;" horiz-adv-x="950" 
d="M245 724h205l-130 -449q-19 -67 -21 -72q-5 -29 -5 -49q0 -26 16.5 -42.5t39.5 -16.5q46 0 102 59q74 78 129 269l86 301h206l-144 -496q-27 -90 -27 -115q0 -19 12.5 -32t27.5 -13t31 16q32 30 61 96l29 -15q-35 -99 -91 -143.5t-123 -44.5q-61 0 -98 37t-37 96
q0 29 6 70q-91 -126 -160 -169q-53 -34 -117 -34q-47 0 -80 21q-20 11 -43 50q-20 -61 -28 -105.5t-12 -119.5t-12 -102q-12 -38 -38 -58t-55 -20q-32 0 -55 24.5t-23 62.5q0 52 59 148.5t78.5 141.5t53.5 160z" />
    <glyph glyph-name="cedilla" unicode="&#xb8;" horiz-adv-x="549" 
d="M240 0h61l-55 -42q66 -9 97.5 -42.5t31.5 -79.5q0 -57 -50 -98t-161 -41q-89 0 -155 24l10 25q60 -11 90 -11q54 0 83 24.5t29 58.5q0 28 -18.5 47t-43.5 19q-17 0 -44 -6l-10 24z" />
    <glyph glyph-name="onesuperior" unicode="&#xb9;" horiz-adv-x="494" 
d="M532 1114l-160 -476q-11 -33 -11 -43q0 -9 6 -18t14 -11q12 -5 42 -5l29 -2l-9 -24h-344l9 24q67 2 86.5 15t38.5 69l93 279q24 71 24 84q0 16 -9.5 25.5t-29.5 9.5q-15 0 -57 -4l-6 25z" />
    <glyph glyph-name="ordmasculine" unicode="&#xba;" horiz-adv-x="494" 
d="M466 1114q70 0 111 -38.5t41 -99.5q0 -73 -45 -152t-124.5 -125t-155.5 -46q-72 0 -111.5 38t-39.5 99q0 75 45.5 154t124.5 124.5t154 45.5zM446 1088q-29 0 -48 -16q-34 -30 -80.5 -140t-46.5 -200q0 -24 14.5 -38.5t36.5 -14.5q23 0 39 15q42 39 85 143.5t43 196.5
q0 26 -12.5 40t-30.5 14z" />
    <glyph glyph-name="guillemotright" unicode="&#xbb;" 
d="M350 -8l207 371l-47 370h47l201 -370l-357 -371h-51zM11 -8l206 371l-51 370h51l198 -370l-355 -371h-49z" />
    <glyph glyph-name="onequarter" unicode="&#xbc;" horiz-adv-x="1236" 
d="M1098 1114l-775 -1161h-106l772 1161h109zM530 1114l-160 -476q-11 -33 -11 -43q0 -9 6 -18t14 -11q12 -5 42 -5l29 -2l-9 -24h-344l9 24q68 2 87.5 15t37.5 69l93 279q25 71 25 84q0 16 -10 25.5t-30 9.5q-14 0 -56 -4l-7 25zM884 81h-216l26 76l390 386h78l-128 -386
h74l-28 -76h-73l-44 -128h-123zM911 157l68 217l-218 -217h150z" />
    <glyph glyph-name="onehalf" unicode="&#xbd;" horiz-adv-x="1236" 
d="M1059 1114l-775 -1161h-106l772 1161h109zM530 1114l-160 -476q-11 -33 -11 -43q0 -9 6 -18t14 -11q12 -5 42 -5q1 0 29 -2l-9 -24h-344l9 24q68 2 87.5 15t37.5 69l93 279q25 71 25 84q0 16 -10 25.5t-30 9.5q-14 0 -56 -4l-7 25zM1017 -36h-360v22q204 162 288 261
q54 63 54 125q0 36 -23.5 58.5t-62.5 22.5q-61 0 -109 -66l-32 14q28 71 80.5 106.5t121.5 35.5q77 0 123 -39.5t46 -88.5q0 -66 -60.5 -134t-254.5 -212h105q59 0 79.5 11t42.5 48h41z" />
    <glyph glyph-name="threequarters" unicode="&#xbe;" horiz-adv-x="1236" 
d="M1098 1114l-775 -1161h-107l772 1161h110zM199 838l9 27q116 13 171 58q37 29 37 68q0 26 -19 44t-49 18q-24 0 -45 -12t-49 -44l-33 14q41 55 83 79t98 24q70 0 110 -33.5t40 -75.5q0 -45 -32 -75q-43 -43 -119 -55q50 -23 68 -47q29 -38 29 -86q0 -83 -81 -151.5
t-211 -68.5q-66 0 -97 22q-21 15 -21 36t13 32q21 17 50 17q26 0 77 -31q37 -22 59 -22q25 0 45 27q29 36 29 89q0 73 -51 113q-33 26 -111 33zM883 81h-215l25 76l390 386h79l-129 -386h75l-29 -76h-73l-43 -128h-123zM910 157l68 217l-218 -217h150z" />
    <glyph glyph-name="questiondown" unicode="&#xbf;" 
d="M515 785q55 0 93 -38.5t38 -93.5t-38.5 -93.5t-92.5 -38.5q-55 0 -93.5 38.5t-38.5 93.5t38.5 93.5t93.5 38.5zM483 454h32q0 -86 -27.5 -147t-146.5 -202q-83 -99 -116 -177q-22 -51 -22 -108q0 -68 32 -104.5t81 -36.5q34 0 54.5 18t20.5 40q0 14 -14 40q-28 51 -28 88
q0 41 31.5 72t76.5 31q47 0 79.5 -34.5t32.5 -92.5q0 -95 -80.5 -146t-187.5 -51q-89 0 -157 29.5t-102.5 82t-34.5 110.5q0 82 41 145q58 89 200 177t182 137t53 129z" />
    <glyph glyph-name="Agrave" unicode="&#xc0;" horiz-adv-x="1100" 
d="M668 352h-338l-68 -84l-77 -93q-22 -29 -33 -53q-8 -19 -8 -37q0 -20 20.5 -36.5t68.5 -18.5v-30h-326l8 30q43 7 77 30q45 33 130 133l773 924h36l-36 -894q-2 -70 -2 -85q0 -54 22 -79t74 -29l-9 -30h-472l9 30q70 6 80 11q23 11 41.5 47t22.5 125zM668 418l21 356
l-303 -356h282zM705 1456h237l86 -280h-63z" />
    <glyph glyph-name="Aacute" unicode="&#xc1;" horiz-adv-x="1100" 
d="M668 352h-338l-68 -84l-77 -93q-22 -29 -33 -53q-8 -19 -8 -37q0 -20 20.5 -36.5t68.5 -18.5v-30h-326l8 30q43 7 77 30q45 33 130 133l773 924h36l-36 -894q-2 -70 -2 -85q0 -54 22 -79t74 -29l-9 -30h-472l9 30q70 6 80 11q23 11 41.5 47t22.5 125zM668 418l21 356
l-303 -356h282zM967 1439h248l-271 -282h-72z" />
    <glyph glyph-name="Acircumflex" unicode="&#xc2;" horiz-adv-x="1100" 
d="M668 352h-338l-68 -84l-77 -93q-22 -29 -33 -53q-8 -19 -8 -37q0 -20 20.5 -36.5t68.5 -18.5v-30h-326l8 30q43 7 77 30q45 33 130 133l773 924h36l-36 -894q-2 -70 -2 -85q0 -54 22 -79t74 -29l-9 -30h-472l9 30q70 6 80 11q23 11 41.5 47t22.5 125zM668 418l21 356
l-303 -356h282zM865 1444h183l82 -274h-82l-108 163l-237 -163h-84z" />
    <glyph glyph-name="Atilde" unicode="&#xc3;" horiz-adv-x="1100" 
d="M668 352h-338l-68 -84l-77 -93q-22 -29 -33 -53q-8 -19 -8 -37q0 -20 20.5 -36.5t68.5 -18.5v-30h-326l8 30q43 7 77 30q45 33 130 133l773 924h36l-36 -894q-2 -70 -2 -85q0 -54 22 -79t74 -29l-9 -30h-472l9 30q70 6 80 11q23 11 41.5 47t22.5 125zM668 418l21 356
l-303 -356h282zM1115 1420h51q-2 -112 -49 -168t-105 -56q-57 0 -171 52q-48 22 -70 22q-23 0 -39.5 -17t-21.5 -56h-53q6 116 53.5 169.5t107.5 53.5q64 0 171 -52q45 -21 65 -21q24 0 40.5 16.5t20.5 56.5z" />
    <glyph glyph-name="Adieresis" unicode="&#xc4;" horiz-adv-x="1100" 
d="M668 352h-338l-68 -84l-77 -93q-22 -29 -33 -53q-8 -19 -8 -37q0 -20 20.5 -36.5t68.5 -18.5v-30h-326l8 30q43 7 77 30q45 33 130 133l773 924h36l-36 -894q-2 -70 -2 -85q0 -54 22 -79t74 -29l-9 -30h-472l9 30q70 6 80 11q23 11 41.5 47t22.5 125zM668 418l21 356
l-303 -356h282zM783 1403q44 0 75.5 -31t31.5 -76q0 -44 -31.5 -75.5t-75.5 -31.5t-75.5 31.5t-31.5 75.5q0 45 31.5 76t75.5 31zM1082 1403q45 0 76 -31.5t31 -75.5t-31.5 -75t-75.5 -31t-75 31t-31 75t31 75.5t75 31.5z" />
    <glyph glyph-name="Aring" unicode="&#xc5;" horiz-adv-x="1100" 
d="M668 352h-338l-68 -84l-77 -93q-22 -29 -33 -53q-8 -19 -8 -37q0 -20 20.5 -36.5t68.5 -18.5v-30h-326l8 30q43 7 77 30q45 33 130 133l773 924h36l-36 -894q-2 -70 -2 -85q0 -54 22 -79t74 -29l-9 -30h-472l9 30q70 6 80 11q23 11 41.5 47t22.5 125zM668 418l21 356
l-303 -356h282zM916 1392q70 0 118.5 -49t48.5 -119q0 -69 -48.5 -118t-118.5 -49q-69 0 -118.5 49t-49.5 118q0 70 49 119t119 49zM916 1332q-44 0 -75.5 -31.5t-31.5 -76.5q0 -44 31.5 -75.5t75.5 -31.5q45 0 76.5 31.5t31.5 75.5q0 45 -31.5 76.5t-76.5 31.5z" />
    <glyph glyph-name="AE" unicode="&#xc6;" horiz-adv-x="1556" 
d="M685 373h-344l-107 -128q-87 -106 -87 -162q0 -22 16.5 -35t70.5 -18v-30h-327l9 30q45 10 78 35q49 35 121 125l570 704q49 60 56 73q10 21 10 41q0 23 -22 37.5t-113 16.5l12 30h952l-67 -275h-32q0 103 -63 158t-231 55h-79l-125 -425h38q139 0 205 38t113 136h30
l-123 -423h-29q7 32 7 51q0 41 -23 82q-18 30 -51 42t-134 12h-50l-97 -328q-21 -73 -21 -101q0 -21 18.5 -35t64.5 -14q156 0 271 57.5t216 174.5h32l-111 -297h-891l8 30q73 0 104.5 26t67.5 140zM702 437l173 593l-483 -593h310z" />
    <glyph glyph-name="Ccedilla" unicode="&#xc7;" horiz-adv-x="1100" 
d="M1188 1117l-80 -347h-32q-5 141 -69 211t-167 70q-111 0 -221.5 -95t-187.5 -291q-62 -159 -62 -313q0 -139 68.5 -211.5t186.5 -72.5q96 0 174.5 41.5t159.5 136.5h39q-100 -150 -202 -210.5t-249 -60.5q-197 0 -317.5 119.5t-120.5 312.5q0 180 95.5 343.5t275.5 265
t358 101.5q68 0 168 -29q52 -15 72 -15q40 0 81 44h30zM535 0h61l-55 -42q66 -9 97.5 -42.5t31.5 -79.5q0 -57 -50 -98t-161 -41q-89 0 -155 24l10 25q60 -11 90 -11q54 0 83 24.5t29 58.5q0 28 -18.5 47t-43.5 19q-17 0 -44 -6l-10 24z" />
    <glyph glyph-name="Egrave" unicode="&#xc8;" horiz-adv-x="1100" 
d="M623 1031l-121 -423h37q146 0 213 38.5t114 136.5h30l-122 -425h-29q8 43 8 69q0 45 -26.5 73t-68.5 40q-27 8 -113 8h-63l-104 -366q-14 -48 -14 -72q0 -18 18 -29q25 -17 97 -17q138 0 259.5 58.5t217.5 176.5h33l-113 -299h-934l10 30q82 0 119.5 31t68.5 136l205 703
q17 59 17 93q0 30 -21.5 46.5t-98.5 22.5l8 30h871l-70 -273h-29q-4 80 -25 113q-34 52 -90 75.5t-182 23.5h-102zM510 1456h237l86 -280h-63z" />
    <glyph glyph-name="Eacute" unicode="&#xc9;" horiz-adv-x="1100" 
d="M623 1031l-121 -423h37q146 0 213 38.5t114 136.5h30l-122 -425h-29q8 43 8 69q0 45 -26.5 73t-68.5 40q-27 8 -113 8h-63l-104 -366q-14 -48 -14 -72q0 -18 18 -29q25 -17 97 -17q138 0 259.5 58.5t217.5 176.5h33l-113 -299h-934l10 30q82 0 119.5 31t68.5 136l205 703
q17 59 17 93q0 30 -21.5 46.5t-98.5 22.5l8 30h871l-70 -273h-29q-4 80 -25 113q-34 52 -90 75.5t-182 23.5h-102zM773 1439h248l-271 -282h-72z" />
    <glyph glyph-name="Ecircumflex" unicode="&#xca;" horiz-adv-x="1100" 
d="M623 1031l-121 -423h37q146 0 213 38.5t114 136.5h30l-122 -425h-29q8 43 8 69q0 45 -26.5 73t-68.5 40q-27 8 -113 8h-63l-104 -366q-14 -48 -14 -72q0 -18 18 -29q25 -17 97 -17q138 0 259.5 58.5t217.5 176.5h33l-113 -299h-934l10 30q82 0 119.5 31t68.5 136l205 703
q17 59 17 93q0 30 -21.5 46.5t-98.5 22.5l8 30h871l-70 -273h-29q-4 80 -25 113q-34 52 -90 75.5t-182 23.5h-102zM719 1444h183l82 -274h-82l-108 163l-237 -163h-84z" />
    <glyph glyph-name="Edieresis" unicode="&#xcb;" horiz-adv-x="1100" 
d="M623 1031l-121 -423h37q146 0 213 38.5t114 136.5h30l-122 -425h-29q8 43 8 69q0 45 -26.5 73t-68.5 40q-27 8 -113 8h-63l-104 -366q-14 -48 -14 -72q0 -18 18 -29q25 -17 97 -17q138 0 259.5 58.5t217.5 176.5h33l-113 -299h-934l10 30q82 0 119.5 31t68.5 136l205 703
q17 59 17 93q0 30 -21.5 46.5t-98.5 22.5l8 30h871l-70 -273h-29q-4 80 -25 113q-34 52 -90 75.5t-182 23.5h-102zM617 1403q44 0 75.5 -31t31.5 -76q0 -44 -31.5 -75.5t-75.5 -31.5t-75.5 31.5t-31.5 75.5q0 45 31.5 76t75.5 31zM916 1403q45 0 76 -31.5t31 -75.5
t-31.5 -75t-75.5 -31t-75 31t-31 75t31 75.5t75 31.5z" />
    <glyph glyph-name="Igrave" unicode="&#xcc;" horiz-adv-x="642" 
d="M228 1062l9 30h533l-11 -30q-72 0 -110.5 -32.5t-67.5 -134.5l-199 -699q-22 -74 -22 -99q0 -29 22 -45q29 -21 110 -22l-8 -30h-542l9 30q81 0 119 31t68 135l202 699q18 65 18 98q0 29 -22.5 46t-107.5 23zM327 1456h237l86 -280h-63z" />
    <glyph glyph-name="Iacute" unicode="&#xcd;" horiz-adv-x="642" 
d="M228 1062l9 30h533l-11 -30q-72 0 -110.5 -32.5t-67.5 -134.5l-199 -699q-22 -74 -22 -99q0 -29 22 -45q29 -21 110 -22l-8 -30h-542l9 30q81 0 119 31t68 135l202 699q18 65 18 98q0 29 -22.5 46t-107.5 23zM583 1439h248l-271 -282h-72z" />
    <glyph glyph-name="Icircumflex" unicode="&#xce;" horiz-adv-x="642" 
d="M228 1062l9 30h533l-11 -30q-72 0 -110.5 -32.5t-67.5 -134.5l-199 -699q-22 -74 -22 -99q0 -29 22 -45q29 -21 110 -22l-8 -30h-542l9 30q81 0 119 31t68 135l202 699q18 65 18 98q0 29 -22.5 46t-107.5 23zM507 1444h183l82 -274h-82l-108 163l-237 -163h-84z" />
    <glyph glyph-name="Idieresis" unicode="&#xcf;" horiz-adv-x="642" 
d="M228 1062l9 30h533l-11 -30q-72 0 -110.5 -32.5t-67.5 -134.5l-199 -699q-22 -74 -22 -99q0 -29 22 -45q29 -21 110 -22l-8 -30h-542l9 30q81 0 119 31t68 135l202 699q18 65 18 98q0 29 -22.5 46t-107.5 23zM396 1403q44 0 75.5 -31t31.5 -76q0 -44 -31.5 -75.5
t-75.5 -31.5t-75.5 31.5t-31.5 75.5q0 45 31.5 76t75.5 31zM695 1403q45 0 76 -31.5t31 -75.5t-31.5 -75t-75.5 -31t-75 31t-31 75t31 75.5t75 31.5z" />
    <glyph glyph-name="Eth" unicode="&#xd0;" horiz-adv-x="1191" 
d="M237 1092h369q297 0 429 -120.5t132 -334.5q0 -153 -62 -256q-120 -201 -283.5 -291t-418.5 -90h-456l8 31q78 0 116 30.5t65 122.5l101 360h-141l18 61h144l76 269q25 86 25 120q0 31 -26.5 50.5t-104.5 20.5zM623 1030l-124 -425h248l-18 -61h-247l-100 -345
q-16 -53 -16 -77q0 -26 22.5 -44t74.5 -18q186 0 317 212q114 183 114 413q0 176 -78.5 262.5t-192.5 82.5z" />
    <glyph glyph-name="Ntilde" unicode="&#xd1;" horiz-adv-x="1191" 
d="M588 1092l341 -728l154 528q12 43 12 77q0 40 -25.5 64.5t-87.5 28.5l9 30h346l-8 -30q-66 -4 -109 -37t-73 -133l-266 -904h-31l-438 931l-212 -726q-10 -38 -10 -67q0 -44 28.5 -70t91.5 -26l-7 -30h-356l7 30q46 0 65 8q34 13 66.5 49.5t52.5 105.5l231 793
q-43 48 -72 61.5t-87 14.5l9 30h369zM1008 1388h51q-2 -112 -49 -168t-105 -56q-57 0 -171 52q-48 22 -70 22q-23 0 -39.5 -17t-21.5 -56h-53q6 116 53.5 169.5t107.5 53.5q64 0 171 -52q45 -21 65 -21q24 0 40.5 16.5t20.5 56.5z" />
    <glyph glyph-name="Ograve" unicode="&#xd2;" horiz-adv-x="1191" 
d="M464 -26q-132 0 -213.5 54t-122 147.5t-40.5 181.5q0 179 102 360.5t275.5 290.5t342.5 109q99 0 188 -49.5t138.5 -139t49.5 -180.5q0 -204 -129.5 -409t-291.5 -296q-122 -69 -299 -69zM782 1051q-64 0 -108.5 -23t-93 -76.5t-98.5 -154t-93.5 -272.5t-43.5 -288
q0 -98 42.5 -148t109.5 -50q88 0 150 58q123 117 201 343t78 402q0 110 -41.5 159.5t-102.5 49.5zM592 1456h237l86 -280h-63z" />
    <glyph glyph-name="Oacute" unicode="&#xd3;" horiz-adv-x="1191" 
d="M464 -26q-132 0 -213.5 54t-122 147.5t-40.5 181.5q0 179 102 360.5t275.5 290.5t342.5 109q99 0 188 -49.5t138.5 -139t49.5 -180.5q0 -204 -129.5 -409t-291.5 -296q-122 -69 -299 -69zM782 1051q-64 0 -108.5 -23t-93 -76.5t-98.5 -154t-93.5 -272.5t-43.5 -288
q0 -98 42.5 -148t109.5 -50q88 0 150 58q123 117 201 343t78 402q0 110 -41.5 159.5t-102.5 49.5zM806 1462h248l-271 -282h-72z" />
    <glyph glyph-name="Ocircumflex" unicode="&#xd4;" horiz-adv-x="1191" 
d="M464 -26q-132 0 -213.5 54t-122 147.5t-40.5 181.5q0 179 102 360.5t275.5 290.5t342.5 109q99 0 188 -49.5t138.5 -139t49.5 -180.5q0 -204 -129.5 -409t-291.5 -296q-122 -69 -299 -69zM782 1051q-64 0 -108.5 -23t-93 -76.5t-98.5 -154t-93.5 -272.5t-43.5 -288
q0 -98 42.5 -148t109.5 -50q88 0 150 58q123 117 201 343t78 402q0 110 -41.5 159.5t-102.5 49.5zM773 1424h183l82 -274h-82l-108 163l-237 -163h-84z" />
    <glyph glyph-name="Otilde" unicode="&#xd5;" horiz-adv-x="1191" 
d="M464 -26q-132 0 -213.5 54t-122 147.5t-40.5 181.5q0 179 102 360.5t275.5 290.5t342.5 109q99 0 188 -49.5t138.5 -139t49.5 -180.5q0 -204 -129.5 -409t-291.5 -296q-122 -69 -299 -69zM782 1051q-64 0 -108.5 -23t-93 -76.5t-98.5 -154t-93.5 -272.5t-43.5 -288
q0 -98 42.5 -148t109.5 -50q88 0 150 58q123 117 201 343t78 402q0 110 -41.5 159.5t-102.5 49.5zM1035 1388h51q-2 -112 -49 -168t-105 -56q-57 0 -171 52q-48 22 -70 22q-23 0 -39.5 -17t-21.5 -56h-53q6 116 53.5 169.5t107.5 53.5q64 0 171 -52q45 -21 65 -21
q24 0 40.5 16.5t20.5 56.5z" />
    <glyph glyph-name="Odieresis" unicode="&#xd6;" horiz-adv-x="1191" 
d="M464 -26q-132 0 -213.5 54t-122 147.5t-40.5 181.5q0 179 102 360.5t275.5 290.5t342.5 109q99 0 188 -49.5t138.5 -139t49.5 -180.5q0 -204 -129.5 -409t-291.5 -296q-122 -69 -299 -69zM782 1051q-64 0 -108.5 -23t-93 -76.5t-98.5 -154t-93.5 -272.5t-43.5 -288
q0 -98 42.5 -148t109.5 -50q88 0 150 58q123 117 201 343t78 402q0 110 -41.5 159.5t-102.5 49.5zM683 1383q44 0 75.5 -31t31.5 -76q0 -44 -31.5 -75.5t-75.5 -31.5t-75.5 31.5t-31.5 75.5q0 45 31.5 76t75.5 31zM982 1383q45 0 76 -31.5t31 -75.5t-31.5 -75t-75.5 -31
t-75 31t-31 75t31 75.5t75 31.5z" />
    <glyph glyph-name="Oslash" unicode="&#xd8;" horiz-adv-x="1191" 
d="M1198 1072l-98 -97q46 -65 64.5 -117.5t18.5 -112.5q0 -183 -108.5 -368t-277.5 -294t-338 -109q-76 0 -132.5 22.5t-119.5 76.5l-96 -98l-43 42l99 101q-43 65 -60.5 117.5t-17.5 118.5q0 185 101 366.5t267.5 289t335.5 107.5q83 0 150 -25q53 -21 118 -73l95 98z
M923 879q-10 97 -48 135.5t-101 38.5q-78 0 -132 -39q-97 -71 -182.5 -265t-114.5 -451zM345 213q13 -96 51.5 -134t100.5 -38q81 0 132 41q102 81 189.5 286t104.5 429z" />
    <glyph glyph-name="Ugrave" unicode="&#xd9;" horiz-adv-x="1191" 
d="M964 1092h369l-7 -30q-64 -5 -98 -31q-56 -41 -83 -135l-145 -501q-68 -234 -184 -327t-294 -93q-102 0 -179 29t-113.5 65t-55.5 90t-19 90q0 57 32 169l138 478q19 64 19 96q0 30 -23 47t-107 23l9 30h544l-9 -30q-79 0 -120.5 -34t-69.5 -132l-140 -478
q-34 -120 -34 -193q0 -66 53 -115t148 -49q87 0 147.5 32t101.5 89q53 76 95 219l142 495q12 43 12 71q0 50 -35 76q-25 19 -103 19zM601 1456h237l86 -280h-63z" />
    <glyph glyph-name="Uacute" unicode="&#xda;" horiz-adv-x="1191" 
d="M964 1092h369l-7 -30q-64 -5 -98 -31q-56 -41 -83 -135l-145 -501q-68 -234 -184 -327t-294 -93q-102 0 -179 29t-113.5 65t-55.5 90t-19 90q0 57 32 169l138 478q19 64 19 96q0 30 -23 47t-107 23l9 30h544l-9 -30q-79 0 -120.5 -34t-69.5 -132l-140 -478
q-34 -120 -34 -193q0 -66 53 -115t148 -49q87 0 147.5 32t101.5 89q53 76 95 219l142 495q12 43 12 71q0 50 -35 76q-25 19 -103 19zM786 1462h248l-271 -282h-72z" />
    <glyph glyph-name="Ucircumflex" unicode="&#xdb;" horiz-adv-x="1191" 
d="M964 1092h369l-7 -30q-64 -5 -98 -31q-56 -41 -83 -135l-145 -501q-68 -234 -184 -327t-294 -93q-102 0 -179 29t-113.5 65t-55.5 90t-19 90q0 57 32 169l138 478q19 64 19 96q0 30 -23 47t-107 23l9 30h544l-9 -30q-79 0 -120.5 -34t-69.5 -132l-140 -478
q-34 -120 -34 -193q0 -66 53 -115t148 -49q87 0 147.5 32t101.5 89q53 76 95 219l142 495q12 43 12 71q0 50 -35 76q-25 19 -103 19zM748 1424h183l82 -274h-82l-108 163l-237 -163h-84z" />
    <glyph glyph-name="Udieresis" unicode="&#xdc;" horiz-adv-x="1191" 
d="M964 1092h369l-7 -30q-64 -5 -98 -31q-56 -41 -83 -135l-145 -501q-68 -234 -184 -327t-294 -93q-102 0 -179 29t-113.5 65t-55.5 90t-19 90q0 57 32 169l138 478q19 64 19 96q0 30 -23 47t-107 23l9 30h544l-9 -30q-79 0 -120.5 -34t-69.5 -132l-140 -478
q-34 -120 -34 -193q0 -66 53 -115t148 -49q87 0 147.5 32t101.5 89q53 76 95 219l142 495q12 43 12 71q0 50 -35 76q-25 19 -103 19zM639 1383q44 0 75.5 -31t31.5 -76q0 -44 -31.5 -75.5t-75.5 -31.5t-75.5 31.5t-31.5 75.5q0 45 31.5 76t75.5 31zM938 1383q45 0 76 -31.5
t31 -75.5t-31.5 -75t-75.5 -31t-75 31t-31 75t31 75.5t75 31.5z" />
    <glyph glyph-name="Yacute" unicode="&#xdd;" horiz-adv-x="1007" 
d="M436 482l-91 398q-24 103 -57 141q-25 29 -91 41l9 30h524l-10 -30q-76 0 -111 -31t-35 -74q0 -26 14 -92l71 -323l177 243q67 93 84 131.5t17 67.5t-21.5 50.5t-70.5 27.5l9 30h328v-30q-45 -5 -77 -29t-125 -153l-310 -427l-73 -253q-23 -78 -23 -91q0 -34 26.5 -56.5
t89.5 -22.5h30l-8 -30h-559l8 30q61 -1 98 16.5t56 44.5q13 19 38 103zM838 1439h248l-271 -282h-72z" />
    <glyph glyph-name="Thorn" unicode="&#xde;" horiz-adv-x="1007" 
d="M564 846h35q99 0 140 -6q80 -12 134.5 -43.5t87 -85.5t32.5 -117q0 -97 -57.5 -180t-160.5 -126t-336 -43h-50l-8 -29q-25 -87 -25 -118q0 -27 22.5 -44.5t98.5 -23.5l-7 -30h-521l9 30q79 1 116 30.5t65 127.5l199 685q25 87 25 124q0 29 -23.5 46t-97.5 19l8 30h521
l-9 -30q-75 1 -113.5 -29.5t-66.5 -124.5zM544 782l-137 -474q122 0 166 17q66 25 116.5 107t50.5 190q0 59 -25 97.5t-71 53.5q-26 9 -100 9z" />
    <glyph glyph-name="germandbls" unicode="&#xdf;" 
d="M464 608l9 30q61 19 88 46q42 41 72.5 121.5t30.5 170.5q0 54 -21 78t-50 24q-41 0 -74 -51t-84 -248l-131 -496q-75 -288 -116 -377q-58 -121 -146.5 -191.5t-197.5 -70.5q-63 0 -94 26.5t-31 61.5q0 30 24 52t64 22q32 0 46 -14q19 -18 19 -43q0 -15 -10 -28
q-16 -20 -16 -26q0 -4 5 -8q7 -5 14 -5q15 0 27.5 6t20.5 16q19 21 35 59q9 21 46 145l63 211l130 489q63 239 110.5 323.5t128 135t177.5 50.5q115 0 173 -54.5t58 -145.5q0 -83 -43.5 -149t-119.5 -103q-51 -26 -155 -40q89 -16 131.5 -44t69.5 -82t27 -116
q0 -169 -114 -304q-85 -102 -196 -102q-61 0 -96 34.5t-35 86.5q0 42 22 67t51 25q21 0 34.5 -15.5t13.5 -41.5q0 -29 -11 -58.5t-11 -45.5q0 -8 5.5 -13.5t14.5 -5.5q14 0 22 8q16 17 54 158q58 217 58 295q0 42 -13 80q-9 25 -29 40q-13 10 -50 17z" />
    <glyph glyph-name="agrave" unicode="&#xe0;" 
d="M790 735l-156 -535l-17 -66q-2 -12 -2 -17q0 -10 7 -17t14 -7q17 0 47 25q12 11 58 74l28 -14q-57 -105 -122 -153t-140 -48q-46 0 -70 24t-24 60q0 32 26 117l19 65q-93 -160 -179 -227q-50 -39 -107 -39q-74 0 -107 61t-33 137q0 114 69.5 261t181.5 236q93 74 174 74
q45 0 72.5 -26t40.5 -95l29 99zM532 582q0 65 -20 94q-15 20 -39 20q-25 0 -52 -24q-54 -50 -116.5 -202.5t-62.5 -263.5q0 -43 14 -61.5t31 -18.5q37 0 74 41q53 60 95 146q76 151 76 269zM343 1117h237l86 -280h-63z" />
    <glyph glyph-name="aacute" unicode="&#xe1;" 
d="M790 735l-156 -535l-17 -66q-2 -12 -2 -17q0 -10 7 -17t14 -7q17 0 47 25q12 11 58 74l28 -14q-57 -105 -122 -153t-140 -48q-46 0 -70 24t-24 60q0 32 26 117l19 65q-93 -160 -179 -227q-50 -39 -107 -39q-74 0 -107 61t-33 137q0 114 69.5 261t181.5 236q93 74 174 74
q45 0 72.5 -26t40.5 -95l29 99zM532 582q0 65 -20 94q-15 20 -39 20q-25 0 -52 -24q-54 -50 -116.5 -202.5t-62.5 -263.5q0 -43 14 -61.5t31 -18.5q37 0 74 41q53 60 95 146q76 151 76 269zM548 1117h248l-271 -282h-72z" />
    <glyph glyph-name="acircumflex" unicode="&#xe2;" 
d="M790 735l-156 -535l-17 -66q-2 -12 -2 -17q0 -10 7 -17t14 -7q17 0 47 25q12 11 58 74l28 -14q-57 -105 -122 -153t-140 -48q-46 0 -70 24t-24 60q0 32 26 117l19 65q-93 -160 -179 -227q-50 -39 -107 -39q-74 0 -107 61t-33 137q0 114 69.5 261t181.5 236q93 74 174 74
q45 0 72.5 -26t40.5 -95l29 99zM532 582q0 65 -20 94q-15 20 -39 20q-25 0 -52 -24q-54 -50 -116.5 -202.5t-62.5 -263.5q0 -43 14 -61.5t31 -18.5q37 0 74 41q53 60 95 146q76 151 76 269zM505 1117h183l82 -274h-82l-108 163l-237 -163h-84z" />
    <glyph glyph-name="atilde" unicode="&#xe3;" 
d="M790 735l-156 -535l-17 -66q-2 -12 -2 -17q0 -10 7 -17t14 -7q17 0 47 25q12 11 58 74l28 -14q-57 -105 -122 -153t-140 -48q-46 0 -70 24t-24 60q0 32 26 117l19 65q-93 -160 -179 -227q-50 -39 -107 -39q-74 0 -107 61t-33 137q0 114 69.5 261t181.5 236q93 74 174 74
q45 0 72.5 -26t40.5 -95l29 99zM532 582q0 65 -20 94q-15 20 -39 20q-25 0 -52 -24q-54 -50 -116.5 -202.5t-62.5 -263.5q0 -43 14 -61.5t31 -18.5q37 0 74 41q53 60 95 146q76 151 76 269zM743 1092h51q-2 -112 -49 -168t-105 -56q-57 0 -171 52q-48 22 -70 22
q-23 0 -39.5 -17t-21.5 -56h-53q6 116 53.5 169.5t107.5 53.5q64 0 171 -52q45 -21 65 -21q24 0 40.5 16.5t20.5 56.5z" />
    <glyph glyph-name="adieresis" unicode="&#xe4;" 
d="M790 735l-156 -535l-17 -66q-2 -12 -2 -17q0 -10 7 -17t14 -7q17 0 47 25q12 11 58 74l28 -14q-57 -105 -122 -153t-140 -48q-46 0 -70 24t-24 60q0 32 26 117l19 65q-93 -160 -179 -227q-50 -39 -107 -39q-74 0 -107 61t-33 137q0 114 69.5 261t181.5 236q93 74 174 74
q45 0 72.5 -26t40.5 -95l29 99zM532 582q0 65 -20 94q-15 20 -39 20q-25 0 -52 -24q-54 -50 -116.5 -202.5t-62.5 -263.5q0 -43 14 -61.5t31 -18.5q37 0 74 41q53 60 95 146q76 151 76 269zM396 1084q44 0 75.5 -31t31.5 -76q0 -44 -31.5 -75.5t-75.5 -31.5t-75.5 31.5
t-31.5 75.5q0 45 31.5 76t75.5 31zM695 1084q45 0 76 -31.5t31 -75.5t-31.5 -75t-75.5 -31t-75 31t-31 75t31 75.5t75 31.5z" />
    <glyph glyph-name="aring" unicode="&#xe5;" 
d="M790 735l-156 -535l-17 -66q-2 -12 -2 -17q0 -10 7 -17t14 -7q17 0 47 25q12 11 58 74l28 -14q-57 -105 -122 -153t-140 -48q-46 0 -70 24t-24 60q0 32 26 117l19 65q-93 -160 -179 -227q-50 -39 -107 -39q-74 0 -107 61t-33 137q0 114 69.5 261t181.5 236q93 74 174 74
q45 0 72.5 -26t40.5 -95l29 99zM532 582q0 65 -20 94q-15 20 -39 20q-25 0 -52 -24q-54 -50 -116.5 -202.5t-62.5 -263.5q0 -43 14 -61.5t31 -18.5q37 0 74 41q53 60 95 146q76 151 76 269zM575 1148q70 0 118.5 -49t48.5 -119q0 -69 -48.5 -118t-118.5 -49q-69 0 -118.5 49
t-49.5 118q0 70 49 119t119 49zM575 1088q-44 0 -75.5 -31.5t-31.5 -76.5q0 -44 31.5 -75.5t75.5 -31.5q45 0 76.5 31.5t31.5 75.5q0 45 -31.5 76.5t-76.5 31.5z" />
    <glyph glyph-name="ae" unicode="&#xe6;" horiz-adv-x="1191" 
d="M696 301q-5 -44 -5 -74q0 -68 39.5 -108t98.5 -40q128 0 252 133l24 -25q-95 -112 -184 -161t-188 -49q-90 0 -147 31.5t-81 82.5t-28 136q-70 -104 -112 -149q-57 -59 -108 -84q-35 -17 -78 -17q-62 0 -105 49.5t-43 138.5q0 119 58 243t137.5 204t146.5 113
q45 21 96 21t81 -26t46 -98l36 102l171 10l-27 -85q79 55 136 76t122 21q76 0 111.5 -31t35.5 -80q0 -112 -115.5 -212.5t-369.5 -121.5zM489 698q-28 0 -45 -12q-46 -32 -92 -113.5t-89 -229.5q-21 -70 -21 -136q0 -43 17 -63.5t40 -20.5q24 0 60 32q72 63 134.5 198.5
t62.5 229.5q0 58 -26 93q-15 22 -41 22zM704 345q100 14 155.5 49t96.5 108t41 128q0 28 -14.5 44.5t-36.5 16.5q-41 0 -93 -57q-89 -95 -149 -289z" />
    <glyph glyph-name="ccedilla" unicode="&#xe7;" horiz-adv-x="732" 
d="M619 194l24 -22q-78 -93 -154 -137q-100 -58 -208 -58q-73 0 -128.5 31t-82.5 87t-27 115q0 132 72 259.5t189.5 202t230.5 74.5q91 0 137 -40t46 -100q0 -54 -34.5 -91.5t-77.5 -37.5q-37 0 -61.5 24t-24.5 57q0 43 44 76q29 22 29 39q0 14 -12 23q-16 13 -42 13
q-67 0 -127 -55q-79 -72 -120.5 -183t-41.5 -211q0 -79 42.5 -126t101.5 -47q51 0 111 26.5t114 80.5zM311 0h61l-55 -42q66 -9 97.5 -42.5t31.5 -79.5q0 -57 -50 -98t-161 -41q-89 0 -155 24l10 25q60 -11 90 -11q54 0 83 24.5t29 58.5q0 28 -18.5 47t-43.5 19
q-17 0 -44 -6l-10 24z" />
    <glyph glyph-name="egrave" unicode="&#xe8;" horiz-adv-x="732" 
d="M258 302q-8 -52 -8 -86q0 -61 35 -97t94 -36q57 0 113.5 27.5t131.5 95.5l24 -22q-93 -112 -180.5 -159.5t-193.5 -47.5q-135 0 -186.5 64.5t-51.5 149.5q0 132 77 264t209.5 211.5t265.5 79.5q68 0 102.5 -32t34.5 -81q0 -59 -34 -115q-46 -75 -117 -121.5t-159 -70.5
q-58 -16 -157 -24zM265 344q71 10 110 28t76.5 58t64.5 101t27 114q0 22 -12.5 35t-31.5 13q-39 0 -87 -54q-88 -98 -147 -295zM310 1117h237l86 -280h-63z" />
    <glyph glyph-name="eacute" unicode="&#xe9;" horiz-adv-x="732" 
d="M258 302q-8 -52 -8 -86q0 -61 35 -97t94 -36q57 0 113.5 27.5t131.5 95.5l24 -22q-93 -112 -180.5 -159.5t-193.5 -47.5q-135 0 -186.5 64.5t-51.5 149.5q0 132 77 264t209.5 211.5t265.5 79.5q68 0 102.5 -32t34.5 -81q0 -59 -34 -115q-46 -75 -117 -121.5t-159 -70.5
q-58 -16 -157 -24zM265 344q71 10 110 28t76.5 58t64.5 101t27 114q0 22 -12.5 35t-31.5 13q-39 0 -87 -54q-88 -98 -147 -295zM587 1117h248l-271 -282h-72z" />
    <glyph glyph-name="ecircumflex" unicode="&#xea;" horiz-adv-x="732" 
d="M258 302q-8 -52 -8 -86q0 -61 35 -97t94 -36q57 0 113.5 27.5t131.5 95.5l24 -22q-93 -112 -180.5 -159.5t-193.5 -47.5q-135 0 -186.5 64.5t-51.5 149.5q0 132 77 264t209.5 211.5t265.5 79.5q68 0 102.5 -32t34.5 -81q0 -59 -34 -115q-46 -75 -117 -121.5t-159 -70.5
q-58 -16 -157 -24zM265 344q71 10 110 28t76.5 58t64.5 101t27 114q0 22 -12.5 35t-31.5 13q-39 0 -87 -54q-88 -98 -147 -295zM462 1117h183l82 -274h-82l-108 163l-237 -163h-84z" />
    <glyph glyph-name="edieresis" unicode="&#xeb;" horiz-adv-x="732" 
d="M258 302q-8 -52 -8 -86q0 -61 35 -97t94 -36q57 0 113.5 27.5t131.5 95.5l24 -22q-93 -112 -180.5 -159.5t-193.5 -47.5q-135 0 -186.5 64.5t-51.5 149.5q0 132 77 264t209.5 211.5t265.5 79.5q68 0 102.5 -32t34.5 -81q0 -59 -34 -115q-46 -75 -117 -121.5t-159 -70.5
q-58 -16 -157 -24zM265 344q71 10 110 28t76.5 58t64.5 101t27 114q0 22 -12.5 35t-31.5 13q-39 0 -87 -54q-88 -98 -147 -295zM353 1084q44 0 75.5 -31t31.5 -76q0 -44 -31.5 -75.5t-75.5 -31.5t-75.5 31.5t-31.5 75.5q0 45 31.5 76t75.5 31zM652 1084q45 0 76 -31.5
t31 -75.5t-31.5 -75t-75.5 -31t-75 31t-31 75t31 75.5t75 31.5z" />
    <glyph glyph-name="igrave" unicode="&#xec;" horiz-adv-x="458" 
d="M423 746l-165 -572q-13 -49 -13 -65q0 -8 7 -16t15 -8q14 0 28 12q36 30 87 108l27 -16q-122 -212 -258 -212q-53 0 -84 29.5t-31 74.5q0 30 14 76l112 385q16 55 16 83q0 18 -15.5 32t-41.5 14q-12 0 -29 -1l10 32l273 44h48zM125 1117h237l86 -280h-63z" />
    <glyph glyph-name="iacute" unicode="&#xed;" horiz-adv-x="458" 
d="M423 746l-165 -572q-13 -49 -13 -65q0 -8 7 -16t15 -8q14 0 28 12q36 30 87 108l27 -16q-122 -212 -258 -212q-53 0 -84 29.5t-31 74.5q0 30 14 76l112 385q16 55 16 83q0 18 -15.5 32t-41.5 14q-12 0 -29 -1l10 32l273 44h48zM348 1117h248l-271 -282h-72z" />
    <glyph glyph-name="icircumflex" unicode="&#xee;" horiz-adv-x="458" 
d="M423 746l-165 -572q-13 -49 -13 -65q0 -8 7 -16t15 -8q14 0 28 12q36 30 87 108l27 -16q-122 -212 -258 -212q-53 0 -84 29.5t-31 74.5q0 30 14 76l112 385q16 55 16 83q0 18 -15.5 32t-41.5 14q-12 0 -29 -1l10 32l273 44h48zM297 1117h183l82 -274h-82l-108 163
l-237 -163h-84z" />
    <glyph glyph-name="idieresis" unicode="&#xef;" horiz-adv-x="458" 
d="M423 746l-165 -572q-13 -49 -13 -65q0 -8 7 -16t15 -8q14 0 28 12q36 30 87 108l27 -16q-122 -212 -258 -212q-53 0 -84 29.5t-31 74.5q0 30 14 76l112 385q16 55 16 83q0 18 -15.5 32t-41.5 14q-12 0 -29 -1l10 32l273 44h48zM188 1084q44 0 75.5 -31t31.5 -76
q0 -44 -31.5 -75.5t-75.5 -31.5t-75.5 31.5t-31.5 75.5q0 45 31.5 76t75.5 31zM487 1084q45 0 76 -31.5t31 -75.5t-31.5 -75t-75.5 -31t-75 31t-31 75t31 75.5t75 31.5z" />
    <glyph glyph-name="eth" unicode="&#xf0;" 
d="M559 919l-172 -93l-23 46l178 97q-26 55 -38.5 75.5t-37.5 51.5l23 21q56 -44 119 -113l170 92l24 -46l-163 -86q139 -200 139 -419q0 -134 -58 -253q-45 -92 -117.5 -162.5t-156 -111.5t-164.5 -41q-115 0 -177.5 61.5t-62.5 167.5q0 130 65.5 252t175 194t191.5 72
q58 0 114 -37q0 75 -6 121t-23 111zM500 681q-42 0 -73 -27q-54 -49 -114 -210q-75 -205 -75 -332q0 -46 21.5 -69.5t54.5 -23.5q35 0 68 30q62 56 114 202q76 213 76 338q0 45 -20.5 68.5t-51.5 23.5z" />
    </font>
</defs>
</svg>
